G04 Layer_Color=8388736*
%FSLAX25Y25*%
%MOIN*%
G70*
G01*
G75*
%ADD62R,0.06299X0.10236*%
%ADD63R,0.04737X0.07099*%
%ADD64R,0.05800X0.03300*%
G04:AMPARAMS|DCode=65|XSize=47.37mil|YSize=43.43mil|CornerRadius=8.43mil|HoleSize=0mil|Usage=FLASHONLY|Rotation=90.000|XOffset=0mil|YOffset=0mil|HoleType=Round|Shape=RoundedRectangle|*
%AMROUNDEDRECTD65*
21,1,0.04737,0.02657,0,0,90.0*
21,1,0.03051,0.04343,0,0,90.0*
1,1,0.01686,0.01329,0.01526*
1,1,0.01686,0.01329,-0.01526*
1,1,0.01686,-0.01329,-0.01526*
1,1,0.01686,-0.01329,0.01526*
%
%ADD65ROUNDEDRECTD65*%
G04:AMPARAMS|DCode=66|XSize=39.5mil|YSize=39.5mil|CornerRadius=7.94mil|HoleSize=0mil|Usage=FLASHONLY|Rotation=180.000|XOffset=0mil|YOffset=0mil|HoleType=Round|Shape=RoundedRectangle|*
%AMROUNDEDRECTD66*
21,1,0.03950,0.02362,0,0,180.0*
21,1,0.02362,0.03950,0,0,180.0*
1,1,0.01587,-0.01181,0.01181*
1,1,0.01587,0.01181,0.01181*
1,1,0.01587,0.01181,-0.01181*
1,1,0.01587,-0.01181,-0.01181*
%
%ADD66ROUNDEDRECTD66*%
G04:AMPARAMS|DCode=67|XSize=47.37mil|YSize=43.43mil|CornerRadius=8.43mil|HoleSize=0mil|Usage=FLASHONLY|Rotation=0.000|XOffset=0mil|YOffset=0mil|HoleType=Round|Shape=RoundedRectangle|*
%AMROUNDEDRECTD67*
21,1,0.04737,0.02657,0,0,0.0*
21,1,0.03051,0.04343,0,0,0.0*
1,1,0.01686,0.01526,-0.01329*
1,1,0.01686,-0.01526,-0.01329*
1,1,0.01686,-0.01526,0.01329*
1,1,0.01686,0.01526,0.01329*
%
%ADD67ROUNDEDRECTD67*%
%ADD68R,0.05524X0.03359*%
%ADD69R,0.03753X0.04540*%
%ADD70R,0.04540X0.03753*%
G04:AMPARAMS|DCode=71|XSize=33.59mil|YSize=72.96mil|CornerRadius=5.92mil|HoleSize=0mil|Usage=FLASHONLY|Rotation=90.000|XOffset=0mil|YOffset=0mil|HoleType=Round|Shape=RoundedRectangle|*
%AMROUNDEDRECTD71*
21,1,0.03359,0.06112,0,0,90.0*
21,1,0.02175,0.07296,0,0,90.0*
1,1,0.01184,0.03056,0.01088*
1,1,0.01184,0.03056,-0.01088*
1,1,0.01184,-0.03056,-0.01088*
1,1,0.01184,-0.03056,0.01088*
%
%ADD71ROUNDEDRECTD71*%
%ADD72R,0.06902X0.06902*%
%ADD73C,0.06902*%
%ADD74C,0.07453*%
%ADD75R,0.07453X0.07453*%
%ADD76C,0.19540*%
%ADD77R,0.07887X0.07887*%
%ADD78C,0.07887*%
%ADD79C,0.08800*%
D62*
X631000Y165209D02*
D03*
X631000Y181709D02*
D03*
X631000Y148453D02*
D03*
D63*
X592520Y144488D02*
D03*
X602362D02*
D03*
X612205D02*
D03*
Y135039D02*
D03*
X602362D02*
D03*
X592520D02*
D03*
D64*
X631000Y162012D02*
D03*
Y165255D02*
D03*
Y168500D02*
D03*
Y178512D02*
D03*
Y181755D02*
D03*
Y185000D02*
D03*
Y145257D02*
D03*
Y148500D02*
D03*
Y151744D02*
D03*
D65*
X606890Y124016D02*
D03*
X613583D02*
D03*
X611811Y186024D02*
D03*
X618504D02*
D03*
X597047D02*
D03*
X603740D02*
D03*
X624606Y207677D02*
D03*
X631299D02*
D03*
X598032D02*
D03*
X604724D02*
D03*
X548622Y185039D02*
D03*
X541929D02*
D03*
D66*
X591142Y124016D02*
D03*
X597835D02*
D03*
X623622Y214567D02*
D03*
X630315D02*
D03*
X603740D02*
D03*
X597047D02*
D03*
X562402Y185039D02*
D03*
X555709D02*
D03*
D67*
X579724Y149016D02*
D03*
Y142323D02*
D03*
X639500Y113654D02*
D03*
Y120346D02*
D03*
D68*
X568110Y193110D02*
D03*
Y200590D02*
D03*
X557874Y196850D02*
D03*
X612992Y200591D02*
D03*
Y193110D02*
D03*
X623228Y196850D02*
D03*
X594291Y200591D02*
D03*
Y193110D02*
D03*
X604528Y196850D02*
D03*
D69*
X581744Y190000D02*
D03*
X587256D02*
D03*
X581744Y182500D02*
D03*
X587256D02*
D03*
D70*
X576000Y194244D02*
D03*
Y199756D02*
D03*
D71*
X599122Y160000D02*
D03*
Y165000D02*
D03*
Y170000D02*
D03*
Y175000D02*
D03*
X576878Y160000D02*
D03*
Y165000D02*
D03*
Y170000D02*
D03*
Y175000D02*
D03*
D72*
X500000Y175669D02*
D03*
D73*
Y165669D02*
D03*
Y155669D02*
D03*
Y145669D02*
D03*
D74*
X662000Y179000D02*
D03*
X650819Y151736D02*
D03*
X662000Y157189D02*
D03*
X650819Y173547D02*
D03*
X662000Y146283D02*
D03*
X650819Y162642D02*
D03*
X662000Y168094D02*
D03*
X650819Y184453D02*
D03*
D75*
Y140831D02*
D03*
D76*
X656409Y113449D02*
D03*
Y211835D02*
D03*
D77*
X543150Y159449D02*
D03*
D78*
X553150D02*
D03*
X543150Y149449D02*
D03*
X553150D02*
D03*
X543150Y139449D02*
D03*
X553150D02*
D03*
D79*
X635000Y105000D02*
D03*
X615000Y165000D02*
D03*
Y175000D02*
D03*
M02*
