G04 Layer_Physical_Order=2*
G04 Layer_Color=16711680*
%FSLAX25Y25*%
%MOIN*%
G70*
G01*
G75*
%ADD20C,0.01000*%
%ADD21C,0.01200*%
%ADD23C,0.02500*%
%ADD24R,0.06102X0.06102*%
%ADD25C,0.06102*%
%ADD26C,0.06653*%
%ADD27R,0.06653X0.06653*%
%ADD28C,0.18740*%
%ADD29R,0.07087X0.07087*%
%ADD30C,0.07087*%
%ADD31C,0.02400*%
%ADD32C,0.08000*%
G36*
X697725Y227294D02*
X698271Y227068D01*
X698763Y226740D01*
X699180Y226322D01*
X699509Y225830D01*
X699735Y225284D01*
X699850Y224705D01*
Y224410D01*
Y103425D01*
Y103025D01*
X699694Y102240D01*
X699388Y101501D01*
X698943Y100835D01*
X698377Y100269D01*
X697712Y99825D01*
X696973Y99519D01*
X696187Y99362D01*
X591214D01*
X590429Y99519D01*
X589690Y99825D01*
X589024Y100269D01*
X588458Y100835D01*
X588014Y101501D01*
X587708Y102240D01*
X587551Y103025D01*
Y103425D01*
Y113110D01*
X587544Y113148D01*
X587550Y113185D01*
X587528Y113617D01*
X587501Y113727D01*
Y113841D01*
X587332Y114688D01*
X587275Y114827D01*
X587245Y114975D01*
X586915Y115773D01*
X586831Y115899D01*
X586773Y116038D01*
X586293Y116756D01*
X586187Y116863D01*
X586103Y116988D01*
X585492Y117599D01*
X585367Y117683D01*
X585260Y117789D01*
X584542Y118269D01*
X584403Y118327D01*
X584277Y118411D01*
X583479Y118741D01*
X583331Y118771D01*
X583192Y118828D01*
X582345Y118997D01*
X582231D01*
X582121Y119025D01*
X581689Y119046D01*
X581651Y119040D01*
X581614Y119047D01*
X496286D01*
X496171Y119117D01*
X495757Y119266D01*
X495110Y119568D01*
X494565Y119939D01*
X494087Y120394D01*
X493688Y120920D01*
X493380Y121503D01*
X493170Y122129D01*
X493063Y122780D01*
Y123110D01*
Y151431D01*
X493130Y151532D01*
X493223Y152000D01*
X493130Y152468D01*
X493063Y152569D01*
Y155431D01*
X493130Y155532D01*
X493223Y156000D01*
X493130Y156468D01*
X493063Y156569D01*
Y159431D01*
X493130Y159532D01*
X493223Y160000D01*
X493130Y160468D01*
X493063Y160569D01*
Y163431D01*
X493130Y163532D01*
X493223Y164000D01*
X493130Y164468D01*
X493063Y164569D01*
Y167431D01*
X493130Y167532D01*
X493223Y168000D01*
X493130Y168468D01*
X493063Y168569D01*
Y171431D01*
X493130Y171532D01*
X493223Y172000D01*
X493130Y172468D01*
X493063Y172569D01*
Y175431D01*
X493130Y175532D01*
X493223Y176000D01*
X493130Y176468D01*
X493063Y176569D01*
Y203661D01*
Y203991D01*
X493170Y204643D01*
X493380Y205268D01*
X493688Y205852D01*
X494087Y206378D01*
X494565Y206832D01*
X495110Y207204D01*
X495708Y207483D01*
X496026Y207572D01*
X496064Y207592D01*
X496107Y207598D01*
X496325Y207724D01*
X582677D01*
X582715Y207732D01*
X582752Y207726D01*
X583080Y207742D01*
X583190Y207770D01*
X583303D01*
X583947Y207898D01*
X584086Y207955D01*
X584233Y207985D01*
X584839Y208236D01*
X584964Y208319D01*
X585104Y208377D01*
X585649Y208741D01*
X585755Y208848D01*
X585881Y208931D01*
X586344Y209395D01*
X586428Y209520D01*
X586535Y209627D01*
X586899Y210172D01*
X586956Y210311D01*
X587040Y210436D01*
X587291Y211042D01*
X587320Y211190D01*
X587378Y211329D01*
X587506Y211972D01*
Y212086D01*
X587534Y212195D01*
X587550Y212523D01*
X587544Y212561D01*
X587551Y212598D01*
Y224410D01*
Y224705D01*
X587667Y225284D01*
X587893Y225830D01*
X588221Y226322D01*
X588639Y226740D01*
X589130Y227068D01*
X589676Y227294D01*
X590256Y227409D01*
X697146D01*
X697725Y227294D01*
D02*
G37*
%LPC*%
G36*
X553150Y153628D02*
X552068Y153486D01*
X551060Y153068D01*
X550195Y152404D01*
X549531Y151538D01*
X549113Y150530D01*
X548971Y149449D01*
X549113Y148367D01*
X549531Y147359D01*
X550195Y146494D01*
X551060Y145830D01*
X552068Y145412D01*
X553150Y145270D01*
X554231Y145412D01*
X555239Y145830D01*
X556105Y146494D01*
X556769Y147359D01*
X557186Y148367D01*
X557329Y149449D01*
X557186Y150530D01*
X556769Y151538D01*
X556105Y152404D01*
X555239Y153068D01*
X554231Y153486D01*
X553150Y153628D01*
D02*
G37*
G36*
X499500Y149690D02*
X498942Y149616D01*
X497957Y149208D01*
X497111Y148559D01*
X496461Y147712D01*
X496053Y146727D01*
X495980Y146169D01*
X499500D01*
Y149690D01*
D02*
G37*
G36*
X662000Y150244D02*
X660975Y150109D01*
X660020Y149713D01*
X659199Y149084D01*
X658570Y148264D01*
X658174Y147309D01*
X658039Y146283D01*
X658174Y145258D01*
X658570Y144303D01*
X659199Y143483D01*
X660020Y142853D01*
X660975Y142458D01*
X662000Y142323D01*
X663025Y142458D01*
X663980Y142853D01*
X664801Y143483D01*
X665430Y144303D01*
X665826Y145258D01*
X665961Y146283D01*
X665826Y147309D01*
X665430Y148264D01*
X664801Y149084D01*
X663980Y149713D01*
X663025Y150109D01*
X662000Y150244D01*
D02*
G37*
G36*
X543150Y153628D02*
X542068Y153486D01*
X541060Y153068D01*
X540195Y152404D01*
X539531Y151538D01*
X539113Y150530D01*
X538971Y149449D01*
X539113Y148367D01*
X539531Y147359D01*
X540195Y146494D01*
X541060Y145830D01*
X542068Y145412D01*
X543150Y145270D01*
X544231Y145412D01*
X545239Y145830D01*
X546105Y146494D01*
X546769Y147359D01*
X547186Y148367D01*
X547329Y149449D01*
X547186Y150530D01*
X546769Y151538D01*
X546105Y152404D01*
X545239Y153068D01*
X544231Y153486D01*
X543150Y153628D01*
D02*
G37*
G36*
X500000Y159352D02*
X499047Y159227D01*
X498159Y158859D01*
X497396Y158273D01*
X496811Y157511D01*
X496443Y156622D01*
X496317Y155669D01*
X496443Y154716D01*
X496811Y153828D01*
X497396Y153065D01*
X498159Y152480D01*
X499047Y152112D01*
X500000Y151987D01*
X500953Y152112D01*
X501841Y152480D01*
X502604Y153065D01*
X503189Y153828D01*
X503557Y154716D01*
X503683Y155669D01*
X503557Y156622D01*
X503189Y157511D01*
X502604Y158273D01*
X501841Y158859D01*
X500953Y159227D01*
X500000Y159352D01*
D02*
G37*
G36*
X662000Y161150D02*
X660975Y161015D01*
X660020Y160619D01*
X659199Y159990D01*
X658570Y159169D01*
X658174Y158214D01*
X658039Y157189D01*
X658174Y156164D01*
X658570Y155209D01*
X659199Y154388D01*
X660020Y153759D01*
X660975Y153363D01*
X662000Y153228D01*
X663025Y153363D01*
X663980Y153759D01*
X664801Y154388D01*
X665430Y155209D01*
X665826Y156164D01*
X665961Y157189D01*
X665826Y158214D01*
X665430Y159169D01*
X664801Y159990D01*
X663980Y160619D01*
X663025Y161015D01*
X662000Y161150D01*
D02*
G37*
G36*
X500500Y149690D02*
Y146169D01*
X504020D01*
X503947Y146727D01*
X503539Y147712D01*
X502889Y148559D01*
X502043Y149208D01*
X501058Y149616D01*
X500500Y149690D01*
D02*
G37*
G36*
X650819Y155697D02*
X649794Y155562D01*
X648839Y155166D01*
X648018Y154537D01*
X647389Y153717D01*
X646993Y152761D01*
X646858Y151736D01*
X646993Y150711D01*
X647389Y149756D01*
X648018Y148936D01*
X648839Y148306D01*
X649794Y147910D01*
X650819Y147775D01*
X651844Y147910D01*
X652799Y148306D01*
X653620Y148936D01*
X654249Y149756D01*
X654645Y150711D01*
X654780Y151736D01*
X654645Y152761D01*
X654249Y153717D01*
X653620Y154537D01*
X652799Y155166D01*
X651844Y155562D01*
X650819Y155697D01*
D02*
G37*
G36*
X504020Y145169D02*
X500500D01*
Y141649D01*
X501058Y141722D01*
X502043Y142131D01*
X502889Y142780D01*
X503539Y143626D01*
X503947Y144612D01*
X504020Y145169D01*
D02*
G37*
G36*
X552650Y138949D02*
X548633D01*
X548723Y138263D01*
X549181Y137158D01*
X549909Y136208D01*
X550858Y135480D01*
X551964Y135022D01*
X552650Y134932D01*
Y138949D01*
D02*
G37*
G36*
X543150Y143628D02*
X542068Y143485D01*
X541060Y143068D01*
X540195Y142404D01*
X539531Y141538D01*
X539113Y140530D01*
X538971Y139449D01*
X539113Y138367D01*
X539531Y137359D01*
X540195Y136494D01*
X541060Y135830D01*
X542068Y135412D01*
X543150Y135270D01*
X544231Y135412D01*
X545239Y135830D01*
X546105Y136494D01*
X546769Y137359D01*
X547186Y138367D01*
X547329Y139449D01*
X547186Y140530D01*
X546769Y141538D01*
X546105Y142404D01*
X545239Y143068D01*
X544231Y143485D01*
X543150Y143628D01*
D02*
G37*
G36*
X656409Y123467D02*
X654455Y123275D01*
X652576Y122705D01*
X650843Y121779D01*
X649325Y120533D01*
X648079Y119015D01*
X647154Y117283D01*
X646584Y115403D01*
X646391Y113449D01*
X646584Y111494D01*
X647154Y109615D01*
X648079Y107883D01*
X649325Y106365D01*
X650843Y105119D01*
X652576Y104193D01*
X654455Y103623D01*
X656409Y103430D01*
X658364Y103623D01*
X660243Y104193D01*
X661975Y105119D01*
X663493Y106365D01*
X664739Y107883D01*
X665665Y109615D01*
X666235Y111494D01*
X666428Y113449D01*
X666235Y115403D01*
X665665Y117283D01*
X664739Y119015D01*
X663493Y120533D01*
X661975Y121779D01*
X660243Y122705D01*
X658364Y123275D01*
X656409Y123467D01*
D02*
G37*
G36*
X557666Y138949D02*
X553650D01*
Y134932D01*
X554336Y135022D01*
X555441Y135480D01*
X556390Y136208D01*
X557118Y137158D01*
X557576Y138263D01*
X557666Y138949D01*
D02*
G37*
G36*
X553650Y143965D02*
Y139949D01*
X557666D01*
X557576Y140635D01*
X557118Y141740D01*
X556390Y142689D01*
X555441Y143417D01*
X554336Y143875D01*
X553650Y143965D01*
D02*
G37*
G36*
X499500Y145169D02*
X495980D01*
X496053Y144612D01*
X496461Y143626D01*
X497111Y142780D01*
X497957Y142131D01*
X498942Y141722D01*
X499500Y141649D01*
Y145169D01*
D02*
G37*
G36*
X654746Y144757D02*
X646892D01*
Y136904D01*
X654746D01*
Y144757D01*
D02*
G37*
G36*
X552650Y143965D02*
X551964Y143875D01*
X550858Y143417D01*
X549909Y142689D01*
X549181Y141740D01*
X548723Y140635D01*
X548633Y139949D01*
X552650D01*
Y143965D01*
D02*
G37*
G36*
X503651Y179321D02*
X496349D01*
Y172018D01*
X503651D01*
Y179321D01*
D02*
G37*
G36*
X662000Y182961D02*
X660975Y182826D01*
X660020Y182430D01*
X659199Y181801D01*
X658570Y180980D01*
X658174Y180025D01*
X658039Y179000D01*
X658174Y177975D01*
X658570Y177020D01*
X659199Y176199D01*
X660020Y175570D01*
X660975Y175174D01*
X662000Y175039D01*
X663025Y175174D01*
X663980Y175570D01*
X664801Y176199D01*
X665430Y177020D01*
X665826Y177975D01*
X665961Y179000D01*
X665826Y180025D01*
X665430Y180980D01*
X664801Y181801D01*
X663980Y182430D01*
X663025Y182826D01*
X662000Y182961D01*
D02*
G37*
G36*
X650819Y177508D02*
X649794Y177373D01*
X648839Y176977D01*
X648018Y176348D01*
X647389Y175528D01*
X646993Y174572D01*
X646858Y173547D01*
X646993Y172522D01*
X647389Y171567D01*
X648018Y170747D01*
X648839Y170117D01*
X649794Y169721D01*
X650819Y169587D01*
X651844Y169721D01*
X652799Y170117D01*
X653620Y170747D01*
X654249Y171567D01*
X654645Y172522D01*
X654780Y173547D01*
X654645Y174572D01*
X654249Y175528D01*
X653620Y176348D01*
X652799Y176977D01*
X651844Y177373D01*
X650819Y177508D01*
D02*
G37*
G36*
X615000Y179640D02*
X613799Y179482D01*
X612680Y179018D01*
X611719Y178281D01*
X610982Y177320D01*
X610518Y176201D01*
X610360Y175000D01*
X610518Y173799D01*
X610982Y172680D01*
X611719Y171719D01*
X612680Y170982D01*
X613799Y170518D01*
X615000Y170360D01*
X616201Y170518D01*
X617320Y170982D01*
X618281Y171719D01*
X619018Y172680D01*
X619482Y173799D01*
X619640Y175000D01*
X619482Y176201D01*
X619018Y177320D01*
X618281Y178281D01*
X617320Y179018D01*
X616201Y179482D01*
X615000Y179640D01*
D02*
G37*
G36*
X606000Y192835D02*
X605298Y192696D01*
X604702Y192298D01*
X604304Y191702D01*
X604165Y191000D01*
X604206Y190792D01*
X601035Y187622D01*
X593915D01*
X593798Y187798D01*
X593202Y188196D01*
X592500Y188335D01*
X591798Y188196D01*
X591202Y187798D01*
X590804Y187202D01*
X590665Y186500D01*
X590804Y185798D01*
X591202Y185202D01*
X591798Y184804D01*
X592500Y184665D01*
X593202Y184804D01*
X593798Y185202D01*
X593915Y185378D01*
X601500D01*
X601500Y185378D01*
X601929Y185464D01*
X602293Y185707D01*
X605792Y189206D01*
X606000Y189165D01*
X606702Y189304D01*
X607298Y189702D01*
X607696Y190298D01*
X607835Y191000D01*
X607696Y191702D01*
X607298Y192298D01*
X606702Y192696D01*
X606000Y192835D01*
D02*
G37*
G36*
X656409Y221853D02*
X654455Y221660D01*
X652576Y221090D01*
X650843Y220164D01*
X649325Y218919D01*
X648079Y217401D01*
X647154Y215668D01*
X646584Y213789D01*
X646391Y211835D01*
X646584Y209880D01*
X647154Y208001D01*
X648079Y206269D01*
X649325Y204751D01*
X650843Y203505D01*
X652576Y202579D01*
X654455Y202009D01*
X656409Y201816D01*
X658364Y202009D01*
X660243Y202579D01*
X661975Y203505D01*
X663493Y204751D01*
X664739Y206269D01*
X665665Y208001D01*
X666235Y209880D01*
X666428Y211835D01*
X666235Y213789D01*
X665665Y215668D01*
X664739Y217401D01*
X663493Y218919D01*
X661975Y220164D01*
X660243Y221090D01*
X658364Y221660D01*
X656409Y221853D01*
D02*
G37*
G36*
X593500Y181835D02*
X592798Y181696D01*
X592202Y181298D01*
X591804Y180702D01*
X591665Y180000D01*
X591682Y179912D01*
X590493Y178724D01*
X584347D01*
X584298Y178798D01*
X583702Y179196D01*
X583000Y179335D01*
X582298Y179196D01*
X581702Y178798D01*
X581304Y178202D01*
X581165Y177500D01*
X581304Y176798D01*
X581702Y176202D01*
X582298Y175804D01*
X583000Y175665D01*
X583702Y175804D01*
X584298Y176202D01*
X584347Y176277D01*
X591000D01*
X591468Y176370D01*
X591865Y176635D01*
X593412Y178182D01*
X593500Y178165D01*
X594202Y178304D01*
X594798Y178702D01*
X595196Y179298D01*
X595335Y180000D01*
X595196Y180702D01*
X594798Y181298D01*
X594202Y181696D01*
X593500Y181835D01*
D02*
G37*
G36*
X650819Y188413D02*
X649794Y188278D01*
X648839Y187883D01*
X648018Y187253D01*
X647389Y186433D01*
X646993Y185478D01*
X646858Y184453D01*
X646993Y183428D01*
X647389Y182472D01*
X648018Y181652D01*
X648839Y181023D01*
X649794Y180627D01*
X650819Y180492D01*
X651844Y180627D01*
X652799Y181023D01*
X653620Y181652D01*
X654249Y182472D01*
X654645Y183428D01*
X654780Y184453D01*
X654645Y185478D01*
X654249Y186433D01*
X653620Y187253D01*
X652799Y187883D01*
X651844Y188278D01*
X650819Y188413D01*
D02*
G37*
G36*
X558500Y168335D02*
X557798Y168196D01*
X557202Y167798D01*
X557153Y167724D01*
X549847D01*
X549798Y167798D01*
X549202Y168196D01*
X548500Y168335D01*
X547798Y168196D01*
X547202Y167798D01*
X546804Y167202D01*
X546665Y166500D01*
X546804Y165798D01*
X547202Y165202D01*
X547798Y164804D01*
X548500Y164665D01*
X549202Y164804D01*
X549798Y165202D01*
X549847Y165277D01*
X557153D01*
X557202Y165202D01*
X557798Y164804D01*
X558500Y164665D01*
X559202Y164804D01*
X559798Y165202D01*
X560196Y165798D01*
X560335Y166500D01*
X560196Y167202D01*
X559798Y167798D01*
X559202Y168196D01*
X558500Y168335D01*
D02*
G37*
G36*
X650819Y166602D02*
X649794Y166467D01*
X648839Y166072D01*
X648018Y165442D01*
X647389Y164622D01*
X646993Y163667D01*
X646858Y162642D01*
X646993Y161617D01*
X647389Y160661D01*
X648018Y159841D01*
X648839Y159212D01*
X649794Y158816D01*
X650819Y158681D01*
X651844Y158816D01*
X652799Y159212D01*
X653620Y159841D01*
X654249Y160661D01*
X654645Y161617D01*
X654780Y162642D01*
X654645Y163667D01*
X654249Y164622D01*
X653620Y165442D01*
X652799Y166072D01*
X651844Y166467D01*
X650819Y166602D01*
D02*
G37*
G36*
X514000Y182386D02*
X513278Y182243D01*
X512666Y181834D01*
X512257Y181222D01*
X512114Y180500D01*
Y162000D01*
X512257Y161278D01*
X512666Y160666D01*
X513278Y160257D01*
X514000Y160114D01*
X514722Y160257D01*
X515334Y160666D01*
X515743Y161278D01*
X515886Y162000D01*
Y180500D01*
X515743Y181222D01*
X515334Y181834D01*
X514722Y182243D01*
X514000Y182386D01*
D02*
G37*
G36*
X553150Y163628D02*
X552068Y163486D01*
X551060Y163068D01*
X550195Y162404D01*
X549531Y161538D01*
X549113Y160530D01*
X548971Y159449D01*
X549113Y158367D01*
X549531Y157359D01*
X550195Y156494D01*
X551060Y155830D01*
X552068Y155412D01*
X553150Y155270D01*
X554231Y155412D01*
X555239Y155830D01*
X556105Y156494D01*
X556769Y157359D01*
X557186Y158367D01*
X557329Y159449D01*
X557186Y160530D01*
X556769Y161538D01*
X556105Y162404D01*
X555239Y163068D01*
X554231Y163486D01*
X553150Y163628D01*
D02*
G37*
G36*
X547293Y163592D02*
X539006D01*
Y155306D01*
X547293D01*
Y163592D01*
D02*
G37*
G36*
X500000Y169352D02*
X499047Y169227D01*
X498159Y168859D01*
X497396Y168273D01*
X496811Y167511D01*
X496443Y166622D01*
X496317Y165669D01*
X496443Y164716D01*
X496811Y163828D01*
X497396Y163065D01*
X498159Y162480D01*
X499047Y162112D01*
X500000Y161987D01*
X500953Y162112D01*
X501841Y162480D01*
X502604Y163065D01*
X503189Y163828D01*
X503557Y164716D01*
X503683Y165669D01*
X503557Y166622D01*
X503189Y167511D01*
X502604Y168273D01*
X501841Y168859D01*
X500953Y169227D01*
X500000Y169352D01*
D02*
G37*
G36*
X662000Y172055D02*
X660975Y171920D01*
X660020Y171524D01*
X659199Y170895D01*
X658570Y170075D01*
X658174Y169120D01*
X658039Y168094D01*
X658174Y167069D01*
X658570Y166114D01*
X659199Y165294D01*
X660020Y164664D01*
X660975Y164269D01*
X662000Y164134D01*
X663025Y164269D01*
X663980Y164664D01*
X664801Y165294D01*
X665430Y166114D01*
X665826Y167069D01*
X665961Y168094D01*
X665826Y169120D01*
X665430Y170075D01*
X664801Y170895D01*
X663980Y171524D01*
X663025Y171920D01*
X662000Y172055D01*
D02*
G37*
G36*
X615000Y169640D02*
X613799Y169482D01*
X612680Y169018D01*
X611719Y168281D01*
X610982Y167320D01*
X610518Y166201D01*
X610360Y165000D01*
X610518Y163799D01*
X610982Y162680D01*
X611719Y161719D01*
X612680Y160982D01*
X613799Y160518D01*
X615000Y160360D01*
X616201Y160518D01*
X617320Y160982D01*
X618281Y161719D01*
X619018Y162680D01*
X619482Y163799D01*
X619640Y165000D01*
X619482Y166201D01*
X619018Y167320D01*
X618281Y168281D01*
X617320Y169018D01*
X616201Y169482D01*
X615000Y169640D01*
D02*
G37*
G36*
X588500Y161835D02*
X587798Y161696D01*
X587202Y161298D01*
X587085Y161122D01*
X584415D01*
X584298Y161298D01*
X583702Y161696D01*
X583000Y161835D01*
X582298Y161696D01*
X581702Y161298D01*
X581304Y160702D01*
X581165Y160000D01*
X581304Y159298D01*
X581702Y158702D01*
X582298Y158304D01*
X583000Y158165D01*
X583702Y158304D01*
X584298Y158702D01*
X584415Y158878D01*
X587085D01*
X587202Y158702D01*
X587798Y158304D01*
X588500Y158165D01*
X589202Y158304D01*
X589798Y158702D01*
X590196Y159298D01*
X590335Y160000D01*
X590196Y160702D01*
X589798Y161298D01*
X589202Y161696D01*
X588500Y161835D01*
D02*
G37*
%LPD*%
D20*
X601500Y186500D02*
X606000Y191000D01*
X592500Y186500D02*
X601500D01*
X583000Y160000D02*
X588500D01*
D21*
X548500Y166500D02*
X558500D01*
X591000Y177500D02*
X593500Y180000D01*
X583000Y177500D02*
X591000D01*
D23*
X514000Y162000D02*
Y180500D01*
D24*
X500000Y175669D02*
D03*
D25*
Y165669D02*
D03*
Y155669D02*
D03*
Y145669D02*
D03*
D26*
X662000Y179000D02*
D03*
X650819Y151736D02*
D03*
X662000Y157189D02*
D03*
X650819Y173547D02*
D03*
X662000Y146283D02*
D03*
X650819Y162642D02*
D03*
X662000Y168094D02*
D03*
X650819Y184453D02*
D03*
D27*
Y140831D02*
D03*
D28*
X656409Y113449D02*
D03*
Y211835D02*
D03*
D29*
X543150Y159449D02*
D03*
D30*
X553150D02*
D03*
X543150Y149449D02*
D03*
X553150D02*
D03*
X543150Y139449D02*
D03*
X553150D02*
D03*
D31*
X695000Y220000D02*
D03*
X690000Y210000D02*
D03*
X695000Y200000D02*
D03*
Y180000D02*
D03*
Y160000D02*
D03*
Y140000D02*
D03*
Y120000D02*
D03*
X690000Y110000D02*
D03*
X685000Y220000D02*
D03*
X680000Y150000D02*
D03*
Y130000D02*
D03*
Y110000D02*
D03*
X675000Y220000D02*
D03*
Y200000D02*
D03*
X670000Y190000D02*
D03*
Y170000D02*
D03*
X675000Y140000D02*
D03*
X670000Y130000D02*
D03*
X675000Y120000D02*
D03*
X670000Y110000D02*
D03*
X665000Y220000D02*
D03*
X660000Y190000D02*
D03*
X665000Y140000D02*
D03*
X660000Y130000D02*
D03*
X650000Y190000D02*
D03*
X655000Y180000D02*
D03*
X650000Y130000D02*
D03*
X645000Y220000D02*
D03*
Y160000D02*
D03*
Y140000D02*
D03*
X640000Y130000D02*
D03*
X645000Y120000D02*
D03*
X640000Y110000D02*
D03*
X635000Y220000D02*
D03*
Y140000D02*
D03*
X630000Y130000D02*
D03*
Y110000D02*
D03*
X625000Y220000D02*
D03*
Y200000D02*
D03*
X620000Y170000D02*
D03*
X625000Y160000D02*
D03*
X620000Y150000D02*
D03*
X625000Y140000D02*
D03*
X620000Y130000D02*
D03*
X625000Y120000D02*
D03*
X620000Y110000D02*
D03*
X615000Y220000D02*
D03*
X610000Y170000D02*
D03*
Y150000D02*
D03*
Y130000D02*
D03*
Y110000D02*
D03*
X605000Y220000D02*
D03*
Y160000D02*
D03*
X600000Y110000D02*
D03*
X595000Y220000D02*
D03*
X590000Y130000D02*
D03*
X595000Y120000D02*
D03*
X590000Y110000D02*
D03*
X580000Y130000D02*
D03*
X585000Y120000D02*
D03*
X575000Y180000D02*
D03*
X570000Y150000D02*
D03*
X575000Y140000D02*
D03*
X570000Y130000D02*
D03*
X560000Y190000D02*
D03*
X565000Y180000D02*
D03*
X555000Y200000D02*
D03*
X550000Y190000D02*
D03*
X555000Y180000D02*
D03*
X550000Y170000D02*
D03*
X545000Y200000D02*
D03*
X540000Y190000D02*
D03*
X545000Y180000D02*
D03*
X540000Y170000D02*
D03*
X535000Y200000D02*
D03*
X530000Y190000D02*
D03*
X535000Y180000D02*
D03*
X530000Y170000D02*
D03*
X535000Y140000D02*
D03*
X525000Y200000D02*
D03*
Y180000D02*
D03*
X520000Y170000D02*
D03*
X525000Y160000D02*
D03*
X520000Y150000D02*
D03*
Y130000D02*
D03*
X515000Y200000D02*
D03*
X510000Y190000D02*
D03*
Y170000D02*
D03*
Y150000D02*
D03*
X515000Y140000D02*
D03*
X510000Y130000D02*
D03*
X505000Y200000D02*
D03*
X500000Y190000D02*
D03*
X505000Y180000D02*
D03*
Y140000D02*
D03*
X500000Y130000D02*
D03*
X624500Y148500D02*
D03*
X606000Y191000D02*
D03*
X592500Y186500D02*
D03*
X588500Y160000D02*
D03*
X593500Y180000D02*
D03*
X583000Y160000D02*
D03*
Y177500D02*
D03*
X514000Y162000D02*
D03*
Y180500D02*
D03*
X548500Y166500D02*
D03*
X558500D02*
D03*
X568110Y189390D02*
D03*
X537039Y185039D02*
D03*
X571484Y124016D02*
D03*
X634654Y120346D02*
D03*
X581744Y186256D02*
D03*
X574000Y190000D02*
D03*
X581744Y194744D02*
D03*
X577500Y190000D02*
D03*
X578000Y182500D02*
D03*
X569500Y170000D02*
D03*
X635823Y207677D02*
D03*
X609323D02*
D03*
D32*
X635000Y105000D02*
D03*
X615000Y165000D02*
D03*
Y175000D02*
D03*
M02*
