G04 Layer_Color=8421504*
%FSLAX25Y25*%
%MOIN*%
G70*
G01*
G75*
%ADD10R,0.03937X0.06299*%
%ADD11R,0.05000X0.02500*%
G04:AMPARAMS|DCode=12|XSize=39.37mil|YSize=35.43mil|CornerRadius=4.43mil|HoleSize=0mil|Usage=FLASHONLY|Rotation=90.000|XOffset=0mil|YOffset=0mil|HoleType=Round|Shape=RoundedRectangle|*
%AMROUNDEDRECTD12*
21,1,0.03937,0.02657,0,0,90.0*
21,1,0.03051,0.03543,0,0,90.0*
1,1,0.00886,0.01329,0.01526*
1,1,0.00886,0.01329,-0.01526*
1,1,0.00886,-0.01329,-0.01526*
1,1,0.00886,-0.01329,0.01526*
%
%ADD12ROUNDEDRECTD12*%
G04:AMPARAMS|DCode=13|XSize=31.5mil|YSize=31.5mil|CornerRadius=3.94mil|HoleSize=0mil|Usage=FLASHONLY|Rotation=180.000|XOffset=0mil|YOffset=0mil|HoleType=Round|Shape=RoundedRectangle|*
%AMROUNDEDRECTD13*
21,1,0.03150,0.02362,0,0,180.0*
21,1,0.02362,0.03150,0,0,180.0*
1,1,0.00787,-0.01181,0.01181*
1,1,0.00787,0.01181,0.01181*
1,1,0.00787,0.01181,-0.01181*
1,1,0.00787,-0.01181,-0.01181*
%
%ADD13ROUNDEDRECTD13*%
G04:AMPARAMS|DCode=14|XSize=39.37mil|YSize=35.43mil|CornerRadius=4.43mil|HoleSize=0mil|Usage=FLASHONLY|Rotation=0.000|XOffset=0mil|YOffset=0mil|HoleType=Round|Shape=RoundedRectangle|*
%AMROUNDEDRECTD14*
21,1,0.03937,0.02657,0,0,0.0*
21,1,0.03051,0.03543,0,0,0.0*
1,1,0.00886,0.01526,-0.01329*
1,1,0.00886,-0.01526,-0.01329*
1,1,0.00886,-0.01526,0.01329*
1,1,0.00886,0.01526,0.01329*
%
%ADD14ROUNDEDRECTD14*%
%ADD15R,0.04724X0.02559*%
%ADD16R,0.02953X0.03740*%
%ADD17R,0.03740X0.02953*%
G04:AMPARAMS|DCode=18|XSize=25.59mil|YSize=64.96mil|CornerRadius=1.92mil|HoleSize=0mil|Usage=FLASHONLY|Rotation=90.000|XOffset=0mil|YOffset=0mil|HoleType=Round|Shape=RoundedRectangle|*
%AMROUNDEDRECTD18*
21,1,0.02559,0.06112,0,0,90.0*
21,1,0.02175,0.06496,0,0,90.0*
1,1,0.00384,0.03056,0.01088*
1,1,0.00384,0.03056,-0.01088*
1,1,0.00384,-0.03056,-0.01088*
1,1,0.00384,-0.03056,0.01088*
%
%ADD18ROUNDEDRECTD18*%
%ADD61R,0.06299X0.06299*%
D10*
X592520Y144488D02*
D03*
X602362D02*
D03*
X612205D02*
D03*
Y135039D02*
D03*
X602362D02*
D03*
X592520D02*
D03*
D11*
X631000Y162012D02*
D03*
Y165255D02*
D03*
Y178512D02*
D03*
Y181755D02*
D03*
Y145257D02*
D03*
Y148500D02*
D03*
D12*
X606890Y124016D02*
D03*
X613583D02*
D03*
X611811Y186024D02*
D03*
X618504D02*
D03*
X597047D02*
D03*
X603740D02*
D03*
X624606Y207677D02*
D03*
X631299D02*
D03*
X598032D02*
D03*
X604724D02*
D03*
X548622Y185039D02*
D03*
X541929D02*
D03*
D13*
X591142Y124016D02*
D03*
X597835D02*
D03*
X623622Y214567D02*
D03*
X630315D02*
D03*
X603740D02*
D03*
X597047D02*
D03*
X562402Y185039D02*
D03*
X555709D02*
D03*
D14*
X579724Y149016D02*
D03*
Y142323D02*
D03*
X639500Y113654D02*
D03*
Y120346D02*
D03*
D15*
X568110Y193110D02*
D03*
Y200590D02*
D03*
X557874Y196850D02*
D03*
X612992Y200591D02*
D03*
Y193110D02*
D03*
X623228Y196850D02*
D03*
X594291Y200591D02*
D03*
Y193110D02*
D03*
X604528Y196850D02*
D03*
D16*
X581744Y190000D02*
D03*
X587256D02*
D03*
X581744Y182500D02*
D03*
X587256D02*
D03*
D17*
X576000Y194244D02*
D03*
Y199756D02*
D03*
D18*
X599122Y160000D02*
D03*
Y165000D02*
D03*
Y170000D02*
D03*
Y175000D02*
D03*
X576878Y160000D02*
D03*
Y165000D02*
D03*
Y170000D02*
D03*
Y175000D02*
D03*
D61*
X631000Y163240D02*
D03*
X631000Y179740D02*
D03*
X631000Y146485D02*
D03*
M02*
