M48
;Layer_Color=9474304
;FILE_FORMAT=2:5
INCH,LZ
;TYPE=PLATED
T1F00S00C0.01200
T2F00S00C0.03543
T3F00S00C0.04000
T4F00S00C0.04016
T5F00S00C0.04016
T6F00S00C0.12992
%
T01
X05Y013
X051
X052
X0515Y014
X0505
X051Y015
X052
X0535Y014
X0575
X058Y013
X059
X0595Y012
X0585
X059Y011
X06
X061
X062
Y013
X061
Y015
X062
X06245Y01485
X057Y015
Y013
X0571484Y0124016
X0625Y012
X0634654Y0120346
X0645Y012
X065Y013
X066
X067
X068
X0675Y014
X0665
X0645
X0635
X0625
X063Y013
X064
Y011
X063
X067
X068
X069
X0695Y012
Y014
X068Y015
X0675Y012
X067Y017
Y019
X066
X065
X0655Y018
X0645Y016
X0625
Y02
X0635823Y0207677
X0635Y022
X0645
X0665
X0675
X0685
X0695
X069Y021
X0695Y02
Y018
Y016
X0675Y02
X0625Y022
X0615
X0605
X0595
X0609323Y0207677
X0606Y0191
X05925Y01865
X05935Y018
X0583Y01775
X0578Y01825
X0575Y018
X0565
X0555
X0545
X0535
X0537039Y0185039
X054Y019
X055
X056
X056811Y018939
X0574Y019
X05775
X0581744Y0186256
Y0194744
X0555Y02
X0545
X0535
X0525
X0515
X0505
X051Y019
X05
X0505Y018
X0514Y01805
X0525Y018
X053Y019
Y017
X054
X055
X05485Y01665
X05585
X05695Y017
X0583Y016
X05885
X0605
X061Y017
X062
X052
X051
X0514Y0162
X0525Y016
T02
X0650819Y0140831
Y0151736
X0662Y0146283
Y0157189
Y0168094
Y0179
X0650819Y0184453
Y0173547
Y0162642
T03
X0635Y0105
X0615Y0165
Y0175
T04
X054315Y0139449
Y0149449
X055315
Y0139449
Y0159449
X054315
T05
X05Y0145669
Y0155669
Y0165669
Y0175669
T06
X0656409Y0113449
Y0211835
M30
