G04 Layer_Color=65535*
%FSLAX25Y25*%
%MOIN*%
G70*
G01*
G75*
%ADD33C,0.01181*%
%ADD34C,0.00787*%
%ADD35C,0.00984*%
%ADD36C,0.02362*%
%ADD37C,0.00394*%
%ADD38C,0.00500*%
%ADD39C,0.00591*%
%ADD40R,0.13780X0.01968*%
%ADD41R,0.01968X0.09842*%
%ADD42R,0.13780X0.00984*%
%ADD43R,0.00984X0.08858*%
%ADD44R,0.13780X0.00984*%
%ADD45R,0.01968X0.09842*%
%ADD46R,0.13780X0.01968*%
%ADD47R,0.11811X0.07874*%
%ADD48R,0.43701X0.03347*%
%ADD49R,0.11811X0.06890*%
%ADD50R,0.01968X0.23622*%
%ADD51R,0.03543X0.19291*%
%ADD52R,0.02953X0.06890*%
%ADD53R,0.41339X0.04331*%
%ADD54R,0.07874X0.01968*%
%ADD55R,0.02953X0.33465*%
%ADD56R,0.01575X0.10827*%
%ADD57R,0.41339X0.04921*%
%ADD58R,0.00984X0.12795*%
%ADD59R,0.35433X0.00984*%
%ADD60R,0.03937X0.07874*%
G36*
X519018Y198500D02*
X517489D01*
X514437Y203447D01*
Y198500D01*
X513023D01*
Y206057D01*
X514502D01*
X517604Y200995D01*
Y206057D01*
X519018D01*
Y198500D01*
D02*
G37*
G36*
X627641Y112903D02*
X588386D01*
Y120560D01*
X627641D01*
Y112903D01*
D02*
G37*
G36*
X551379Y204091D02*
X551423Y204086D01*
X551472Y204080D01*
X551532Y204075D01*
X551598Y204064D01*
X551745Y204031D01*
X551909Y203982D01*
X551991Y203949D01*
X552078Y203911D01*
X552166Y203867D01*
X552253Y203818D01*
X551800Y202557D01*
X551794Y202562D01*
X551783Y202568D01*
X551761Y202579D01*
X551740Y202595D01*
X551707Y202611D01*
X551669Y202633D01*
X551576Y202677D01*
X551472Y202721D01*
X551357Y202759D01*
X551237Y202786D01*
X551177Y202797D01*
X551068D01*
X551008Y202786D01*
X550937Y202775D01*
X550855Y202753D01*
X550768Y202726D01*
X550680Y202682D01*
X550598Y202628D01*
X550588Y202622D01*
X550566Y202595D01*
X550527Y202551D01*
X550478Y202491D01*
X550429Y202404D01*
X550402Y202355D01*
X550375Y202300D01*
X550347Y202240D01*
X550320Y202175D01*
X550293Y202098D01*
X550271Y202022D01*
Y202016D01*
X550265Y202000D01*
X550260Y201973D01*
X550254Y201934D01*
X550244Y201880D01*
X550233Y201809D01*
X550222Y201727D01*
X550211Y201629D01*
X550200Y201514D01*
X550189Y201383D01*
X550178Y201230D01*
X550167Y201066D01*
X550162Y200875D01*
X550156Y200668D01*
X550151Y200438D01*
Y200318D01*
Y200187D01*
Y198500D01*
X548704D01*
Y203976D01*
X550047D01*
Y203196D01*
X550052Y203201D01*
X550063Y203217D01*
X550080Y203250D01*
X550107Y203283D01*
X550134Y203327D01*
X550173Y203381D01*
X550254Y203496D01*
X550347Y203616D01*
X550451Y203736D01*
X550506Y203791D01*
X550560Y203840D01*
X550615Y203884D01*
X550664Y203922D01*
X550669D01*
X550675Y203927D01*
X550691Y203938D01*
X550713Y203949D01*
X550773Y203976D01*
X550850Y204009D01*
X550943Y204042D01*
X551046Y204069D01*
X551166Y204091D01*
X551292Y204097D01*
X551341D01*
X551379Y204091D01*
D02*
G37*
G36*
X541415Y198500D02*
X539968D01*
Y206057D01*
X541415D01*
Y198500D01*
D02*
G37*
G36*
X529638Y204091D02*
X529670D01*
X529758Y204086D01*
X529861Y204075D01*
X529987Y204053D01*
X530124Y204031D01*
X530271Y203998D01*
X530429Y203955D01*
X530593Y203900D01*
X530762Y203834D01*
X530937Y203758D01*
X531106Y203665D01*
X531270Y203556D01*
X531434Y203430D01*
X531587Y203288D01*
X531598Y203277D01*
X531620Y203250D01*
X531663Y203206D01*
X531712Y203141D01*
X531772Y203065D01*
X531838Y202966D01*
X531909Y202857D01*
X531985Y202731D01*
X532062Y202590D01*
X532133Y202437D01*
X532198Y202267D01*
X532258Y202087D01*
X532313Y201891D01*
X532351Y201689D01*
X532373Y201470D01*
X532384Y201246D01*
Y201241D01*
Y201230D01*
Y201214D01*
Y201192D01*
X532378Y201165D01*
Y201126D01*
X532373Y201039D01*
X532362Y200935D01*
X532340Y200810D01*
X532318Y200673D01*
X532286Y200526D01*
X532242Y200367D01*
X532187Y200198D01*
X532122Y200029D01*
X532045Y199854D01*
X531953Y199685D01*
X531849Y199510D01*
X531723Y199346D01*
X531581Y199188D01*
X531570Y199177D01*
X531543Y199155D01*
X531499Y199111D01*
X531439Y199062D01*
X531357Y198997D01*
X531265Y198931D01*
X531155Y198855D01*
X531030Y198784D01*
X530888Y198707D01*
X530735Y198631D01*
X530571Y198565D01*
X530391Y198500D01*
X530200Y198451D01*
X529998Y198407D01*
X529785Y198385D01*
X529561Y198374D01*
X529485D01*
X529435Y198380D01*
X529365Y198385D01*
X529288Y198391D01*
X529195Y198402D01*
X529097Y198418D01*
X528993Y198434D01*
X528879Y198456D01*
X528758Y198484D01*
X528638Y198516D01*
X528513Y198555D01*
X528382Y198604D01*
X528256Y198653D01*
X528125Y198713D01*
X528120Y198718D01*
X528098Y198729D01*
X528060Y198751D01*
X528011Y198778D01*
X527956Y198811D01*
X527890Y198855D01*
X527819Y198904D01*
X527738Y198964D01*
X527656Y199030D01*
X527574Y199106D01*
X527486Y199188D01*
X527399Y199275D01*
X527317Y199374D01*
X527235Y199477D01*
X527159Y199586D01*
X527088Y199707D01*
X527082Y199712D01*
X527071Y199739D01*
X527055Y199772D01*
X527033Y199827D01*
X527006Y199887D01*
X526973Y199963D01*
X526946Y200056D01*
X526913Y200154D01*
X526875Y200269D01*
X526848Y200389D01*
X526815Y200520D01*
X526787Y200662D01*
X526766Y200815D01*
X526749Y200973D01*
X526738Y201137D01*
X526733Y201312D01*
Y201323D01*
Y201345D01*
Y201383D01*
X526738Y201437D01*
X526744Y201498D01*
X526749Y201574D01*
X526760Y201661D01*
X526777Y201754D01*
X526798Y201858D01*
X526820Y201967D01*
X526848Y202082D01*
X526880Y202202D01*
X526924Y202327D01*
X526973Y202453D01*
X527028Y202579D01*
X527088Y202704D01*
X527093Y202710D01*
X527104Y202731D01*
X527126Y202770D01*
X527153Y202813D01*
X527191Y202873D01*
X527235Y202939D01*
X527284Y203010D01*
X527344Y203086D01*
X527415Y203168D01*
X527492Y203256D01*
X527574Y203338D01*
X527661Y203425D01*
X527759Y203507D01*
X527863Y203589D01*
X527972Y203665D01*
X528092Y203736D01*
X528098Y203742D01*
X528120Y203752D01*
X528158Y203769D01*
X528207Y203791D01*
X528267Y203818D01*
X528343Y203851D01*
X528425Y203884D01*
X528518Y203916D01*
X528622Y203949D01*
X528737Y203982D01*
X528857Y204015D01*
X528982Y204042D01*
X529119Y204064D01*
X529255Y204080D01*
X529403Y204091D01*
X529550Y204097D01*
X529605D01*
X529638Y204091D01*
D02*
G37*
G36*
X545068D02*
X545100D01*
X545188Y204086D01*
X545291Y204075D01*
X545406Y204053D01*
X545542Y204031D01*
X545684Y203998D01*
X545832Y203955D01*
X545990Y203900D01*
X546149Y203834D01*
X546312Y203758D01*
X546471Y203665D01*
X546624Y203556D01*
X546771Y203430D01*
X546908Y203288D01*
X546913Y203277D01*
X546940Y203250D01*
X546973Y203201D01*
X547017Y203135D01*
X547071Y203048D01*
X547131Y202944D01*
X547191Y202819D01*
X547257Y202677D01*
X547323Y202513D01*
X547388Y202327D01*
X547443Y202125D01*
X547497Y201902D01*
X547535Y201661D01*
X547568Y201399D01*
X547585Y201115D01*
X547590Y200815D01*
X543959D01*
Y200810D01*
Y200788D01*
X543965Y200755D01*
Y200711D01*
X543970Y200657D01*
X543981Y200591D01*
X543992Y200526D01*
X544008Y200449D01*
X544046Y200285D01*
X544074Y200203D01*
X544107Y200122D01*
X544150Y200040D01*
X544194Y199958D01*
X544243Y199881D01*
X544303Y199810D01*
X544309Y199805D01*
X544319Y199794D01*
X544336Y199778D01*
X544363Y199756D01*
X544396Y199729D01*
X544440Y199696D01*
X544483Y199668D01*
X544538Y199636D01*
X544593Y199598D01*
X544658Y199570D01*
X544800Y199510D01*
X544882Y199488D01*
X544964Y199472D01*
X545051Y199461D01*
X545144Y199455D01*
X545177D01*
X545204Y199461D01*
X545264Y199466D01*
X545346Y199477D01*
X545433Y199499D01*
X545532Y199532D01*
X545624Y199576D01*
X545717Y199636D01*
X545723D01*
X545728Y199647D01*
X545755Y199674D01*
X545799Y199718D01*
X545848Y199783D01*
X545908Y199865D01*
X545968Y199969D01*
X546023Y200089D01*
X546072Y200236D01*
X547514Y199996D01*
X547508Y199985D01*
X547503Y199963D01*
X547486Y199920D01*
X547459Y199865D01*
X547432Y199800D01*
X547394Y199723D01*
X547350Y199636D01*
X547295Y199548D01*
X547241Y199450D01*
X547175Y199352D01*
X547099Y199248D01*
X547022Y199150D01*
X546935Y199051D01*
X546842Y198953D01*
X546738Y198866D01*
X546629Y198784D01*
X546624Y198778D01*
X546602Y198767D01*
X546569Y198746D01*
X546520Y198718D01*
X546460Y198691D01*
X546394Y198653D01*
X546307Y198620D01*
X546214Y198582D01*
X546110Y198544D01*
X546001Y198505D01*
X545876Y198467D01*
X545745Y198440D01*
X545603Y198413D01*
X545450Y198391D01*
X545291Y198380D01*
X545128Y198374D01*
X545068D01*
X545029Y198380D01*
X544991D01*
X544947Y198385D01*
X544893Y198391D01*
X544773Y198402D01*
X544642Y198424D01*
X544489Y198451D01*
X544325Y198489D01*
X544156Y198538D01*
X543981Y198604D01*
X543806Y198675D01*
X543632Y198767D01*
X543462Y198871D01*
X543304Y198997D01*
X543151Y199139D01*
X543015Y199303D01*
X543009Y199313D01*
X542993Y199335D01*
X542965Y199379D01*
X542933Y199439D01*
X542889Y199510D01*
X542845Y199598D01*
X542796Y199701D01*
X542747Y199821D01*
X542692Y199952D01*
X542643Y200094D01*
X542600Y200247D01*
X542561Y200416D01*
X542523Y200591D01*
X542496Y200782D01*
X542480Y200984D01*
X542474Y201192D01*
Y201197D01*
Y201208D01*
Y201224D01*
Y201252D01*
X542480Y201285D01*
Y201323D01*
Y201366D01*
X542485Y201416D01*
X542496Y201530D01*
X542512Y201661D01*
X542534Y201809D01*
X542561Y201967D01*
X542600Y202136D01*
X542649Y202311D01*
X542703Y202486D01*
X542774Y202666D01*
X542856Y202841D01*
X542949Y203010D01*
X543058Y203168D01*
X543184Y203321D01*
X543195Y203332D01*
X543217Y203354D01*
X543255Y203392D01*
X543309Y203441D01*
X543380Y203501D01*
X543468Y203567D01*
X543566Y203638D01*
X543675Y203709D01*
X543801Y203780D01*
X543937Y203851D01*
X544085Y203916D01*
X544243Y203976D01*
X544412Y204026D01*
X544593Y204064D01*
X544784Y204086D01*
X544986Y204097D01*
X545040D01*
X545068Y204091D01*
D02*
G37*
G36*
X512198Y198500D02*
X510538D01*
X509883Y200214D01*
X506858D01*
X506236Y198500D01*
X504620D01*
X507552Y206057D01*
X509173D01*
X512198Y198500D01*
D02*
G37*
G36*
X608682Y167447D02*
X608693Y167443D01*
X608708Y167439D01*
X608727Y167432D01*
X608752Y167425D01*
X608808Y167406D01*
X608878Y167380D01*
X608960Y167347D01*
X609049Y167310D01*
X609141Y167266D01*
X609241Y167218D01*
X609344Y167162D01*
X609448Y167099D01*
X609552Y167029D01*
X609652Y166951D01*
X609748Y166870D01*
X609837Y166777D01*
X609918Y166681D01*
X609922Y166674D01*
X609937Y166655D01*
X609955Y166625D01*
X609981Y166585D01*
X610010Y166533D01*
X610047Y166470D01*
X610084Y166396D01*
X610121Y166311D01*
X610158Y166218D01*
X610195Y166115D01*
X610229Y166004D01*
X610262Y165882D01*
X610288Y165756D01*
X610307Y165619D01*
X610321Y165475D01*
X610325Y165323D01*
Y165319D01*
Y165312D01*
Y165297D01*
Y165279D01*
X610321Y165253D01*
Y165223D01*
X610318Y165190D01*
X610314Y165153D01*
X610310Y165112D01*
X610303Y165068D01*
X610288Y164964D01*
X610266Y164853D01*
X610236Y164731D01*
X610203Y164602D01*
X610155Y164465D01*
X610099Y164328D01*
X610033Y164183D01*
X609951Y164047D01*
X609859Y163906D01*
X609807Y163839D01*
X609752Y163773D01*
X609692Y163710D01*
X609629Y163647D01*
X609626D01*
X609622Y163640D01*
X609611Y163632D01*
X609596Y163617D01*
X609578Y163603D01*
X609555Y163588D01*
X609529Y163566D01*
X609500Y163543D01*
X609467Y163521D01*
X609430Y163495D01*
X609389Y163469D01*
X609344Y163440D01*
X609245Y163381D01*
X609130Y163321D01*
X609000Y163259D01*
X608860Y163199D01*
X608701Y163144D01*
X608531Y163096D01*
X608349Y163051D01*
X608153Y163022D01*
X607946Y162999D01*
X607835Y162996D01*
X607724Y162992D01*
X607668D01*
X607639Y162996D01*
X607602D01*
X607561Y162999D01*
X607513Y163003D01*
X607461Y163007D01*
X607406Y163011D01*
X607346Y163018D01*
X607284Y163025D01*
X607147Y163048D01*
X606999Y163074D01*
X606840Y163110D01*
X606677Y163151D01*
X606514Y163207D01*
X606348Y163270D01*
X606185Y163347D01*
X606029Y163432D01*
X605878Y163536D01*
X605807Y163592D01*
X605741Y163651D01*
X605737Y163654D01*
X605733Y163658D01*
X605722Y163669D01*
X605711Y163680D01*
X605674Y163717D01*
X605630Y163769D01*
X605574Y163836D01*
X605515Y163917D01*
X605452Y164010D01*
X605385Y164113D01*
X605319Y164232D01*
X605256Y164365D01*
X605193Y164505D01*
X605141Y164661D01*
X605097Y164827D01*
X605060Y165001D01*
X605038Y165190D01*
X605034Y165286D01*
X605030Y165386D01*
Y165390D01*
Y165397D01*
Y165408D01*
Y165427D01*
X605034Y165449D01*
Y165475D01*
X605038Y165508D01*
Y165541D01*
X605049Y165623D01*
X605060Y165712D01*
X605078Y165815D01*
X605101Y165926D01*
X605130Y166045D01*
X605167Y166170D01*
X605212Y166296D01*
X605267Y166426D01*
X605330Y166551D01*
X605404Y166677D01*
X605489Y166796D01*
X605589Y166910D01*
X605593Y166914D01*
X605604Y166925D01*
X605622Y166944D01*
X605648Y166966D01*
X605682Y166996D01*
X605726Y167029D01*
X605774Y167066D01*
X605829Y167106D01*
X605892Y167147D01*
X605963Y167192D01*
X606040Y167236D01*
X606122Y167280D01*
X606214Y167321D01*
X606311Y167362D01*
X606418Y167403D01*
X606529Y167436D01*
X606773Y166411D01*
X606769D01*
X606754Y166407D01*
X606736Y166400D01*
X606706Y166392D01*
X606673Y166381D01*
X606636Y166367D01*
X606592Y166348D01*
X606547Y166330D01*
X606447Y166278D01*
X606396Y166244D01*
X606344Y166211D01*
X606292Y166174D01*
X606240Y166130D01*
X606192Y166082D01*
X606148Y166030D01*
X606144Y166026D01*
X606137Y166019D01*
X606125Y166000D01*
X606111Y165978D01*
X606092Y165952D01*
X606074Y165919D01*
X606051Y165878D01*
X606029Y165837D01*
X606011Y165786D01*
X605989Y165734D01*
X605970Y165675D01*
X605952Y165615D01*
X605937Y165549D01*
X605926Y165479D01*
X605918Y165408D01*
X605915Y165331D01*
Y165323D01*
Y165305D01*
X605918Y165275D01*
X605922Y165238D01*
X605926Y165190D01*
X605937Y165134D01*
X605948Y165071D01*
X605966Y165005D01*
X605989Y164931D01*
X606014Y164857D01*
X606048Y164779D01*
X606088Y164701D01*
X606137Y164628D01*
X606188Y164550D01*
X606251Y164479D01*
X606325Y164409D01*
X606329Y164406D01*
X606344Y164394D01*
X606370Y164376D01*
X606403Y164354D01*
X606447Y164328D01*
X606503Y164298D01*
X606566Y164265D01*
X606643Y164235D01*
X606729Y164202D01*
X606828Y164169D01*
X606936Y164139D01*
X607054Y164113D01*
X607187Y164091D01*
X607328Y164073D01*
X607483Y164061D01*
X607650Y164058D01*
X607717D01*
X607742Y164061D01*
X607772D01*
X607809Y164065D01*
X607887Y164069D01*
X607979Y164076D01*
X608079Y164087D01*
X608186Y164102D01*
X608297Y164121D01*
X608412Y164143D01*
X608527Y164172D01*
X608641Y164206D01*
X608749Y164243D01*
X608852Y164291D01*
X608945Y164343D01*
X609030Y164406D01*
X609034Y164409D01*
X609049Y164420D01*
X609067Y164443D01*
X609093Y164468D01*
X609126Y164502D01*
X609160Y164546D01*
X609197Y164594D01*
X609234Y164650D01*
X609274Y164713D01*
X609311Y164779D01*
X609344Y164853D01*
X609378Y164935D01*
X609404Y165020D01*
X609422Y165112D01*
X609437Y165208D01*
X609441Y165312D01*
Y165316D01*
Y165331D01*
Y165353D01*
X609437Y165382D01*
X609433Y165416D01*
X609426Y165456D01*
X609418Y165504D01*
X609407Y165556D01*
X609396Y165608D01*
X609378Y165664D01*
X609356Y165723D01*
X609330Y165782D01*
X609300Y165845D01*
X609267Y165904D01*
X609226Y165963D01*
X609182Y166019D01*
X609178Y166022D01*
X609171Y166033D01*
X609152Y166048D01*
X609130Y166067D01*
X609104Y166093D01*
X609067Y166122D01*
X609026Y166152D01*
X608978Y166185D01*
X608926Y166218D01*
X608863Y166255D01*
X608797Y166293D01*
X608723Y166326D01*
X608638Y166359D01*
X608553Y166392D01*
X608457Y166422D01*
X608353Y166448D01*
X608671Y167451D01*
X608675D01*
X608682Y167447D01*
D02*
G37*
G36*
X610236Y171828D02*
X609074Y171384D01*
Y169334D01*
X610236Y168912D01*
Y167817D01*
X605115Y169804D01*
Y170903D01*
X610236Y172952D01*
Y171828D01*
D02*
G37*
G36*
Y176538D02*
X606884Y174469D01*
X610236D01*
Y173511D01*
X605115D01*
Y174514D01*
X608545Y176616D01*
X605115D01*
Y177574D01*
X610236D01*
Y176538D01*
D02*
G37*
G36*
X620717Y163070D02*
X623289D01*
Y162205D01*
X619685D01*
Y167281D01*
X620717D01*
Y163070D01*
D02*
G37*
G36*
X538537Y198500D02*
X537194D01*
Y199303D01*
X537189Y199297D01*
X537178Y199281D01*
X537161Y199259D01*
X537134Y199226D01*
X537101Y199188D01*
X537063Y199144D01*
X537019Y199095D01*
X536970Y199040D01*
X536850Y198926D01*
X536714Y198811D01*
X536561Y198702D01*
X536484Y198647D01*
X536397Y198604D01*
X536392D01*
X536375Y198593D01*
X536353Y198582D01*
X536321Y198565D01*
X536277Y198549D01*
X536228Y198533D01*
X536173Y198511D01*
X536113Y198489D01*
X535977Y198445D01*
X535818Y198413D01*
X535654Y198385D01*
X535480Y198374D01*
X535436D01*
X535387Y198380D01*
X535321Y198385D01*
X535240Y198396D01*
X535147Y198413D01*
X535038Y198440D01*
X534923Y198467D01*
X534803Y198511D01*
X534672Y198560D01*
X534535Y198620D01*
X534399Y198697D01*
X534262Y198784D01*
X534126Y198882D01*
X533995Y199002D01*
X533864Y199133D01*
X533858Y199144D01*
X533836Y199166D01*
X533804Y199215D01*
X533760Y199275D01*
X533711Y199352D01*
X533651Y199445D01*
X533591Y199554D01*
X533531Y199685D01*
X533465Y199827D01*
X533405Y199985D01*
X533350Y200160D01*
X533296Y200345D01*
X533252Y200553D01*
X533219Y200771D01*
X533197Y201006D01*
X533192Y201252D01*
Y201257D01*
Y201268D01*
Y201285D01*
Y201312D01*
Y201345D01*
X533197Y201383D01*
Y201432D01*
X533203Y201481D01*
X533214Y201596D01*
X533225Y201732D01*
X533247Y201880D01*
X533274Y202038D01*
X533307Y202207D01*
X533350Y202382D01*
X533405Y202557D01*
X533465Y202731D01*
X533541Y202906D01*
X533629Y203070D01*
X533727Y203228D01*
X533842Y203370D01*
X533847Y203381D01*
X533875Y203403D01*
X533907Y203436D01*
X533962Y203485D01*
X534022Y203540D01*
X534104Y203600D01*
X534191Y203665D01*
X534295Y203736D01*
X534410Y203802D01*
X534535Y203867D01*
X534672Y203927D01*
X534819Y203982D01*
X534977Y204031D01*
X535141Y204064D01*
X535316Y204091D01*
X535502Y204097D01*
X535540D01*
X535589Y204091D01*
X535654Y204086D01*
X535736Y204075D01*
X535829Y204058D01*
X535933Y204031D01*
X536042Y204004D01*
X536168Y203960D01*
X536293Y203911D01*
X536424Y203851D01*
X536561Y203774D01*
X536697Y203687D01*
X536828Y203583D01*
X536959Y203469D01*
X537090Y203332D01*
Y206057D01*
X538537D01*
Y198500D01*
D02*
G37*
G36*
X501125Y206177D02*
X501164D01*
X501213Y206171D01*
X501262D01*
X501382Y206155D01*
X501513Y206138D01*
X501666Y206111D01*
X501830Y206079D01*
X502004Y206035D01*
X502190Y205980D01*
X502376Y205915D01*
X502567Y205833D01*
X502752Y205740D01*
X502938Y205631D01*
X503113Y205505D01*
X503282Y205358D01*
X503288Y205352D01*
X503304Y205336D01*
X503331Y205309D01*
X503364Y205270D01*
X503408Y205221D01*
X503457Y205156D01*
X503511Y205085D01*
X503572Y205003D01*
X503632Y204910D01*
X503697Y204806D01*
X503763Y204692D01*
X503828Y204572D01*
X503888Y204435D01*
X503948Y204293D01*
X504008Y204135D01*
X504058Y203971D01*
X502545Y203611D01*
Y203616D01*
X502540Y203638D01*
X502529Y203665D01*
X502518Y203709D01*
X502501Y203758D01*
X502480Y203813D01*
X502452Y203878D01*
X502425Y203944D01*
X502349Y204091D01*
X502299Y204168D01*
X502250Y204244D01*
X502196Y204320D01*
X502130Y204397D01*
X502059Y204468D01*
X501983Y204533D01*
X501977Y204539D01*
X501966Y204550D01*
X501939Y204566D01*
X501906Y204588D01*
X501868Y204615D01*
X501819Y204643D01*
X501759Y204675D01*
X501699Y204708D01*
X501622Y204735D01*
X501546Y204768D01*
X501459Y204795D01*
X501371Y204823D01*
X501273Y204844D01*
X501169Y204861D01*
X501065Y204872D01*
X500951Y204877D01*
X500913D01*
X500869Y204872D01*
X500814Y204866D01*
X500743Y204861D01*
X500661Y204844D01*
X500568Y204828D01*
X500470Y204801D01*
X500361Y204768D01*
X500252Y204730D01*
X500137Y204681D01*
X500023Y204621D01*
X499913Y204550D01*
X499799Y204473D01*
X499695Y204380D01*
X499591Y204271D01*
X499586Y204266D01*
X499569Y204244D01*
X499542Y204206D01*
X499509Y204157D01*
X499471Y204091D01*
X499427Y204009D01*
X499378Y203916D01*
X499335Y203802D01*
X499285Y203676D01*
X499236Y203529D01*
X499193Y203370D01*
X499154Y203196D01*
X499122Y202999D01*
X499094Y202792D01*
X499078Y202562D01*
X499073Y202316D01*
Y202311D01*
Y202300D01*
Y202278D01*
Y202256D01*
Y202218D01*
X499078Y202180D01*
Y202136D01*
X499083Y202082D01*
X499089Y201967D01*
X499100Y201831D01*
X499116Y201683D01*
X499138Y201525D01*
X499165Y201361D01*
X499198Y201192D01*
X499242Y201023D01*
X499291Y200853D01*
X499345Y200695D01*
X499416Y200542D01*
X499493Y200406D01*
X499586Y200280D01*
X499591Y200274D01*
X499608Y200253D01*
X499640Y200225D01*
X499679Y200187D01*
X499728Y200138D01*
X499793Y200089D01*
X499864Y200034D01*
X499946Y199980D01*
X500039Y199920D01*
X500137Y199865D01*
X500246Y199816D01*
X500366Y199767D01*
X500492Y199729D01*
X500629Y199701D01*
X500771Y199679D01*
X500923Y199674D01*
X500983D01*
X501027Y199679D01*
X501076Y199685D01*
X501136Y199696D01*
X501207Y199707D01*
X501284Y199723D01*
X501360Y199739D01*
X501442Y199767D01*
X501530Y199800D01*
X501617Y199838D01*
X501710Y199881D01*
X501797Y199931D01*
X501884Y199991D01*
X501966Y200056D01*
X501972Y200062D01*
X501988Y200073D01*
X502010Y200100D01*
X502037Y200132D01*
X502075Y200171D01*
X502119Y200225D01*
X502163Y200285D01*
X502212Y200356D01*
X502261Y200433D01*
X502316Y200526D01*
X502370Y200624D01*
X502420Y200733D01*
X502469Y200859D01*
X502518Y200984D01*
X502561Y201126D01*
X502600Y201279D01*
X504079Y200810D01*
Y200804D01*
X504074Y200793D01*
X504068Y200777D01*
X504063Y200755D01*
X504052Y200728D01*
X504041Y200690D01*
X504014Y200608D01*
X503976Y200504D01*
X503926Y200384D01*
X503872Y200253D01*
X503806Y200116D01*
X503735Y199969D01*
X503653Y199816D01*
X503561Y199663D01*
X503457Y199510D01*
X503342Y199363D01*
X503222Y199221D01*
X503086Y199090D01*
X502944Y198970D01*
X502933Y198964D01*
X502905Y198942D01*
X502862Y198915D01*
X502802Y198877D01*
X502725Y198833D01*
X502632Y198778D01*
X502523Y198724D01*
X502398Y198669D01*
X502261Y198615D01*
X502108Y198560D01*
X501944Y198511D01*
X501764Y198462D01*
X501579Y198424D01*
X501377Y198396D01*
X501164Y198374D01*
X500940Y198369D01*
X500874D01*
X500836Y198374D01*
X500792D01*
X500743Y198380D01*
X500689Y198385D01*
X500629Y198391D01*
X500563Y198402D01*
X500410Y198424D01*
X500246Y198456D01*
X500066Y198500D01*
X499875Y198549D01*
X499673Y198620D01*
X499471Y198702D01*
X499258Y198800D01*
X499056Y198920D01*
X498849Y199057D01*
X498750Y199133D01*
X498652Y199215D01*
X498559Y199303D01*
X498466Y199395D01*
Y199401D01*
X498455Y199406D01*
X498445Y199423D01*
X498423Y199445D01*
X498401Y199472D01*
X498379Y199505D01*
X498346Y199543D01*
X498314Y199586D01*
X498281Y199636D01*
X498243Y199690D01*
X498204Y199750D01*
X498161Y199816D01*
X498073Y199963D01*
X497986Y200132D01*
X497893Y200324D01*
X497806Y200531D01*
X497724Y200766D01*
X497653Y201017D01*
X497587Y201285D01*
X497544Y201574D01*
X497511Y201880D01*
X497506Y202044D01*
X497500Y202207D01*
Y202213D01*
Y202229D01*
Y202256D01*
Y202289D01*
X497506Y202333D01*
Y202387D01*
X497511Y202448D01*
X497516Y202519D01*
X497522Y202595D01*
X497527Y202677D01*
X497538Y202764D01*
X497549Y202857D01*
X497582Y203059D01*
X497620Y203277D01*
X497675Y203512D01*
X497735Y203752D01*
X497817Y203993D01*
X497909Y204239D01*
X498024Y204479D01*
X498150Y204708D01*
X498303Y204932D01*
X498385Y205036D01*
X498472Y205134D01*
X498477Y205139D01*
X498483Y205145D01*
X498499Y205161D01*
X498516Y205178D01*
X498570Y205232D01*
X498647Y205298D01*
X498745Y205380D01*
X498865Y205467D01*
X499002Y205560D01*
X499154Y205658D01*
X499329Y205756D01*
X499526Y205849D01*
X499733Y205942D01*
X499963Y206018D01*
X500208Y206084D01*
X500465Y206138D01*
X500743Y206171D01*
X500885Y206177D01*
X501033Y206182D01*
X501093D01*
X501125Y206177D01*
D02*
G37*
G36*
X623777Y173228D02*
X622745D01*
Y175467D01*
X620717D01*
Y173228D01*
X619685D01*
Y178349D01*
X620717D01*
Y176333D01*
X622745D01*
Y178349D01*
X623777D01*
Y173228D01*
D02*
G37*
G36*
X523189Y204091D02*
X523222D01*
X523309Y204086D01*
X523413Y204075D01*
X523539Y204053D01*
X523675Y204031D01*
X523823Y203998D01*
X523981Y203955D01*
X524145Y203900D01*
X524314Y203834D01*
X524489Y203758D01*
X524658Y203665D01*
X524822Y203556D01*
X524986Y203430D01*
X525139Y203288D01*
X525149Y203277D01*
X525171Y203250D01*
X525215Y203206D01*
X525264Y203141D01*
X525324Y203065D01*
X525390Y202966D01*
X525461Y202857D01*
X525537Y202731D01*
X525613Y202590D01*
X525684Y202437D01*
X525750Y202267D01*
X525810Y202087D01*
X525865Y201891D01*
X525903Y201689D01*
X525925Y201470D01*
X525936Y201246D01*
Y201241D01*
Y201230D01*
Y201214D01*
Y201192D01*
X525930Y201165D01*
Y201126D01*
X525925Y201039D01*
X525914Y200935D01*
X525892Y200810D01*
X525870Y200673D01*
X525837Y200526D01*
X525794Y200367D01*
X525739Y200198D01*
X525674Y200029D01*
X525597Y199854D01*
X525504Y199685D01*
X525401Y199510D01*
X525275Y199346D01*
X525133Y199188D01*
X525122Y199177D01*
X525095Y199155D01*
X525051Y199111D01*
X524991Y199062D01*
X524909Y198997D01*
X524816Y198931D01*
X524707Y198855D01*
X524582Y198784D01*
X524440Y198707D01*
X524287Y198631D01*
X524123Y198565D01*
X523943Y198500D01*
X523752Y198451D01*
X523550Y198407D01*
X523337Y198385D01*
X523113Y198374D01*
X523036D01*
X522987Y198380D01*
X522916Y198385D01*
X522840Y198391D01*
X522747Y198402D01*
X522649Y198418D01*
X522545Y198434D01*
X522430Y198456D01*
X522310Y198484D01*
X522190Y198516D01*
X522064Y198555D01*
X521934Y198604D01*
X521808Y198653D01*
X521677Y198713D01*
X521671Y198718D01*
X521650Y198729D01*
X521611Y198751D01*
X521562Y198778D01*
X521508Y198811D01*
X521442Y198855D01*
X521371Y198904D01*
X521289Y198964D01*
X521207Y199030D01*
X521125Y199106D01*
X521038Y199188D01*
X520951Y199275D01*
X520869Y199374D01*
X520787Y199477D01*
X520711Y199586D01*
X520640Y199707D01*
X520634Y199712D01*
X520623Y199739D01*
X520607Y199772D01*
X520585Y199827D01*
X520558Y199887D01*
X520525Y199963D01*
X520498Y200056D01*
X520465Y200154D01*
X520427Y200269D01*
X520399Y200389D01*
X520366Y200520D01*
X520339Y200662D01*
X520317Y200815D01*
X520301Y200973D01*
X520290Y201137D01*
X520285Y201312D01*
Y201323D01*
Y201345D01*
Y201383D01*
X520290Y201437D01*
X520295Y201498D01*
X520301Y201574D01*
X520312Y201661D01*
X520328Y201754D01*
X520350Y201858D01*
X520372Y201967D01*
X520399Y202082D01*
X520432Y202202D01*
X520476Y202327D01*
X520525Y202453D01*
X520579Y202579D01*
X520640Y202704D01*
X520645Y202710D01*
X520656Y202731D01*
X520678Y202770D01*
X520705Y202813D01*
X520743Y202873D01*
X520787Y202939D01*
X520836Y203010D01*
X520896Y203086D01*
X520967Y203168D01*
X521043Y203256D01*
X521125Y203338D01*
X521213Y203425D01*
X521311Y203507D01*
X521415Y203589D01*
X521524Y203665D01*
X521644Y203736D01*
X521650Y203742D01*
X521671Y203752D01*
X521710Y203769D01*
X521759Y203791D01*
X521819Y203818D01*
X521895Y203851D01*
X521977Y203884D01*
X522070Y203916D01*
X522174Y203949D01*
X522288Y203982D01*
X522408Y204015D01*
X522534Y204042D01*
X522671Y204064D01*
X522807Y204080D01*
X522955Y204091D01*
X523102Y204097D01*
X523156D01*
X523189Y204091D01*
D02*
G37*
G36*
X509634Y148269D02*
X509664D01*
X509697Y148265D01*
X509779Y148262D01*
X509871Y148251D01*
X509975Y148240D01*
X510086Y148221D01*
X510201Y148203D01*
X510323Y148173D01*
X510448Y148143D01*
X510570Y148103D01*
X510693Y148058D01*
X510811Y148003D01*
X510926Y147940D01*
X511029Y147870D01*
X511037Y147866D01*
X511052Y147851D01*
X511081Y147829D01*
X511114Y147795D01*
X511159Y147755D01*
X511207Y147707D01*
X511262Y147648D01*
X511318Y147581D01*
X511377Y147507D01*
X511433Y147425D01*
X511492Y147333D01*
X511547Y147237D01*
X511599Y147129D01*
X511647Y147015D01*
X511688Y146896D01*
X511721Y146767D01*
X510696Y146574D01*
Y146578D01*
X510693Y146589D01*
X510685Y146611D01*
X510674Y146637D01*
X510663Y146667D01*
X510644Y146704D01*
X510626Y146745D01*
X510604Y146789D01*
X510578Y146834D01*
X510548Y146882D01*
X510515Y146933D01*
X510478Y146982D01*
X510434Y147030D01*
X510389Y147078D01*
X510341Y147126D01*
X510286Y147167D01*
X510282Y147170D01*
X510271Y147178D01*
X510256Y147189D01*
X510234Y147200D01*
X510204Y147218D01*
X510167Y147237D01*
X510126Y147255D01*
X510082Y147277D01*
X510030Y147300D01*
X509975Y147318D01*
X509912Y147337D01*
X509845Y147355D01*
X509779Y147366D01*
X509701Y147377D01*
X509623Y147385D01*
X509542Y147389D01*
X509512D01*
X509475Y147385D01*
X509431Y147381D01*
X509372Y147374D01*
X509305Y147366D01*
X509235Y147352D01*
X509153Y147333D01*
X509068Y147311D01*
X508983Y147281D01*
X508891Y147248D01*
X508802Y147207D01*
X508713Y147155D01*
X508628Y147100D01*
X508543Y147033D01*
X508465Y146956D01*
X508462Y146952D01*
X508447Y146937D01*
X508428Y146911D01*
X508402Y146874D01*
X508373Y146830D01*
X508339Y146774D01*
X508302Y146711D01*
X508265Y146637D01*
X508228Y146552D01*
X508191Y146456D01*
X508158Y146353D01*
X508128Y146238D01*
X508103Y146112D01*
X508084Y145979D01*
X508069Y145835D01*
X508066Y145683D01*
Y145679D01*
Y145672D01*
Y145661D01*
Y145642D01*
Y145620D01*
X508069Y145598D01*
Y145568D01*
X508073Y145535D01*
X508077Y145457D01*
X508088Y145372D01*
X508099Y145276D01*
X508117Y145172D01*
X508136Y145061D01*
X508166Y144950D01*
X508195Y144835D01*
X508236Y144725D01*
X508280Y144614D01*
X508336Y144506D01*
X508399Y144406D01*
X508469Y144317D01*
X508473Y144314D01*
X508487Y144299D01*
X508510Y144277D01*
X508543Y144247D01*
X508584Y144214D01*
X508632Y144173D01*
X508691Y144132D01*
X508754Y144092D01*
X508828Y144047D01*
X508906Y144007D01*
X508994Y143970D01*
X509091Y143933D01*
X509190Y143903D01*
X509298Y143881D01*
X509412Y143866D01*
X509531Y143862D01*
X509564D01*
X509586Y143866D01*
X509616D01*
X509653Y143870D01*
X509690Y143874D01*
X509734Y143877D01*
X509782Y143885D01*
X509834Y143892D01*
X509941Y143914D01*
X510060Y143948D01*
X510182Y143988D01*
X510186D01*
X510197Y143996D01*
X510215Y143999D01*
X510238Y144010D01*
X510263Y144021D01*
X510297Y144036D01*
X510334Y144055D01*
X510374Y144073D01*
X510463Y144118D01*
X510556Y144169D01*
X510652Y144229D01*
X510744Y144295D01*
Y144947D01*
X509560D01*
Y145812D01*
X511788D01*
Y143770D01*
X511784Y143766D01*
X511773Y143755D01*
X511755Y143740D01*
X511729Y143718D01*
X511695Y143688D01*
X511651Y143659D01*
X511603Y143622D01*
X511547Y143581D01*
X511484Y143541D01*
X511414Y143496D01*
X511336Y143452D01*
X511251Y143404D01*
X511163Y143356D01*
X511063Y143307D01*
X510955Y143259D01*
X510844Y143215D01*
X510837Y143211D01*
X510818Y143204D01*
X510785Y143193D01*
X510737Y143178D01*
X510681Y143159D01*
X510615Y143141D01*
X510541Y143119D01*
X510460Y143096D01*
X510367Y143074D01*
X510271Y143052D01*
X510167Y143034D01*
X510060Y143015D01*
X509949Y143000D01*
X509834Y142989D01*
X509716Y142982D01*
X509597Y142978D01*
X509542D01*
X509520Y142982D01*
X509464D01*
X509394Y142989D01*
X509312Y142997D01*
X509220Y143008D01*
X509120Y143019D01*
X509013Y143037D01*
X508902Y143060D01*
X508787Y143089D01*
X508669Y143119D01*
X508547Y143159D01*
X508428Y143204D01*
X508310Y143256D01*
X508195Y143315D01*
X508188Y143318D01*
X508169Y143330D01*
X508140Y143352D01*
X508099Y143378D01*
X508047Y143411D01*
X507992Y143455D01*
X507929Y143503D01*
X507858Y143563D01*
X507788Y143626D01*
X507714Y143696D01*
X507640Y143777D01*
X507566Y143862D01*
X507492Y143955D01*
X507425Y144055D01*
X507359Y144162D01*
X507300Y144277D01*
X507296Y144284D01*
X507289Y144306D01*
X507274Y144340D01*
X507252Y144388D01*
X507229Y144447D01*
X507203Y144514D01*
X507178Y144595D01*
X507152Y144684D01*
X507122Y144780D01*
X507096Y144887D01*
X507070Y144998D01*
X507048Y145117D01*
X507030Y145243D01*
X507015Y145372D01*
X507004Y145505D01*
X507000Y145642D01*
Y145646D01*
Y145650D01*
Y145664D01*
Y145679D01*
Y145698D01*
X507004Y145720D01*
Y145775D01*
X507011Y145846D01*
X507019Y145927D01*
X507030Y146019D01*
X507041Y146119D01*
X507059Y146227D01*
X507081Y146341D01*
X507107Y146460D01*
X507141Y146578D01*
X507178Y146700D01*
X507222Y146822D01*
X507274Y146944D01*
X507333Y147063D01*
X507337Y147070D01*
X507348Y147089D01*
X507370Y147122D01*
X507396Y147167D01*
X507429Y147218D01*
X507474Y147277D01*
X507525Y147344D01*
X507581Y147414D01*
X507648Y147492D01*
X507722Y147570D01*
X507799Y147648D01*
X507888Y147729D01*
X507984Y147807D01*
X508088Y147881D01*
X508195Y147951D01*
X508314Y148018D01*
X508321Y148021D01*
X508336Y148029D01*
X508365Y148040D01*
X508402Y148058D01*
X508450Y148077D01*
X508510Y148099D01*
X508576Y148121D01*
X508650Y148147D01*
X508735Y148169D01*
X508832Y148191D01*
X508931Y148214D01*
X509039Y148232D01*
X509153Y148251D01*
X509279Y148262D01*
X509409Y148269D01*
X509542Y148273D01*
X509605D01*
X509634Y148269D01*
D02*
G37*
G36*
X516354Y153567D02*
X515373D01*
Y154547D01*
X516354D01*
Y153567D01*
D02*
G37*
G36*
X512876Y158703D02*
X512924Y158699D01*
X512987Y158691D01*
X513057Y158680D01*
X513135Y158669D01*
X513220Y158647D01*
X513312Y158625D01*
X513405Y158595D01*
X513501Y158554D01*
X513597Y158510D01*
X513693Y158458D01*
X513790Y158395D01*
X513878Y158325D01*
X513963Y158244D01*
X513967Y158240D01*
X513978Y158225D01*
X513997Y158207D01*
X514019Y158177D01*
X514048Y158140D01*
X514078Y158099D01*
X514111Y158051D01*
X514145Y157996D01*
X514178Y157937D01*
X514211Y157870D01*
X514241Y157800D01*
X514270Y157726D01*
X514293Y157648D01*
X514311Y157567D01*
X514322Y157482D01*
X514326Y157393D01*
Y157385D01*
Y157363D01*
X514322Y157330D01*
X514315Y157282D01*
X514304Y157222D01*
X514285Y157160D01*
X514263Y157086D01*
X514233Y157004D01*
X514193Y156923D01*
X514145Y156834D01*
X514085Y156745D01*
X514015Y156653D01*
X513930Y156564D01*
X513882Y156519D01*
X513830Y156479D01*
X513775Y156434D01*
X513716Y156394D01*
X513653Y156353D01*
X513586Y156316D01*
X513590D01*
X513604Y156312D01*
X513627Y156305D01*
X513660Y156298D01*
X513697Y156286D01*
X513738Y156268D01*
X513786Y156249D01*
X513838Y156227D01*
X513893Y156201D01*
X513952Y156172D01*
X514011Y156138D01*
X514067Y156098D01*
X514126Y156057D01*
X514182Y156005D01*
X514237Y155953D01*
X514289Y155894D01*
X514293Y155891D01*
X514300Y155879D01*
X514315Y155861D01*
X514330Y155835D01*
X514348Y155805D01*
X514370Y155765D01*
X514396Y155720D01*
X514422Y155672D01*
X514444Y155617D01*
X514470Y155558D01*
X514493Y155491D01*
X514511Y155421D01*
X514526Y155347D01*
X514541Y155269D01*
X514548Y155187D01*
X514552Y155102D01*
Y155095D01*
Y155073D01*
X514548Y155036D01*
X514544Y154988D01*
X514537Y154932D01*
X514526Y154862D01*
X514511Y154788D01*
X514489Y154707D01*
X514463Y154618D01*
X514430Y154525D01*
X514389Y154429D01*
X514345Y154333D01*
X514285Y154233D01*
X514219Y154137D01*
X514145Y154044D01*
X514056Y153952D01*
X514048Y153948D01*
X514034Y153933D01*
X514004Y153907D01*
X513967Y153878D01*
X513919Y153841D01*
X513864Y153804D01*
X513793Y153759D01*
X513719Y153715D01*
X513634Y153671D01*
X513542Y153630D01*
X513442Y153589D01*
X513331Y153552D01*
X513216Y153523D01*
X513094Y153500D01*
X512964Y153482D01*
X512831Y153478D01*
X512802D01*
X512765Y153482D01*
X512716Y153486D01*
X512657Y153489D01*
X512587Y153500D01*
X512513Y153511D01*
X512428Y153530D01*
X512339Y153548D01*
X512247Y153574D01*
X512150Y153608D01*
X512054Y153648D01*
X511958Y153693D01*
X511862Y153744D01*
X511769Y153807D01*
X511681Y153878D01*
X511677Y153881D01*
X511662Y153896D01*
X511636Y153918D01*
X511607Y153952D01*
X511573Y153989D01*
X511532Y154037D01*
X511488Y154096D01*
X511444Y154159D01*
X511396Y154229D01*
X511351Y154307D01*
X511307Y154396D01*
X511262Y154488D01*
X511225Y154584D01*
X511196Y154692D01*
X511170Y154803D01*
X511151Y154921D01*
X512102Y155040D01*
Y155036D01*
X512106Y155025D01*
Y155006D01*
X512113Y154980D01*
X512117Y154947D01*
X512128Y154914D01*
X512136Y154873D01*
X512150Y154832D01*
X512180Y154744D01*
X512224Y154651D01*
X512276Y154559D01*
X512310Y154518D01*
X512343Y154481D01*
X512347Y154477D01*
X512354Y154473D01*
X512365Y154462D01*
X512380Y154451D01*
X512398Y154436D01*
X512421Y154422D01*
X512480Y154388D01*
X512550Y154351D01*
X512631Y154322D01*
X512724Y154299D01*
X512772Y154296D01*
X512824Y154292D01*
X512853D01*
X512876Y154296D01*
X512901Y154299D01*
X512931Y154303D01*
X513001Y154322D01*
X513083Y154348D01*
X513124Y154366D01*
X513168Y154388D01*
X513212Y154414D01*
X513253Y154447D01*
X513294Y154481D01*
X513334Y154522D01*
X513338Y154525D01*
X513342Y154533D01*
X513353Y154544D01*
X513368Y154562D01*
X513382Y154588D01*
X513401Y154614D01*
X513419Y154647D01*
X513442Y154684D01*
X513460Y154729D01*
X513479Y154773D01*
X513497Y154825D01*
X513512Y154880D01*
X513527Y154940D01*
X513538Y155002D01*
X513542Y155073D01*
X513545Y155143D01*
Y155147D01*
Y155158D01*
Y155180D01*
X513542Y155206D01*
X513538Y155236D01*
X513534Y155273D01*
X513530Y155313D01*
X513519Y155354D01*
X513497Y155450D01*
X513460Y155546D01*
X513438Y155595D01*
X513412Y155643D01*
X513382Y155691D01*
X513345Y155731D01*
X513342Y155735D01*
X513338Y155743D01*
X513327Y155750D01*
X513308Y155765D01*
X513290Y155783D01*
X513268Y155802D01*
X513209Y155842D01*
X513138Y155879D01*
X513057Y155916D01*
X513013Y155931D01*
X512964Y155939D01*
X512913Y155946D01*
X512861Y155950D01*
X512827D01*
X512809Y155946D01*
X512787D01*
X512735Y155942D01*
X512668Y155931D01*
X512591Y155920D01*
X512506Y155902D01*
X512413Y155876D01*
X512520Y156675D01*
X512587D01*
X512620Y156679D01*
X512657Y156682D01*
X512702Y156686D01*
X512746Y156693D01*
X512846Y156712D01*
X512946Y156741D01*
X512998Y156764D01*
X513046Y156786D01*
X513090Y156812D01*
X513131Y156845D01*
X513135Y156849D01*
X513138Y156852D01*
X513149Y156864D01*
X513164Y156878D01*
X513179Y156897D01*
X513198Y156919D01*
X513216Y156945D01*
X513238Y156975D01*
X513275Y157045D01*
X513308Y157130D01*
X513323Y157174D01*
X513334Y157226D01*
X513338Y157278D01*
X513342Y157334D01*
Y157337D01*
Y157345D01*
Y157359D01*
X513338Y157378D01*
Y157400D01*
X513334Y157422D01*
X513323Y157482D01*
X513305Y157548D01*
X513275Y157615D01*
X513238Y157681D01*
X513186Y157744D01*
X513179Y157752D01*
X513157Y157770D01*
X513124Y157792D01*
X513075Y157822D01*
X513016Y157852D01*
X512946Y157874D01*
X512868Y157892D01*
X512776Y157900D01*
X512750D01*
X512735Y157896D01*
X512713D01*
X512687Y157892D01*
X512628Y157877D01*
X512561Y157855D01*
X512487Y157826D01*
X512413Y157781D01*
X512376Y157752D01*
X512343Y157722D01*
X512339Y157718D01*
X512335Y157715D01*
X512328Y157703D01*
X512313Y157689D01*
X512302Y157670D01*
X512284Y157648D01*
X512269Y157622D01*
X512250Y157592D01*
X512232Y157559D01*
X512213Y157522D01*
X512195Y157482D01*
X512176Y157433D01*
X512161Y157385D01*
X512147Y157334D01*
X512136Y157274D01*
X512128Y157215D01*
X511225Y157367D01*
Y157370D01*
X511229Y157389D01*
X511236Y157411D01*
X511244Y157445D01*
X511251Y157485D01*
X511266Y157530D01*
X511277Y157581D01*
X511296Y157633D01*
X511336Y157752D01*
X511384Y157877D01*
X511440Y158000D01*
X511473Y158055D01*
X511507Y158110D01*
X511510Y158114D01*
X511514Y158122D01*
X511525Y158136D01*
X511544Y158155D01*
X511562Y158181D01*
X511584Y158207D01*
X511614Y158236D01*
X511647Y158270D01*
X511681Y158303D01*
X511721Y158340D01*
X511766Y158377D01*
X511814Y158410D01*
X511866Y158447D01*
X511917Y158484D01*
X512039Y158547D01*
X512043Y158551D01*
X512054Y158554D01*
X512073Y158562D01*
X512099Y158573D01*
X512132Y158584D01*
X512169Y158599D01*
X512213Y158614D01*
X512261Y158628D01*
X512317Y158643D01*
X512376Y158654D01*
X512439Y158669D01*
X512506Y158680D01*
X512650Y158699D01*
X512728Y158706D01*
X512839D01*
X512876Y158703D01*
D02*
G37*
G36*
X516812Y143067D02*
X515776D01*
X513708Y146419D01*
Y143067D01*
X512750D01*
Y148188D01*
X513753D01*
X515854Y144758D01*
Y148188D01*
X516812D01*
Y143067D01*
D02*
G37*
G36*
X632197Y219291D02*
X620866D01*
Y226774D01*
X632197D01*
Y219291D01*
D02*
G37*
G36*
X606051D02*
X594291D01*
Y226774D01*
X606051D01*
Y219291D01*
D02*
G37*
G36*
X519950Y148184D02*
X520013D01*
X520080Y148180D01*
X520154Y148177D01*
X520231Y148169D01*
X520309Y148162D01*
X520472Y148147D01*
X520549Y148136D01*
X520627Y148121D01*
X520697Y148106D01*
X520764Y148088D01*
X520768D01*
X520783Y148080D01*
X520808Y148073D01*
X520838Y148062D01*
X520879Y148047D01*
X520923Y148029D01*
X520975Y148006D01*
X521030Y147980D01*
X521090Y147947D01*
X521152Y147914D01*
X521215Y147873D01*
X521282Y147833D01*
X521345Y147784D01*
X521412Y147733D01*
X521474Y147677D01*
X521537Y147614D01*
X521541Y147610D01*
X521552Y147599D01*
X521567Y147581D01*
X521589Y147555D01*
X521619Y147522D01*
X521648Y147481D01*
X521682Y147437D01*
X521719Y147385D01*
X521759Y147326D01*
X521796Y147263D01*
X521837Y147196D01*
X521878Y147122D01*
X521918Y147044D01*
X521955Y146963D01*
X521992Y146874D01*
X522026Y146785D01*
X522029Y146782D01*
X522033Y146763D01*
X522041Y146737D01*
X522052Y146697D01*
X522066Y146649D01*
X522081Y146593D01*
X522096Y146526D01*
X522111Y146452D01*
X522126Y146367D01*
X522140Y146275D01*
X522155Y146175D01*
X522170Y146068D01*
X522181Y145957D01*
X522189Y145835D01*
X522196Y145709D01*
Y145575D01*
Y145568D01*
Y145546D01*
Y145513D01*
X522192Y145468D01*
Y145416D01*
X522189Y145350D01*
X522181Y145280D01*
X522177Y145202D01*
X522166Y145120D01*
X522159Y145032D01*
X522129Y144850D01*
X522089Y144665D01*
X522066Y144577D01*
X522037Y144488D01*
X522033Y144480D01*
X522029Y144462D01*
X522018Y144432D01*
X522000Y144395D01*
X521981Y144347D01*
X521959Y144292D01*
X521930Y144232D01*
X521896Y144166D01*
X521859Y144096D01*
X521818Y144021D01*
X521774Y143948D01*
X521726Y143870D01*
X521670Y143796D01*
X521615Y143722D01*
X521556Y143648D01*
X521489Y143581D01*
X521486Y143578D01*
X521478Y143570D01*
X521460Y143555D01*
X521441Y143537D01*
X521412Y143515D01*
X521378Y143492D01*
X521341Y143463D01*
X521297Y143433D01*
X521249Y143400D01*
X521193Y143367D01*
X521134Y143333D01*
X521071Y143300D01*
X521001Y143267D01*
X520927Y143233D01*
X520849Y143204D01*
X520764Y143174D01*
X520760D01*
X520749Y143170D01*
X520727Y143163D01*
X520701Y143159D01*
X520668Y143148D01*
X520623Y143141D01*
X520575Y143130D01*
X520520Y143122D01*
X520457Y143111D01*
X520390Y143100D01*
X520313Y143093D01*
X520231Y143085D01*
X520142Y143078D01*
X520050Y143071D01*
X519950Y143067D01*
X517904D01*
Y148188D01*
X519895D01*
X519950Y148184D01*
D02*
G37*
G36*
X513204Y166235D02*
X514969Y163567D01*
X513726D01*
X512590Y165298D01*
X511450Y163567D01*
X510211D01*
X511983Y166231D01*
X510373Y168688D01*
X511583D01*
X512597Y167152D01*
X513615Y168688D01*
X514813D01*
X513204Y166235D01*
D02*
G37*
G36*
X508305Y178684D02*
X508375D01*
X508453Y178680D01*
X508538Y178677D01*
X508631Y178669D01*
X508727Y178662D01*
X508823Y178654D01*
X509023Y178629D01*
X509115Y178614D01*
X509204Y178595D01*
X509289Y178573D01*
X509363Y178547D01*
X509367D01*
X509378Y178540D01*
X509400Y178532D01*
X509426Y178521D01*
X509456Y178506D01*
X509493Y178484D01*
X509534Y178462D01*
X509578Y178436D01*
X509626Y178403D01*
X509674Y178366D01*
X509722Y178325D01*
X509774Y178281D01*
X509822Y178233D01*
X509870Y178177D01*
X509915Y178118D01*
X509959Y178055D01*
X509963Y178051D01*
X509970Y178040D01*
X509981Y178018D01*
X509996Y177992D01*
X510011Y177959D01*
X510029Y177922D01*
X510051Y177874D01*
X510074Y177822D01*
X510092Y177766D01*
X510114Y177703D01*
X510133Y177637D01*
X510151Y177567D01*
X510162Y177493D01*
X510174Y177415D01*
X510181Y177337D01*
X510185Y177252D01*
Y177245D01*
Y177226D01*
X510181Y177197D01*
Y177156D01*
X510174Y177108D01*
X510166Y177049D01*
X510155Y176986D01*
X510144Y176915D01*
X510125Y176841D01*
X510103Y176764D01*
X510074Y176686D01*
X510040Y176605D01*
X510003Y176527D01*
X509955Y176445D01*
X509903Y176372D01*
X509844Y176297D01*
X509841Y176294D01*
X509830Y176283D01*
X509807Y176264D01*
X509781Y176238D01*
X509744Y176209D01*
X509704Y176175D01*
X509652Y176138D01*
X509593Y176098D01*
X509522Y176057D01*
X509448Y176020D01*
X509367Y175979D01*
X509274Y175942D01*
X509175Y175905D01*
X509067Y175876D01*
X508953Y175850D01*
X508830Y175828D01*
X508834Y175824D01*
X508845Y175820D01*
X508864Y175809D01*
X508886Y175794D01*
X508916Y175776D01*
X508949Y175754D01*
X508986Y175728D01*
X509027Y175702D01*
X509115Y175635D01*
X509208Y175561D01*
X509300Y175480D01*
X509385Y175395D01*
X509389Y175391D01*
X509397Y175384D01*
X509408Y175369D01*
X509426Y175350D01*
X509448Y175324D01*
X509474Y175291D01*
X509504Y175250D01*
X509541Y175202D01*
X509582Y175151D01*
X509626Y175091D01*
X509674Y175021D01*
X509726Y174947D01*
X509781Y174862D01*
X509841Y174773D01*
X509907Y174673D01*
X509974Y174566D01*
X510599Y173567D01*
X509360D01*
X508616Y174681D01*
X508612Y174688D01*
X508597Y174706D01*
X508579Y174736D01*
X508553Y174777D01*
X508520Y174825D01*
X508483Y174877D01*
X508442Y174936D01*
X508398Y174999D01*
X508305Y175125D01*
X508261Y175188D01*
X508216Y175250D01*
X508176Y175306D01*
X508135Y175354D01*
X508098Y175398D01*
X508068Y175432D01*
X508061Y175439D01*
X508042Y175458D01*
X508013Y175484D01*
X507976Y175517D01*
X507928Y175554D01*
X507876Y175587D01*
X507820Y175620D01*
X507758Y175646D01*
X507750Y175650D01*
X507739Y175654D01*
X507728Y175657D01*
X507709Y175661D01*
X507687Y175665D01*
X507661Y175672D01*
X507632Y175676D01*
X507598Y175683D01*
X507561Y175687D01*
X507517Y175691D01*
X507469Y175698D01*
X507421Y175702D01*
X507365D01*
X507302Y175706D01*
X507032D01*
Y173567D01*
X506000D01*
Y178688D01*
X508250D01*
X508305Y178684D01*
D02*
G37*
G36*
X513633Y176235D02*
X515398Y173567D01*
X514155D01*
X513019Y175299D01*
X511879Y173567D01*
X510640D01*
X512412Y176231D01*
X510803Y178688D01*
X512012D01*
X513026Y177152D01*
X514044Y178688D01*
X515243D01*
X513633Y176235D01*
D02*
G37*
G36*
X510070Y167822D02*
X508553D01*
Y163567D01*
X507521D01*
Y167822D01*
X506000D01*
Y168688D01*
X510070D01*
Y167822D01*
D02*
G37*
G36*
X518840Y158703D02*
X518888Y158699D01*
X518951Y158691D01*
X519021Y158680D01*
X519099Y158669D01*
X519184Y158647D01*
X519277Y158625D01*
X519369Y158595D01*
X519465Y158554D01*
X519561Y158510D01*
X519658Y158458D01*
X519754Y158395D01*
X519843Y158325D01*
X519928Y158244D01*
X519932Y158240D01*
X519943Y158225D01*
X519961Y158207D01*
X519983Y158177D01*
X520013Y158140D01*
X520043Y158099D01*
X520076Y158051D01*
X520109Y157996D01*
X520142Y157937D01*
X520176Y157870D01*
X520205Y157800D01*
X520235Y157726D01*
X520257Y157648D01*
X520276Y157567D01*
X520287Y157482D01*
X520290Y157393D01*
Y157385D01*
Y157363D01*
X520287Y157330D01*
X520279Y157282D01*
X520268Y157222D01*
X520250Y157160D01*
X520227Y157086D01*
X520198Y157004D01*
X520157Y156923D01*
X520109Y156834D01*
X520050Y156745D01*
X519980Y156653D01*
X519895Y156564D01*
X519846Y156519D01*
X519795Y156479D01*
X519739Y156434D01*
X519680Y156394D01*
X519617Y156353D01*
X519550Y156316D01*
X519554D01*
X519569Y156312D01*
X519591Y156305D01*
X519624Y156298D01*
X519661Y156286D01*
X519702Y156268D01*
X519750Y156249D01*
X519802Y156227D01*
X519858Y156201D01*
X519917Y156172D01*
X519976Y156138D01*
X520031Y156098D01*
X520091Y156057D01*
X520146Y156005D01*
X520202Y155953D01*
X520253Y155894D01*
X520257Y155891D01*
X520264Y155879D01*
X520279Y155861D01*
X520294Y155835D01*
X520313Y155805D01*
X520335Y155765D01*
X520361Y155720D01*
X520387Y155672D01*
X520409Y155617D01*
X520435Y155558D01*
X520457Y155491D01*
X520475Y155421D01*
X520490Y155347D01*
X520505Y155269D01*
X520512Y155187D01*
X520516Y155102D01*
Y155095D01*
Y155073D01*
X520512Y155036D01*
X520509Y154988D01*
X520501Y154932D01*
X520490Y154862D01*
X520475Y154788D01*
X520453Y154707D01*
X520427Y154618D01*
X520394Y154525D01*
X520353Y154429D01*
X520309Y154333D01*
X520250Y154233D01*
X520183Y154137D01*
X520109Y154044D01*
X520020Y153952D01*
X520013Y153948D01*
X519998Y153933D01*
X519969Y153907D01*
X519932Y153878D01*
X519883Y153841D01*
X519828Y153804D01*
X519758Y153759D01*
X519684Y153715D01*
X519598Y153671D01*
X519506Y153630D01*
X519406Y153589D01*
X519295Y153552D01*
X519180Y153523D01*
X519058Y153500D01*
X518929Y153482D01*
X518796Y153478D01*
X518766D01*
X518729Y153482D01*
X518681Y153486D01*
X518622Y153489D01*
X518551Y153500D01*
X518477Y153511D01*
X518392Y153530D01*
X518303Y153548D01*
X518211Y153574D01*
X518115Y153608D01*
X518019Y153648D01*
X517922Y153693D01*
X517826Y153744D01*
X517734Y153807D01*
X517645Y153878D01*
X517641Y153881D01*
X517626Y153896D01*
X517600Y153918D01*
X517571Y153952D01*
X517538Y153989D01*
X517497Y154037D01*
X517452Y154096D01*
X517408Y154159D01*
X517360Y154229D01*
X517316Y154307D01*
X517271Y154396D01*
X517227Y154488D01*
X517190Y154584D01*
X517160Y154692D01*
X517134Y154803D01*
X517116Y154921D01*
X518067Y155040D01*
Y155036D01*
X518070Y155025D01*
Y155006D01*
X518078Y154980D01*
X518082Y154947D01*
X518093Y154914D01*
X518100Y154873D01*
X518115Y154832D01*
X518144Y154744D01*
X518189Y154651D01*
X518241Y154559D01*
X518274Y154518D01*
X518307Y154481D01*
X518311Y154477D01*
X518318Y154473D01*
X518329Y154462D01*
X518344Y154451D01*
X518363Y154436D01*
X518385Y154422D01*
X518444Y154388D01*
X518514Y154351D01*
X518596Y154322D01*
X518688Y154299D01*
X518736Y154296D01*
X518788Y154292D01*
X518818D01*
X518840Y154296D01*
X518866Y154299D01*
X518895Y154303D01*
X518966Y154322D01*
X519047Y154348D01*
X519088Y154366D01*
X519132Y154388D01*
X519177Y154414D01*
X519217Y154447D01*
X519258Y154481D01*
X519299Y154522D01*
X519303Y154525D01*
X519306Y154533D01*
X519317Y154544D01*
X519332Y154562D01*
X519347Y154588D01*
X519365Y154614D01*
X519384Y154647D01*
X519406Y154684D01*
X519425Y154729D01*
X519443Y154773D01*
X519462Y154825D01*
X519476Y154880D01*
X519491Y154940D01*
X519502Y155002D01*
X519506Y155073D01*
X519510Y155143D01*
Y155147D01*
Y155158D01*
Y155180D01*
X519506Y155206D01*
X519502Y155236D01*
X519499Y155273D01*
X519495Y155313D01*
X519484Y155354D01*
X519462Y155450D01*
X519425Y155546D01*
X519402Y155595D01*
X519377Y155643D01*
X519347Y155691D01*
X519310Y155731D01*
X519306Y155735D01*
X519303Y155743D01*
X519291Y155750D01*
X519273Y155765D01*
X519254Y155783D01*
X519232Y155802D01*
X519173Y155842D01*
X519103Y155879D01*
X519021Y155916D01*
X518977Y155931D01*
X518929Y155939D01*
X518877Y155946D01*
X518825Y155950D01*
X518792D01*
X518773Y155946D01*
X518751D01*
X518699Y155942D01*
X518633Y155931D01*
X518555Y155920D01*
X518470Y155902D01*
X518377Y155876D01*
X518485Y156675D01*
X518551D01*
X518585Y156679D01*
X518622Y156682D01*
X518666Y156686D01*
X518711Y156693D01*
X518810Y156712D01*
X518910Y156741D01*
X518962Y156764D01*
X519010Y156786D01*
X519055Y156812D01*
X519095Y156845D01*
X519099Y156849D01*
X519103Y156852D01*
X519114Y156864D01*
X519129Y156878D01*
X519143Y156897D01*
X519162Y156919D01*
X519180Y156945D01*
X519203Y156975D01*
X519240Y157045D01*
X519273Y157130D01*
X519288Y157174D01*
X519299Y157226D01*
X519303Y157278D01*
X519306Y157334D01*
Y157337D01*
Y157345D01*
Y157359D01*
X519303Y157378D01*
Y157400D01*
X519299Y157422D01*
X519288Y157482D01*
X519269Y157548D01*
X519240Y157615D01*
X519203Y157681D01*
X519151Y157744D01*
X519143Y157752D01*
X519121Y157770D01*
X519088Y157792D01*
X519040Y157822D01*
X518981Y157852D01*
X518910Y157874D01*
X518833Y157892D01*
X518740Y157900D01*
X518714D01*
X518699Y157896D01*
X518677D01*
X518651Y157892D01*
X518592Y157877D01*
X518526Y157855D01*
X518451Y157826D01*
X518377Y157781D01*
X518340Y157752D01*
X518307Y157722D01*
X518303Y157718D01*
X518300Y157715D01*
X518292Y157703D01*
X518278Y157689D01*
X518266Y157670D01*
X518248Y157648D01*
X518233Y157622D01*
X518215Y157592D01*
X518196Y157559D01*
X518178Y157522D01*
X518159Y157482D01*
X518141Y157433D01*
X518126Y157385D01*
X518111Y157334D01*
X518100Y157274D01*
X518093Y157215D01*
X517190Y157367D01*
Y157370D01*
X517194Y157389D01*
X517201Y157411D01*
X517208Y157445D01*
X517216Y157485D01*
X517231Y157530D01*
X517242Y157581D01*
X517260Y157633D01*
X517301Y157752D01*
X517349Y157877D01*
X517404Y158000D01*
X517438Y158055D01*
X517471Y158110D01*
X517475Y158114D01*
X517478Y158122D01*
X517489Y158136D01*
X517508Y158155D01*
X517526Y158181D01*
X517549Y158207D01*
X517578Y158236D01*
X517612Y158270D01*
X517645Y158303D01*
X517686Y158340D01*
X517730Y158377D01*
X517778Y158410D01*
X517830Y158447D01*
X517882Y158484D01*
X518004Y158547D01*
X518008Y158551D01*
X518019Y158554D01*
X518037Y158562D01*
X518063Y158573D01*
X518096Y158584D01*
X518133Y158599D01*
X518178Y158614D01*
X518226Y158628D01*
X518281Y158643D01*
X518340Y158654D01*
X518403Y158669D01*
X518470Y158680D01*
X518614Y158699D01*
X518692Y158706D01*
X518803D01*
X518840Y158703D01*
D02*
G37*
G36*
X509235Y156549D02*
X510578D01*
Y155631D01*
X509235D01*
Y154303D01*
X508339D01*
Y155631D01*
X507000D01*
Y156549D01*
X508339D01*
Y157877D01*
X509235D01*
Y156549D01*
D02*
G37*
G36*
X523765Y153567D02*
X522651D01*
X520823Y158688D01*
X521941D01*
X523239Y154899D01*
X524490Y158688D01*
X525589D01*
X523765Y153567D01*
D02*
G37*
G36*
X626895Y106692D02*
X626958D01*
X627025Y106688D01*
X627099Y106685D01*
X627176Y106677D01*
X627254Y106670D01*
X627417Y106655D01*
X627494Y106644D01*
X627572Y106629D01*
X627642Y106614D01*
X627709Y106596D01*
X627713D01*
X627728Y106588D01*
X627753Y106581D01*
X627783Y106570D01*
X627824Y106555D01*
X627868Y106536D01*
X627920Y106514D01*
X627976Y106488D01*
X628035Y106455D01*
X628098Y106422D01*
X628160Y106381D01*
X628227Y106340D01*
X628290Y106292D01*
X628357Y106240D01*
X628419Y106185D01*
X628482Y106122D01*
X628486Y106118D01*
X628497Y106107D01*
X628512Y106089D01*
X628534Y106063D01*
X628564Y106030D01*
X628593Y105989D01*
X628627Y105945D01*
X628664Y105893D01*
X628704Y105833D01*
X628741Y105771D01*
X628782Y105704D01*
X628823Y105630D01*
X628863Y105552D01*
X628900Y105471D01*
X628937Y105382D01*
X628971Y105293D01*
X628974Y105290D01*
X628978Y105271D01*
X628986Y105245D01*
X628997Y105204D01*
X629011Y105156D01*
X629026Y105101D01*
X629041Y105034D01*
X629056Y104960D01*
X629071Y104875D01*
X629085Y104783D01*
X629100Y104683D01*
X629115Y104576D01*
X629126Y104464D01*
X629134Y104342D01*
X629141Y104217D01*
Y104083D01*
Y104076D01*
Y104054D01*
Y104021D01*
X629137Y103976D01*
Y103924D01*
X629134Y103858D01*
X629126Y103787D01*
X629122Y103710D01*
X629111Y103628D01*
X629104Y103540D01*
X629074Y103358D01*
X629034Y103173D01*
X629011Y103084D01*
X628982Y102996D01*
X628978Y102988D01*
X628974Y102970D01*
X628963Y102940D01*
X628945Y102903D01*
X628926Y102855D01*
X628904Y102799D01*
X628875Y102740D01*
X628841Y102674D01*
X628804Y102603D01*
X628764Y102529D01*
X628719Y102455D01*
X628671Y102378D01*
X628616Y102304D01*
X628560Y102230D01*
X628501Y102156D01*
X628434Y102089D01*
X628431Y102085D01*
X628423Y102078D01*
X628405Y102063D01*
X628386Y102045D01*
X628357Y102023D01*
X628323Y102000D01*
X628286Y101971D01*
X628242Y101941D01*
X628194Y101908D01*
X628138Y101874D01*
X628079Y101841D01*
X628016Y101808D01*
X627946Y101775D01*
X627872Y101741D01*
X627794Y101712D01*
X627709Y101682D01*
X627705D01*
X627694Y101678D01*
X627672Y101671D01*
X627646Y101667D01*
X627613Y101656D01*
X627568Y101649D01*
X627520Y101638D01*
X627465Y101630D01*
X627402Y101619D01*
X627335Y101608D01*
X627258Y101601D01*
X627176Y101593D01*
X627087Y101586D01*
X626995Y101578D01*
X626895Y101575D01*
X624849D01*
Y106696D01*
X626840D01*
X626895Y106692D01*
D02*
G37*
G36*
X606023Y101575D02*
X604899D01*
X604455Y102737D01*
X602405D01*
X601983Y101575D01*
X600888D01*
X602875Y106696D01*
X603974D01*
X606023Y101575D01*
D02*
G37*
G36*
X610645D02*
X609609D01*
X607540Y104927D01*
Y101575D01*
X606582D01*
Y106696D01*
X607585D01*
X609686Y103266D01*
Y106696D01*
X610645D01*
Y101575D01*
D02*
G37*
G36*
X613549Y102940D02*
X611622D01*
Y103921D01*
X613549D01*
Y102940D01*
D02*
G37*
G36*
X643089Y145140D02*
Y144414D01*
X637794Y145684D01*
Y146423D01*
X643089Y145140D01*
D02*
G37*
G36*
X638664Y144107D02*
X638678Y144093D01*
X638704Y144070D01*
X638738Y144041D01*
X638778Y144000D01*
X638830Y143956D01*
X638889Y143904D01*
X638960Y143848D01*
X639041Y143785D01*
X639126Y143719D01*
X639222Y143652D01*
X639330Y143578D01*
X639444Y143500D01*
X639566Y143423D01*
X639696Y143345D01*
X639837Y143264D01*
X639840D01*
X639844Y143260D01*
X639855Y143253D01*
X639870Y143245D01*
X639888Y143234D01*
X639914Y143223D01*
X639940Y143208D01*
X639970Y143193D01*
X640040Y143156D01*
X640125Y143116D01*
X640221Y143071D01*
X640329Y143019D01*
X640443Y142968D01*
X640569Y142916D01*
X640706Y142860D01*
X640847Y142805D01*
X640995Y142753D01*
X641146Y142701D01*
X641305Y142653D01*
X641465Y142609D01*
X641468D01*
X641476Y142605D01*
X641487D01*
X641502Y142598D01*
X641524Y142594D01*
X641550Y142590D01*
X641575Y142583D01*
X641609Y142576D01*
X641683Y142557D01*
X641772Y142538D01*
X641872Y142520D01*
X641979Y142498D01*
X642094Y142479D01*
X642216Y142457D01*
X642345Y142439D01*
X642475Y142424D01*
X642608Y142409D01*
X642741Y142398D01*
X642871Y142394D01*
X643000Y142391D01*
Y141443D01*
X642974D01*
X642952Y141447D01*
X642896D01*
X642859Y141451D01*
X642815Y141454D01*
X642771Y141458D01*
X642719Y141462D01*
X642663Y141465D01*
X642604Y141473D01*
X642541Y141480D01*
X642475Y141488D01*
X642330Y141506D01*
X642175Y141532D01*
X642005Y141558D01*
X641827Y141595D01*
X641638Y141636D01*
X641446Y141688D01*
X641246Y141743D01*
X641043Y141806D01*
X640836Y141880D01*
X640832D01*
X640824Y141884D01*
X640806Y141891D01*
X640787Y141898D01*
X640758Y141910D01*
X640728Y141924D01*
X640691Y141939D01*
X640651Y141954D01*
X640602Y141976D01*
X640551Y141998D01*
X640499Y142020D01*
X640440Y142046D01*
X640314Y142106D01*
X640173Y142172D01*
X640025Y142250D01*
X639866Y142331D01*
X639703Y142424D01*
X639533Y142520D01*
X639363Y142627D01*
X639193Y142738D01*
X639022Y142860D01*
X638856Y142986D01*
Y140755D01*
X637946D01*
Y144111D01*
X638660D01*
X638664Y144107D01*
D02*
G37*
G36*
X641531Y155648D02*
X641579Y155644D01*
X641635Y155637D01*
X641705Y155625D01*
X641779Y155611D01*
X641860Y155588D01*
X641949Y155562D01*
X642042Y155529D01*
X642138Y155489D01*
X642234Y155444D01*
X642334Y155385D01*
X642430Y155318D01*
X642523Y155244D01*
X642615Y155156D01*
X642619Y155148D01*
X642634Y155133D01*
X642660Y155104D01*
X642689Y155067D01*
X642726Y155019D01*
X642763Y154963D01*
X642808Y154893D01*
X642852Y154819D01*
X642896Y154734D01*
X642937Y154641D01*
X642978Y154541D01*
X643015Y154430D01*
X643044Y154316D01*
X643067Y154193D01*
X643085Y154064D01*
X643089Y153931D01*
Y153927D01*
Y153923D01*
Y153912D01*
Y153901D01*
X643085Y153864D01*
X643081Y153816D01*
X643078Y153757D01*
X643067Y153687D01*
X643055Y153613D01*
X643037Y153527D01*
X643018Y153439D01*
X642993Y153346D01*
X642959Y153250D01*
X642919Y153154D01*
X642874Y153058D01*
X642822Y152961D01*
X642760Y152869D01*
X642689Y152780D01*
X642686Y152776D01*
X642671Y152762D01*
X642649Y152736D01*
X642615Y152706D01*
X642578Y152673D01*
X642530Y152632D01*
X642471Y152588D01*
X642408Y152543D01*
X642338Y152495D01*
X642260Y152451D01*
X642171Y152406D01*
X642079Y152362D01*
X641983Y152325D01*
X641875Y152295D01*
X641764Y152269D01*
X641646Y152251D01*
X641527Y153202D01*
X641531D01*
X641542Y153206D01*
X641561D01*
X641587Y153213D01*
X641620Y153217D01*
X641653Y153228D01*
X641694Y153235D01*
X641735Y153250D01*
X641823Y153280D01*
X641916Y153324D01*
X642008Y153376D01*
X642049Y153409D01*
X642086Y153442D01*
X642090Y153446D01*
X642094Y153454D01*
X642105Y153465D01*
X642116Y153479D01*
X642131Y153498D01*
X642145Y153520D01*
X642179Y153579D01*
X642216Y153650D01*
X642245Y153731D01*
X642267Y153823D01*
X642271Y153872D01*
X642275Y153923D01*
Y153927D01*
Y153938D01*
Y153953D01*
X642271Y153975D01*
X642267Y154001D01*
X642264Y154031D01*
X642245Y154101D01*
X642219Y154182D01*
X642201Y154223D01*
X642179Y154268D01*
X642153Y154312D01*
X642119Y154353D01*
X642086Y154393D01*
X642045Y154434D01*
X642042Y154438D01*
X642034Y154441D01*
X642023Y154453D01*
X642005Y154467D01*
X641979Y154482D01*
X641953Y154501D01*
X641920Y154519D01*
X641883Y154541D01*
X641838Y154560D01*
X641794Y154578D01*
X641742Y154597D01*
X641686Y154612D01*
X641627Y154626D01*
X641564Y154638D01*
X641494Y154641D01*
X641424Y154645D01*
X641387D01*
X641361Y154641D01*
X641331Y154638D01*
X641294Y154634D01*
X641254Y154630D01*
X641213Y154619D01*
X641117Y154597D01*
X641020Y154560D01*
X640972Y154538D01*
X640924Y154512D01*
X640876Y154482D01*
X640836Y154445D01*
X640832Y154441D01*
X640824Y154438D01*
X640817Y154427D01*
X640802Y154408D01*
X640784Y154390D01*
X640765Y154367D01*
X640725Y154308D01*
X640688Y154238D01*
X640651Y154156D01*
X640636Y154112D01*
X640628Y154064D01*
X640621Y154012D01*
X640617Y153960D01*
Y153957D01*
Y153953D01*
Y153942D01*
Y153927D01*
X640621Y153909D01*
Y153886D01*
X640625Y153835D01*
X640636Y153768D01*
X640647Y153690D01*
X640665Y153605D01*
X640691Y153513D01*
X639892Y153620D01*
Y153624D01*
Y153639D01*
Y153657D01*
Y153687D01*
X639888Y153720D01*
X639885Y153757D01*
X639881Y153801D01*
X639874Y153846D01*
X639855Y153946D01*
X639825Y154045D01*
X639803Y154097D01*
X639781Y154145D01*
X639755Y154190D01*
X639722Y154230D01*
X639718Y154234D01*
X639714Y154238D01*
X639703Y154249D01*
X639688Y154264D01*
X639670Y154279D01*
X639648Y154297D01*
X639622Y154316D01*
X639592Y154338D01*
X639522Y154375D01*
X639437Y154408D01*
X639393Y154423D01*
X639341Y154434D01*
X639289Y154438D01*
X639233Y154441D01*
X639208D01*
X639189Y154438D01*
X639167D01*
X639145Y154434D01*
X639085Y154423D01*
X639019Y154404D01*
X638952Y154375D01*
X638886Y154338D01*
X638823Y154286D01*
X638815Y154279D01*
X638797Y154256D01*
X638775Y154223D01*
X638745Y154175D01*
X638715Y154116D01*
X638693Y154045D01*
X638675Y153968D01*
X638667Y153875D01*
Y153872D01*
Y153864D01*
Y153849D01*
X638671Y153835D01*
Y153812D01*
X638675Y153787D01*
X638690Y153727D01*
X638712Y153661D01*
X638741Y153587D01*
X638786Y153513D01*
X638815Y153476D01*
X638845Y153442D01*
X638849Y153439D01*
X638852Y153435D01*
X638863Y153428D01*
X638878Y153413D01*
X638897Y153402D01*
X638919Y153383D01*
X638945Y153368D01*
X638974Y153350D01*
X639008Y153331D01*
X639045Y153313D01*
X639085Y153294D01*
X639134Y153276D01*
X639182Y153261D01*
X639233Y153246D01*
X639293Y153235D01*
X639352Y153228D01*
X639200Y152325D01*
X639196D01*
X639178Y152329D01*
X639156Y152336D01*
X639122Y152343D01*
X639082Y152351D01*
X639037Y152366D01*
X638985Y152377D01*
X638934Y152395D01*
X638815Y152436D01*
X638690Y152484D01*
X638567Y152540D01*
X638512Y152573D01*
X638456Y152606D01*
X638453Y152610D01*
X638445Y152614D01*
X638431Y152625D01*
X638412Y152643D01*
X638386Y152662D01*
X638360Y152684D01*
X638331Y152714D01*
X638297Y152747D01*
X638264Y152780D01*
X638227Y152821D01*
X638190Y152865D01*
X638157Y152913D01*
X638120Y152965D01*
X638083Y153017D01*
X638020Y153139D01*
X638016Y153143D01*
X638012Y153154D01*
X638005Y153172D01*
X637994Y153198D01*
X637983Y153232D01*
X637968Y153269D01*
X637953Y153313D01*
X637938Y153361D01*
X637924Y153417D01*
X637913Y153476D01*
X637898Y153539D01*
X637887Y153605D01*
X637868Y153750D01*
X637861Y153827D01*
Y153905D01*
Y153909D01*
Y153912D01*
Y153923D01*
Y153938D01*
X637864Y153975D01*
X637868Y154023D01*
X637876Y154086D01*
X637887Y154156D01*
X637898Y154234D01*
X637920Y154319D01*
X637942Y154412D01*
X637972Y154504D01*
X638012Y154601D01*
X638057Y154697D01*
X638109Y154793D01*
X638171Y154889D01*
X638242Y154978D01*
X638323Y155063D01*
X638327Y155067D01*
X638342Y155078D01*
X638360Y155096D01*
X638390Y155119D01*
X638427Y155148D01*
X638468Y155178D01*
X638516Y155211D01*
X638571Y155244D01*
X638630Y155278D01*
X638697Y155311D01*
X638767Y155341D01*
X638841Y155370D01*
X638919Y155392D01*
X639000Y155411D01*
X639085Y155422D01*
X639174Y155426D01*
X639204D01*
X639237Y155422D01*
X639285Y155414D01*
X639344Y155403D01*
X639407Y155385D01*
X639481Y155363D01*
X639563Y155333D01*
X639644Y155292D01*
X639733Y155244D01*
X639822Y155185D01*
X639914Y155115D01*
X640003Y155030D01*
X640047Y154982D01*
X640088Y154930D01*
X640133Y154874D01*
X640173Y154815D01*
X640214Y154752D01*
X640251Y154686D01*
Y154689D01*
X640255Y154704D01*
X640262Y154726D01*
X640269Y154760D01*
X640280Y154797D01*
X640299Y154837D01*
X640317Y154885D01*
X640340Y154937D01*
X640366Y154993D01*
X640395Y155052D01*
X640428Y155111D01*
X640469Y155167D01*
X640510Y155226D01*
X640562Y155281D01*
X640614Y155337D01*
X640673Y155389D01*
X640676Y155392D01*
X640688Y155400D01*
X640706Y155414D01*
X640732Y155429D01*
X640762Y155448D01*
X640802Y155470D01*
X640847Y155496D01*
X640895Y155522D01*
X640950Y155544D01*
X641009Y155570D01*
X641076Y155592D01*
X641146Y155611D01*
X641220Y155625D01*
X641298Y155640D01*
X641379Y155648D01*
X641465Y155651D01*
X641494D01*
X641531Y155648D01*
D02*
G37*
G36*
X642301Y151544D02*
X642312Y151533D01*
X642327Y151515D01*
X642349Y151489D01*
X642378Y151455D01*
X642408Y151411D01*
X642445Y151363D01*
X642486Y151307D01*
X642526Y151245D01*
X642571Y151174D01*
X642615Y151097D01*
X642663Y151012D01*
X642711Y150923D01*
X642760Y150823D01*
X642808Y150715D01*
X642852Y150604D01*
X642856Y150597D01*
X642863Y150579D01*
X642874Y150545D01*
X642889Y150497D01*
X642907Y150442D01*
X642926Y150375D01*
X642948Y150301D01*
X642970Y150220D01*
X642993Y150127D01*
X643015Y150031D01*
X643033Y149927D01*
X643052Y149820D01*
X643067Y149709D01*
X643078Y149594D01*
X643085Y149476D01*
X643089Y149358D01*
Y149354D01*
Y149350D01*
Y149339D01*
Y149321D01*
Y149302D01*
X643085Y149280D01*
Y149224D01*
X643078Y149154D01*
X643070Y149073D01*
X643059Y148980D01*
X643048Y148880D01*
X643030Y148773D01*
X643007Y148662D01*
X642978Y148547D01*
X642948Y148429D01*
X642907Y148307D01*
X642863Y148188D01*
X642811Y148070D01*
X642752Y147955D01*
X642748Y147948D01*
X642737Y147929D01*
X642715Y147900D01*
X642689Y147859D01*
X642656Y147807D01*
X642612Y147752D01*
X642563Y147689D01*
X642504Y147619D01*
X642441Y147548D01*
X642371Y147474D01*
X642290Y147400D01*
X642205Y147326D01*
X642112Y147252D01*
X642012Y147186D01*
X641905Y147119D01*
X641790Y147060D01*
X641783Y147056D01*
X641760Y147049D01*
X641727Y147034D01*
X641679Y147012D01*
X641620Y146990D01*
X641553Y146964D01*
X641472Y146938D01*
X641383Y146912D01*
X641287Y146882D01*
X641180Y146856D01*
X641069Y146830D01*
X640950Y146808D01*
X640824Y146790D01*
X640695Y146775D01*
X640562Y146764D01*
X640425Y146760D01*
X640369D01*
X640347Y146764D01*
X640292D01*
X640221Y146771D01*
X640140Y146779D01*
X640047Y146790D01*
X639948Y146801D01*
X639840Y146819D01*
X639725Y146842D01*
X639607Y146868D01*
X639489Y146901D01*
X639367Y146938D01*
X639245Y146982D01*
X639122Y147034D01*
X639004Y147093D01*
X638997Y147097D01*
X638978Y147108D01*
X638945Y147130D01*
X638900Y147156D01*
X638849Y147189D01*
X638789Y147234D01*
X638723Y147286D01*
X638653Y147341D01*
X638575Y147408D01*
X638497Y147482D01*
X638419Y147559D01*
X638338Y147648D01*
X638260Y147744D01*
X638186Y147848D01*
X638116Y147955D01*
X638049Y148074D01*
X638046Y148081D01*
X638038Y148096D01*
X638027Y148126D01*
X638009Y148162D01*
X637990Y148211D01*
X637968Y148270D01*
X637946Y148336D01*
X637920Y148410D01*
X637898Y148495D01*
X637876Y148592D01*
X637853Y148692D01*
X637835Y148799D01*
X637816Y148914D01*
X637805Y149039D01*
X637798Y149169D01*
X637794Y149302D01*
Y149306D01*
Y149313D01*
Y149328D01*
Y149343D01*
Y149365D01*
X637798Y149395D01*
Y149424D01*
X637802Y149458D01*
X637805Y149539D01*
X637816Y149631D01*
X637827Y149735D01*
X637846Y149846D01*
X637864Y149961D01*
X637894Y150083D01*
X637924Y150209D01*
X637964Y150331D01*
X638009Y150453D01*
X638064Y150571D01*
X638127Y150686D01*
X638197Y150789D01*
X638201Y150797D01*
X638216Y150812D01*
X638238Y150841D01*
X638271Y150875D01*
X638312Y150919D01*
X638360Y150967D01*
X638419Y151023D01*
X638486Y151078D01*
X638560Y151137D01*
X638641Y151193D01*
X638734Y151252D01*
X638830Y151307D01*
X638937Y151359D01*
X639052Y151407D01*
X639171Y151448D01*
X639300Y151481D01*
X639492Y150457D01*
X639489D01*
X639478Y150453D01*
X639455Y150445D01*
X639430Y150434D01*
X639400Y150423D01*
X639363Y150405D01*
X639322Y150386D01*
X639278Y150364D01*
X639233Y150338D01*
X639185Y150309D01*
X639134Y150275D01*
X639085Y150238D01*
X639037Y150194D01*
X638989Y150149D01*
X638941Y150101D01*
X638900Y150046D01*
X638897Y150042D01*
X638889Y150031D01*
X638878Y150016D01*
X638867Y149994D01*
X638849Y149964D01*
X638830Y149927D01*
X638812Y149887D01*
X638789Y149842D01*
X638767Y149791D01*
X638749Y149735D01*
X638730Y149672D01*
X638712Y149606D01*
X638701Y149539D01*
X638690Y149461D01*
X638682Y149383D01*
X638678Y149302D01*
Y149295D01*
Y149273D01*
X638682Y149235D01*
X638686Y149191D01*
X638693Y149132D01*
X638701Y149065D01*
X638715Y148995D01*
X638734Y148914D01*
X638756Y148828D01*
X638786Y148743D01*
X638819Y148651D01*
X638860Y148562D01*
X638911Y148473D01*
X638967Y148388D01*
X639034Y148303D01*
X639111Y148225D01*
X639115Y148222D01*
X639130Y148207D01*
X639156Y148188D01*
X639193Y148162D01*
X639237Y148133D01*
X639293Y148100D01*
X639356Y148063D01*
X639430Y148026D01*
X639515Y147989D01*
X639611Y147952D01*
X639714Y147918D01*
X639829Y147889D01*
X639955Y147863D01*
X640088Y147844D01*
X640232Y147829D01*
X640384Y147826D01*
X640447D01*
X640469Y147829D01*
X640499D01*
X640532Y147833D01*
X640610Y147837D01*
X640695Y147848D01*
X640791Y147859D01*
X640895Y147878D01*
X641006Y147896D01*
X641117Y147926D01*
X641231Y147955D01*
X641342Y147996D01*
X641453Y148040D01*
X641561Y148096D01*
X641661Y148159D01*
X641749Y148229D01*
X641753Y148233D01*
X641768Y148248D01*
X641790Y148270D01*
X641820Y148303D01*
X641853Y148344D01*
X641894Y148392D01*
X641934Y148451D01*
X641975Y148514D01*
X642020Y148588D01*
X642060Y148666D01*
X642097Y148755D01*
X642134Y148851D01*
X642164Y148951D01*
X642186Y149058D01*
X642201Y149173D01*
X642205Y149291D01*
Y149295D01*
Y149306D01*
Y149324D01*
X642201Y149346D01*
Y149376D01*
X642197Y149413D01*
X642193Y149450D01*
X642190Y149495D01*
X642182Y149543D01*
X642175Y149594D01*
X642153Y149702D01*
X642119Y149820D01*
X642079Y149942D01*
Y149946D01*
X642071Y149957D01*
X642068Y149976D01*
X642057Y149998D01*
X642045Y150024D01*
X642031Y150057D01*
X642012Y150094D01*
X641994Y150135D01*
X641949Y150223D01*
X641897Y150316D01*
X641838Y150412D01*
X641772Y150505D01*
X641120D01*
Y149321D01*
X640255D01*
Y151548D01*
X642297D01*
X642301Y151544D01*
D02*
G37*
G36*
X526900Y135400D02*
X527700D01*
Y134600D01*
Y133800D01*
X528500D01*
Y133000D01*
Y132200D01*
Y131400D01*
Y130600D01*
X527700D01*
Y129800D01*
Y129000D01*
X526900D01*
Y128200D01*
Y127400D01*
X526100D01*
Y126600D01*
X525300D01*
Y125800D01*
X523700D01*
Y125000D01*
X522900D01*
Y124200D01*
X522100D01*
Y123400D01*
X521300D01*
Y122600D01*
X520500D01*
Y121800D01*
X519700D01*
Y122600D01*
Y123400D01*
X518900D01*
Y124200D01*
X518100D01*
Y125000D01*
X516500D01*
Y125800D01*
X515700D01*
Y126600D01*
X514900D01*
Y127400D01*
X514100D01*
Y128200D01*
Y129000D01*
X513300D01*
Y129800D01*
X512500D01*
Y130600D01*
Y131400D01*
Y132200D01*
Y133000D01*
Y133800D01*
Y134600D01*
X513300D01*
Y135400D01*
X514100D01*
Y136200D01*
X518900D01*
Y135400D01*
X519700D01*
Y134600D01*
X521300D01*
Y135400D01*
X522100D01*
Y136200D01*
X526900D01*
Y135400D01*
D02*
G37*
G36*
X509400D02*
X510200D01*
Y134600D01*
Y133800D01*
X511000D01*
Y133000D01*
Y132200D01*
Y131400D01*
Y130600D01*
X510200D01*
Y129800D01*
Y129000D01*
X509400D01*
Y128200D01*
Y127400D01*
X508600D01*
Y126600D01*
X507800D01*
Y125800D01*
X506200D01*
Y125000D01*
X505400D01*
Y124200D01*
X504600D01*
Y123400D01*
X503800D01*
Y122600D01*
X503000D01*
Y121800D01*
X502200D01*
Y122600D01*
Y123400D01*
X501400D01*
Y124200D01*
X500600D01*
Y125000D01*
X499000D01*
Y125800D01*
X498200D01*
Y126600D01*
X497400D01*
Y127400D01*
X496600D01*
Y128200D01*
Y129000D01*
X495800D01*
Y129800D01*
X495000D01*
Y130600D01*
Y131400D01*
Y132200D01*
Y133000D01*
Y133800D01*
Y134600D01*
X495800D01*
Y135400D01*
X496600D01*
Y136200D01*
X501400D01*
Y135400D01*
X502200D01*
Y134600D01*
X503800D01*
Y135400D01*
X504600D01*
Y136200D01*
X509400D01*
Y135400D01*
D02*
G37*
G36*
X528700Y195600D02*
X529500D01*
Y194800D01*
Y194000D01*
X530300D01*
Y193200D01*
Y192400D01*
Y191600D01*
Y190800D01*
X529500D01*
Y190000D01*
Y189200D01*
X528700D01*
Y188400D01*
Y187600D01*
X527900D01*
Y186800D01*
X527100D01*
Y186000D01*
X525500D01*
Y185200D01*
X524700D01*
Y184400D01*
X523900D01*
Y183600D01*
X523100D01*
Y182800D01*
X522300D01*
Y182000D01*
X521500D01*
Y182800D01*
Y183600D01*
X520700D01*
Y184400D01*
X519900D01*
Y185200D01*
X518300D01*
Y186000D01*
X517500D01*
Y186800D01*
X516700D01*
Y187600D01*
X515900D01*
Y188400D01*
Y189200D01*
X515100D01*
Y190000D01*
X514300D01*
Y190800D01*
Y191600D01*
Y192400D01*
Y193200D01*
Y194000D01*
Y194800D01*
X515100D01*
Y195600D01*
X515900D01*
Y196400D01*
X520700D01*
Y195600D01*
X521500D01*
Y194800D01*
X523100D01*
Y195600D01*
X523900D01*
Y196400D01*
X528700D01*
Y195600D01*
D02*
G37*
G36*
X510300Y195500D02*
X511100D01*
Y194700D01*
Y193900D01*
X511900D01*
Y193100D01*
Y192300D01*
Y191500D01*
Y190700D01*
X511100D01*
Y189900D01*
Y189100D01*
X510300D01*
Y188300D01*
Y187500D01*
X509500D01*
Y186700D01*
X508700D01*
Y185900D01*
X507100D01*
Y185100D01*
X506300D01*
Y184300D01*
X505500D01*
Y183500D01*
X504700D01*
Y182700D01*
X503900D01*
Y181900D01*
X503100D01*
Y182700D01*
Y183500D01*
X502300D01*
Y184300D01*
X501500D01*
Y185100D01*
X499900D01*
Y185900D01*
X499100D01*
Y186700D01*
X498300D01*
Y187500D01*
X497500D01*
Y188300D01*
Y189100D01*
X496700D01*
Y189900D01*
X495900D01*
Y190700D01*
Y191500D01*
Y192300D01*
Y193100D01*
Y193900D01*
Y194700D01*
X496700D01*
Y195500D01*
X497500D01*
Y196300D01*
X502300D01*
Y195500D01*
X503100D01*
Y194700D01*
X504700D01*
Y195500D01*
X505500D01*
Y196300D01*
X510300D01*
Y195500D01*
D02*
G37*
G36*
X583947Y127756D02*
X576290D01*
Y139964D01*
X583947D01*
Y127756D01*
D02*
G37*
G36*
X623758Y101575D02*
X622721D01*
X620653Y104927D01*
Y101575D01*
X619695D01*
Y106696D01*
X620698D01*
X622799Y103266D01*
Y106696D01*
X623758D01*
Y101575D01*
D02*
G37*
G36*
X616579Y106777D02*
X616609D01*
X616642Y106773D01*
X616724Y106770D01*
X616816Y106758D01*
X616920Y106747D01*
X617031Y106729D01*
X617146Y106710D01*
X617268Y106681D01*
X617393Y106651D01*
X617516Y106611D01*
X617638Y106566D01*
X617756Y106511D01*
X617871Y106448D01*
X617974Y106377D01*
X617982Y106374D01*
X617997Y106359D01*
X618026Y106337D01*
X618059Y106303D01*
X618104Y106263D01*
X618152Y106215D01*
X618208Y106155D01*
X618263Y106089D01*
X618322Y106015D01*
X618378Y105933D01*
X618437Y105841D01*
X618492Y105745D01*
X618544Y105637D01*
X618592Y105523D01*
X618633Y105404D01*
X618666Y105275D01*
X617641Y105082D01*
Y105086D01*
X617638Y105097D01*
X617630Y105119D01*
X617619Y105145D01*
X617608Y105175D01*
X617590Y105212D01*
X617571Y105253D01*
X617549Y105297D01*
X617523Y105341D01*
X617493Y105389D01*
X617460Y105441D01*
X617423Y105489D01*
X617379Y105537D01*
X617334Y105586D01*
X617286Y105634D01*
X617231Y105674D01*
X617227Y105678D01*
X617216Y105685D01*
X617201Y105697D01*
X617179Y105708D01*
X617149Y105726D01*
X617112Y105745D01*
X617072Y105763D01*
X617027Y105785D01*
X616975Y105808D01*
X616920Y105826D01*
X616857Y105845D01*
X616790Y105863D01*
X616724Y105874D01*
X616646Y105885D01*
X616568Y105893D01*
X616487Y105896D01*
X616457D01*
X616420Y105893D01*
X616376Y105889D01*
X616317Y105882D01*
X616250Y105874D01*
X616180Y105859D01*
X616098Y105841D01*
X616013Y105819D01*
X615928Y105789D01*
X615836Y105756D01*
X615747Y105715D01*
X615658Y105663D01*
X615573Y105608D01*
X615488Y105541D01*
X615410Y105464D01*
X615407Y105460D01*
X615392Y105445D01*
X615373Y105419D01*
X615347Y105382D01*
X615318Y105338D01*
X615284Y105282D01*
X615247Y105219D01*
X615210Y105145D01*
X615173Y105060D01*
X615136Y104964D01*
X615103Y104860D01*
X615074Y104746D01*
X615048Y104620D01*
X615029Y104487D01*
X615014Y104342D01*
X615011Y104191D01*
Y104187D01*
Y104180D01*
Y104168D01*
Y104150D01*
Y104128D01*
X615014Y104106D01*
Y104076D01*
X615018Y104043D01*
X615022Y103965D01*
X615033Y103880D01*
X615044Y103784D01*
X615063Y103680D01*
X615081Y103569D01*
X615111Y103458D01*
X615140Y103343D01*
X615181Y103232D01*
X615225Y103121D01*
X615281Y103014D01*
X615344Y102914D01*
X615414Y102825D01*
X615418Y102822D01*
X615433Y102807D01*
X615455Y102785D01*
X615488Y102755D01*
X615529Y102722D01*
X615577Y102681D01*
X615636Y102640D01*
X615699Y102600D01*
X615773Y102555D01*
X615851Y102515D01*
X615939Y102478D01*
X616036Y102441D01*
X616136Y102411D01*
X616243Y102389D01*
X616358Y102374D01*
X616476Y102370D01*
X616509D01*
X616531Y102374D01*
X616561D01*
X616598Y102378D01*
X616635Y102381D01*
X616679Y102385D01*
X616727Y102392D01*
X616779Y102400D01*
X616887Y102422D01*
X617005Y102455D01*
X617127Y102496D01*
X617131D01*
X617142Y102504D01*
X617160Y102507D01*
X617183Y102518D01*
X617208Y102529D01*
X617242Y102544D01*
X617279Y102563D01*
X617319Y102581D01*
X617408Y102626D01*
X617501Y102677D01*
X617597Y102737D01*
X617690Y102803D01*
Y103454D01*
X616505D01*
Y104320D01*
X618733D01*
Y102278D01*
X618729Y102274D01*
X618718Y102263D01*
X618700Y102248D01*
X618674Y102226D01*
X618640Y102196D01*
X618596Y102167D01*
X618548Y102130D01*
X618492Y102089D01*
X618430Y102048D01*
X618359Y102004D01*
X618282Y101960D01*
X618196Y101911D01*
X618108Y101863D01*
X618008Y101815D01*
X617900Y101767D01*
X617789Y101723D01*
X617782Y101719D01*
X617764Y101712D01*
X617730Y101701D01*
X617682Y101686D01*
X617627Y101667D01*
X617560Y101649D01*
X617486Y101627D01*
X617405Y101604D01*
X617312Y101582D01*
X617216Y101560D01*
X617112Y101541D01*
X617005Y101523D01*
X616894Y101508D01*
X616779Y101497D01*
X616661Y101490D01*
X616542Y101486D01*
X616487D01*
X616465Y101490D01*
X616409D01*
X616339Y101497D01*
X616258Y101505D01*
X616165Y101516D01*
X616065Y101527D01*
X615958Y101545D01*
X615847Y101567D01*
X615732Y101597D01*
X615614Y101627D01*
X615492Y101667D01*
X615373Y101712D01*
X615255Y101763D01*
X615140Y101823D01*
X615133Y101826D01*
X615114Y101838D01*
X615085Y101860D01*
X615044Y101886D01*
X614992Y101919D01*
X614937Y101963D01*
X614874Y102011D01*
X614804Y102071D01*
X614733Y102134D01*
X614659Y102204D01*
X614585Y102285D01*
X614511Y102370D01*
X614437Y102463D01*
X614371Y102563D01*
X614304Y102670D01*
X614245Y102785D01*
X614241Y102792D01*
X614234Y102814D01*
X614219Y102848D01*
X614197Y102896D01*
X614175Y102955D01*
X614149Y103022D01*
X614123Y103103D01*
X614097Y103192D01*
X614067Y103288D01*
X614041Y103395D01*
X614015Y103506D01*
X613993Y103625D01*
X613975Y103750D01*
X613960Y103880D01*
X613949Y104013D01*
X613945Y104150D01*
Y104154D01*
Y104157D01*
Y104172D01*
Y104187D01*
Y104206D01*
X613949Y104228D01*
Y104283D01*
X613956Y104353D01*
X613964Y104435D01*
X613975Y104527D01*
X613986Y104627D01*
X614004Y104735D01*
X614026Y104849D01*
X614052Y104968D01*
X614086Y105086D01*
X614123Y105208D01*
X614167Y105330D01*
X614219Y105452D01*
X614278Y105571D01*
X614282Y105578D01*
X614293Y105597D01*
X614315Y105630D01*
X614341Y105674D01*
X614374Y105726D01*
X614419Y105785D01*
X614470Y105852D01*
X614526Y105922D01*
X614593Y106000D01*
X614667Y106078D01*
X614744Y106155D01*
X614833Y106237D01*
X614929Y106315D01*
X615033Y106388D01*
X615140Y106459D01*
X615259Y106525D01*
X615266Y106529D01*
X615281Y106536D01*
X615310Y106548D01*
X615347Y106566D01*
X615395Y106585D01*
X615455Y106607D01*
X615521Y106629D01*
X615595Y106655D01*
X615680Y106677D01*
X615777Y106699D01*
X615876Y106721D01*
X615984Y106740D01*
X616098Y106758D01*
X616224Y106770D01*
X616354Y106777D01*
X616487Y106781D01*
X616550D01*
X616579Y106777D01*
D02*
G37*
G36*
X598520D02*
X598546D01*
X598579Y106773D01*
X598612D01*
X598694Y106762D01*
X598782Y106751D01*
X598886Y106733D01*
X598997Y106710D01*
X599116Y106681D01*
X599241Y106644D01*
X599367Y106599D01*
X599497Y106544D01*
X599622Y106481D01*
X599748Y106407D01*
X599867Y106322D01*
X599981Y106222D01*
X599985Y106218D01*
X599996Y106207D01*
X600015Y106189D01*
X600037Y106163D01*
X600066Y106130D01*
X600100Y106085D01*
X600137Y106037D01*
X600177Y105982D01*
X600218Y105919D01*
X600262Y105848D01*
X600307Y105771D01*
X600351Y105689D01*
X600392Y105597D01*
X600433Y105500D01*
X600473Y105393D01*
X600507Y105282D01*
X599482Y105038D01*
Y105042D01*
X599478Y105057D01*
X599471Y105075D01*
X599463Y105105D01*
X599452Y105138D01*
X599437Y105175D01*
X599419Y105219D01*
X599400Y105264D01*
X599349Y105364D01*
X599315Y105415D01*
X599282Y105467D01*
X599245Y105519D01*
X599201Y105571D01*
X599153Y105619D01*
X599101Y105663D01*
X599097Y105667D01*
X599090Y105674D01*
X599071Y105685D01*
X599049Y105700D01*
X599023Y105719D01*
X598990Y105737D01*
X598949Y105760D01*
X598908Y105782D01*
X598856Y105800D01*
X598805Y105822D01*
X598745Y105841D01*
X598686Y105859D01*
X598620Y105874D01*
X598549Y105885D01*
X598479Y105893D01*
X598401Y105896D01*
X598376D01*
X598346Y105893D01*
X598309Y105889D01*
X598261Y105885D01*
X598205Y105874D01*
X598142Y105863D01*
X598076Y105845D01*
X598002Y105822D01*
X597928Y105797D01*
X597850Y105763D01*
X597772Y105722D01*
X597698Y105674D01*
X597621Y105623D01*
X597550Y105560D01*
X597480Y105486D01*
X597476Y105482D01*
X597465Y105467D01*
X597447Y105441D01*
X597425Y105408D01*
X597399Y105364D01*
X597369Y105308D01*
X597336Y105245D01*
X597306Y105167D01*
X597273Y105082D01*
X597240Y104982D01*
X597210Y104875D01*
X597184Y104757D01*
X597162Y104624D01*
X597143Y104483D01*
X597132Y104328D01*
X597129Y104161D01*
Y104157D01*
Y104150D01*
Y104135D01*
Y104120D01*
Y104095D01*
X597132Y104069D01*
Y104039D01*
X597136Y104002D01*
X597140Y103924D01*
X597147Y103832D01*
X597158Y103732D01*
X597173Y103625D01*
X597191Y103514D01*
X597214Y103399D01*
X597243Y103284D01*
X597277Y103170D01*
X597314Y103062D01*
X597362Y102959D01*
X597413Y102866D01*
X597476Y102781D01*
X597480Y102777D01*
X597491Y102762D01*
X597513Y102744D01*
X597539Y102718D01*
X597573Y102685D01*
X597617Y102652D01*
X597665Y102614D01*
X597721Y102577D01*
X597784Y102537D01*
X597850Y102500D01*
X597924Y102466D01*
X598005Y102433D01*
X598091Y102407D01*
X598183Y102389D01*
X598279Y102374D01*
X598383Y102370D01*
X598424D01*
X598453Y102374D01*
X598487Y102378D01*
X598527Y102385D01*
X598575Y102392D01*
X598627Y102404D01*
X598679Y102415D01*
X598734Y102433D01*
X598794Y102455D01*
X598853Y102481D01*
X598916Y102511D01*
X598975Y102544D01*
X599034Y102585D01*
X599090Y102629D01*
X599093Y102633D01*
X599104Y102640D01*
X599119Y102659D01*
X599138Y102681D01*
X599164Y102707D01*
X599193Y102744D01*
X599223Y102785D01*
X599256Y102833D01*
X599289Y102885D01*
X599326Y102947D01*
X599363Y103014D01*
X599397Y103088D01*
X599430Y103173D01*
X599463Y103258D01*
X599493Y103355D01*
X599519Y103458D01*
X600522Y103140D01*
Y103136D01*
X600518Y103129D01*
X600514Y103118D01*
X600510Y103103D01*
X600503Y103084D01*
X600496Y103059D01*
X600477Y103003D01*
X600451Y102933D01*
X600418Y102851D01*
X600381Y102762D01*
X600337Y102670D01*
X600288Y102570D01*
X600233Y102466D01*
X600170Y102363D01*
X600100Y102259D01*
X600022Y102159D01*
X599941Y102063D01*
X599848Y101974D01*
X599752Y101893D01*
X599745Y101889D01*
X599726Y101874D01*
X599696Y101856D01*
X599656Y101830D01*
X599604Y101801D01*
X599541Y101763D01*
X599467Y101726D01*
X599382Y101690D01*
X599289Y101653D01*
X599186Y101616D01*
X599075Y101582D01*
X598953Y101549D01*
X598827Y101523D01*
X598690Y101505D01*
X598546Y101490D01*
X598394Y101486D01*
X598350D01*
X598324Y101490D01*
X598294D01*
X598261Y101493D01*
X598224Y101497D01*
X598183Y101501D01*
X598139Y101508D01*
X598035Y101523D01*
X597924Y101545D01*
X597802Y101575D01*
X597673Y101608D01*
X597536Y101656D01*
X597399Y101712D01*
X597254Y101778D01*
X597118Y101860D01*
X596977Y101952D01*
X596910Y102004D01*
X596844Y102059D01*
X596781Y102119D01*
X596718Y102182D01*
Y102185D01*
X596710Y102189D01*
X596703Y102200D01*
X596688Y102215D01*
X596673Y102233D01*
X596659Y102256D01*
X596636Y102281D01*
X596614Y102311D01*
X596592Y102344D01*
X596566Y102381D01*
X596540Y102422D01*
X596511Y102466D01*
X596452Y102566D01*
X596392Y102681D01*
X596329Y102811D01*
X596270Y102951D01*
X596215Y103110D01*
X596167Y103280D01*
X596122Y103462D01*
X596093Y103658D01*
X596070Y103865D01*
X596067Y103976D01*
X596063Y104087D01*
Y104091D01*
Y104102D01*
Y104120D01*
Y104143D01*
X596067Y104172D01*
Y104209D01*
X596070Y104250D01*
X596074Y104298D01*
X596078Y104350D01*
X596081Y104405D01*
X596089Y104464D01*
X596096Y104527D01*
X596118Y104664D01*
X596144Y104812D01*
X596181Y104971D01*
X596222Y105134D01*
X596278Y105297D01*
X596341Y105464D01*
X596418Y105626D01*
X596503Y105782D01*
X596607Y105933D01*
X596662Y106004D01*
X596722Y106070D01*
X596725Y106074D01*
X596729Y106078D01*
X596740Y106089D01*
X596751Y106100D01*
X596788Y106137D01*
X596840Y106181D01*
X596907Y106237D01*
X596988Y106296D01*
X597081Y106359D01*
X597184Y106425D01*
X597302Y106492D01*
X597436Y106555D01*
X597576Y106618D01*
X597732Y106670D01*
X597898Y106714D01*
X598072Y106751D01*
X598261Y106773D01*
X598357Y106777D01*
X598457Y106781D01*
X598498D01*
X598520Y106777D01*
D02*
G37*
G36*
X643000Y138872D02*
X640762D01*
Y136844D01*
X643000D01*
Y135812D01*
X637879D01*
Y136844D01*
X639896D01*
Y138872D01*
X637879D01*
Y139904D01*
X643000D01*
Y138872D01*
D02*
G37*
G36*
X643089Y195140D02*
Y194414D01*
X637794Y195684D01*
Y196423D01*
X643089Y195140D01*
D02*
G37*
G36*
X641531Y194118D02*
X641579Y194115D01*
X641635Y194107D01*
X641705Y194096D01*
X641779Y194081D01*
X641860Y194059D01*
X641949Y194033D01*
X642042Y194000D01*
X642138Y193959D01*
X642234Y193915D01*
X642334Y193856D01*
X642430Y193789D01*
X642523Y193715D01*
X642615Y193626D01*
X642619Y193619D01*
X642634Y193604D01*
X642660Y193575D01*
X642689Y193537D01*
X642726Y193489D01*
X642763Y193434D01*
X642808Y193364D01*
X642852Y193290D01*
X642896Y193204D01*
X642937Y193112D01*
X642978Y193012D01*
X643015Y192901D01*
X643044Y192786D01*
X643067Y192664D01*
X643085Y192535D01*
X643089Y192402D01*
Y192398D01*
Y192394D01*
Y192383D01*
Y192372D01*
X643085Y192335D01*
X643081Y192287D01*
X643078Y192228D01*
X643067Y192157D01*
X643055Y192083D01*
X643037Y191998D01*
X643018Y191910D01*
X642993Y191817D01*
X642959Y191721D01*
X642919Y191625D01*
X642874Y191528D01*
X642822Y191432D01*
X642760Y191340D01*
X642689Y191251D01*
X642686Y191247D01*
X642671Y191232D01*
X642649Y191207D01*
X642615Y191177D01*
X642578Y191144D01*
X642530Y191103D01*
X642471Y191059D01*
X642408Y191014D01*
X642338Y190966D01*
X642260Y190922D01*
X642171Y190877D01*
X642079Y190833D01*
X641983Y190796D01*
X641875Y190766D01*
X641764Y190740D01*
X641646Y190722D01*
X641527Y191673D01*
X641531D01*
X641542Y191676D01*
X641561D01*
X641587Y191684D01*
X641620Y191688D01*
X641653Y191699D01*
X641694Y191706D01*
X641735Y191721D01*
X641823Y191750D01*
X641916Y191795D01*
X642008Y191847D01*
X642049Y191880D01*
X642086Y191913D01*
X642090Y191917D01*
X642094Y191924D01*
X642105Y191935D01*
X642116Y191950D01*
X642131Y191969D01*
X642145Y191991D01*
X642179Y192050D01*
X642216Y192120D01*
X642245Y192202D01*
X642267Y192294D01*
X642271Y192342D01*
X642275Y192394D01*
Y192398D01*
Y192409D01*
Y192424D01*
X642271Y192446D01*
X642267Y192472D01*
X642264Y192501D01*
X642245Y192572D01*
X642219Y192653D01*
X642201Y192694D01*
X642179Y192738D01*
X642153Y192783D01*
X642119Y192823D01*
X642086Y192864D01*
X642045Y192905D01*
X642042Y192909D01*
X642034Y192912D01*
X642023Y192923D01*
X642005Y192938D01*
X641979Y192953D01*
X641953Y192971D01*
X641920Y192990D01*
X641883Y193012D01*
X641838Y193031D01*
X641794Y193049D01*
X641742Y193068D01*
X641686Y193082D01*
X641627Y193097D01*
X641564Y193108D01*
X641494Y193112D01*
X641424Y193116D01*
X641387D01*
X641361Y193112D01*
X641331Y193108D01*
X641294Y193105D01*
X641254Y193101D01*
X641213Y193090D01*
X641117Y193068D01*
X641020Y193031D01*
X640972Y193008D01*
X640924Y192982D01*
X640876Y192953D01*
X640836Y192916D01*
X640832Y192912D01*
X640824Y192909D01*
X640817Y192897D01*
X640802Y192879D01*
X640784Y192860D01*
X640765Y192838D01*
X640725Y192779D01*
X640688Y192709D01*
X640651Y192627D01*
X640636Y192583D01*
X640628Y192535D01*
X640621Y192483D01*
X640617Y192431D01*
Y192428D01*
Y192424D01*
Y192413D01*
Y192398D01*
X640621Y192379D01*
Y192357D01*
X640625Y192305D01*
X640636Y192239D01*
X640647Y192161D01*
X640665Y192076D01*
X640691Y191983D01*
X639892Y192091D01*
Y192095D01*
Y192109D01*
Y192128D01*
Y192157D01*
X639888Y192191D01*
X639885Y192228D01*
X639881Y192272D01*
X639874Y192316D01*
X639855Y192416D01*
X639825Y192516D01*
X639803Y192568D01*
X639781Y192616D01*
X639755Y192661D01*
X639722Y192701D01*
X639718Y192705D01*
X639714Y192709D01*
X639703Y192720D01*
X639688Y192735D01*
X639670Y192749D01*
X639648Y192768D01*
X639622Y192786D01*
X639592Y192809D01*
X639522Y192846D01*
X639437Y192879D01*
X639393Y192894D01*
X639341Y192905D01*
X639289Y192909D01*
X639233Y192912D01*
X639208D01*
X639189Y192909D01*
X639167D01*
X639145Y192905D01*
X639085Y192894D01*
X639019Y192875D01*
X638952Y192846D01*
X638886Y192809D01*
X638823Y192757D01*
X638815Y192749D01*
X638797Y192727D01*
X638775Y192694D01*
X638745Y192646D01*
X638715Y192587D01*
X638693Y192516D01*
X638675Y192439D01*
X638667Y192346D01*
Y192342D01*
Y192335D01*
Y192320D01*
X638671Y192305D01*
Y192283D01*
X638675Y192257D01*
X638690Y192198D01*
X638712Y192131D01*
X638741Y192058D01*
X638786Y191983D01*
X638815Y191946D01*
X638845Y191913D01*
X638849Y191910D01*
X638852Y191906D01*
X638863Y191898D01*
X638878Y191884D01*
X638897Y191873D01*
X638919Y191854D01*
X638945Y191839D01*
X638974Y191821D01*
X639008Y191802D01*
X639045Y191784D01*
X639085Y191765D01*
X639134Y191747D01*
X639182Y191732D01*
X639233Y191717D01*
X639293Y191706D01*
X639352Y191699D01*
X639200Y190796D01*
X639196D01*
X639178Y190799D01*
X639156Y190807D01*
X639122Y190814D01*
X639082Y190822D01*
X639037Y190837D01*
X638985Y190848D01*
X638934Y190866D01*
X638815Y190907D01*
X638690Y190955D01*
X638567Y191010D01*
X638512Y191044D01*
X638456Y191077D01*
X638453Y191081D01*
X638445Y191084D01*
X638431Y191095D01*
X638412Y191114D01*
X638386Y191132D01*
X638360Y191155D01*
X638331Y191184D01*
X638297Y191218D01*
X638264Y191251D01*
X638227Y191292D01*
X638190Y191336D01*
X638157Y191384D01*
X638120Y191436D01*
X638083Y191488D01*
X638020Y191610D01*
X638016Y191613D01*
X638012Y191625D01*
X638005Y191643D01*
X637994Y191669D01*
X637983Y191702D01*
X637968Y191739D01*
X637953Y191784D01*
X637938Y191832D01*
X637924Y191887D01*
X637913Y191946D01*
X637898Y192009D01*
X637887Y192076D01*
X637868Y192220D01*
X637861Y192298D01*
Y192376D01*
Y192379D01*
Y192383D01*
Y192394D01*
Y192409D01*
X637864Y192446D01*
X637868Y192494D01*
X637876Y192557D01*
X637887Y192627D01*
X637898Y192705D01*
X637920Y192790D01*
X637942Y192883D01*
X637972Y192975D01*
X638012Y193071D01*
X638057Y193167D01*
X638109Y193264D01*
X638171Y193360D01*
X638242Y193449D01*
X638323Y193534D01*
X638327Y193537D01*
X638342Y193549D01*
X638360Y193567D01*
X638390Y193589D01*
X638427Y193619D01*
X638468Y193649D01*
X638516Y193682D01*
X638571Y193715D01*
X638630Y193748D01*
X638697Y193782D01*
X638767Y193811D01*
X638841Y193841D01*
X638919Y193863D01*
X639000Y193882D01*
X639085Y193893D01*
X639174Y193896D01*
X639204D01*
X639237Y193893D01*
X639285Y193885D01*
X639344Y193874D01*
X639407Y193856D01*
X639481Y193833D01*
X639563Y193804D01*
X639644Y193763D01*
X639733Y193715D01*
X639822Y193656D01*
X639914Y193586D01*
X640003Y193500D01*
X640047Y193452D01*
X640088Y193401D01*
X640133Y193345D01*
X640173Y193286D01*
X640214Y193223D01*
X640251Y193156D01*
Y193160D01*
X640255Y193175D01*
X640262Y193197D01*
X640269Y193230D01*
X640280Y193267D01*
X640299Y193308D01*
X640317Y193356D01*
X640340Y193408D01*
X640366Y193464D01*
X640395Y193523D01*
X640428Y193582D01*
X640469Y193637D01*
X640510Y193697D01*
X640562Y193752D01*
X640614Y193808D01*
X640673Y193859D01*
X640676Y193863D01*
X640688Y193870D01*
X640706Y193885D01*
X640732Y193900D01*
X640762Y193919D01*
X640802Y193941D01*
X640847Y193967D01*
X640895Y193993D01*
X640950Y194015D01*
X641009Y194041D01*
X641076Y194063D01*
X641146Y194081D01*
X641220Y194096D01*
X641298Y194111D01*
X641379Y194118D01*
X641465Y194122D01*
X641494D01*
X641531Y194118D01*
D02*
G37*
G36*
X643000Y202158D02*
X642993D01*
X642978Y202162D01*
X642948Y202166D01*
X642911Y202173D01*
X642867Y202181D01*
X642811Y202192D01*
X642752Y202203D01*
X642686Y202221D01*
X642612Y202240D01*
X642534Y202266D01*
X642456Y202292D01*
X642371Y202321D01*
X642286Y202358D01*
X642197Y202399D01*
X642112Y202443D01*
X642023Y202491D01*
X642020Y202495D01*
X642001Y202506D01*
X641975Y202525D01*
X641938Y202547D01*
X641894Y202580D01*
X641838Y202625D01*
X641772Y202677D01*
X641698Y202736D01*
X641612Y202806D01*
X641520Y202884D01*
X641420Y202976D01*
X641309Y203076D01*
X641191Y203191D01*
X641069Y203313D01*
X640935Y203450D01*
X640795Y203598D01*
X640791Y203602D01*
X640787Y203605D01*
X640769Y203627D01*
X640736Y203661D01*
X640695Y203705D01*
X640643Y203757D01*
X640588Y203816D01*
X640525Y203879D01*
X640458Y203949D01*
X640317Y204086D01*
X640251Y204156D01*
X640181Y204219D01*
X640118Y204282D01*
X640059Y204334D01*
X640003Y204379D01*
X639959Y204412D01*
X639955Y204415D01*
X639944Y204419D01*
X639929Y204430D01*
X639907Y204445D01*
X639877Y204460D01*
X639848Y204475D01*
X639811Y204493D01*
X639770Y204515D01*
X639677Y204552D01*
X639577Y204582D01*
X639466Y204608D01*
X639411Y204612D01*
X639356Y204615D01*
X639326D01*
X639300Y204612D01*
X639274D01*
X639245Y204608D01*
X639171Y204593D01*
X639089Y204571D01*
X639004Y204541D01*
X638926Y204497D01*
X638886Y204467D01*
X638852Y204438D01*
X638849Y204434D01*
X638845Y204430D01*
X638837Y204419D01*
X638823Y204404D01*
X638812Y204386D01*
X638797Y204364D01*
X638778Y204338D01*
X638764Y204312D01*
X638730Y204242D01*
X638701Y204156D01*
X638682Y204060D01*
X638678Y204005D01*
X638675Y203949D01*
Y203946D01*
Y203935D01*
Y203920D01*
X638678Y203898D01*
Y203872D01*
X638686Y203842D01*
X638697Y203772D01*
X638719Y203694D01*
X638752Y203609D01*
X638775Y203572D01*
X638797Y203531D01*
X638826Y203494D01*
X638860Y203457D01*
X638863Y203453D01*
X638867Y203450D01*
X638878Y203439D01*
X638897Y203428D01*
X638915Y203413D01*
X638941Y203398D01*
X638971Y203383D01*
X639004Y203365D01*
X639045Y203346D01*
X639089Y203328D01*
X639141Y203309D01*
X639196Y203294D01*
X639259Y203280D01*
X639326Y203265D01*
X639396Y203257D01*
X639474Y203250D01*
X639378Y202273D01*
X639367D01*
X639356Y202277D01*
X639341D01*
X639322Y202281D01*
X639300Y202284D01*
X639245Y202295D01*
X639178Y202307D01*
X639104Y202325D01*
X639019Y202347D01*
X638930Y202373D01*
X638834Y202406D01*
X638738Y202443D01*
X638641Y202488D01*
X638545Y202540D01*
X638453Y202595D01*
X638368Y202662D01*
X638286Y202736D01*
X638216Y202817D01*
X638212Y202821D01*
X638201Y202839D01*
X638183Y202865D01*
X638160Y202899D01*
X638134Y202947D01*
X638105Y202998D01*
X638072Y203065D01*
X638038Y203135D01*
X638005Y203213D01*
X637972Y203302D01*
X637942Y203398D01*
X637916Y203498D01*
X637894Y203609D01*
X637876Y203724D01*
X637864Y203846D01*
X637861Y203972D01*
Y203975D01*
Y203979D01*
Y203990D01*
Y204005D01*
X637864Y204046D01*
X637868Y204097D01*
X637872Y204160D01*
X637883Y204234D01*
X637894Y204316D01*
X637913Y204404D01*
X637935Y204497D01*
X637961Y204597D01*
X637994Y204697D01*
X638035Y204793D01*
X638083Y204893D01*
X638134Y204989D01*
X638197Y205078D01*
X638271Y205163D01*
X638275Y205167D01*
X638290Y205181D01*
X638312Y205204D01*
X638345Y205229D01*
X638386Y205263D01*
X638431Y205300D01*
X638490Y205341D01*
X638553Y205381D01*
X638623Y205422D01*
X638697Y205463D01*
X638782Y205500D01*
X638871Y205533D01*
X638967Y205559D01*
X639071Y205581D01*
X639178Y205596D01*
X639289Y205599D01*
X639348D01*
X639378Y205596D01*
X639415Y205592D01*
X639455Y205588D01*
X639500Y205585D01*
X639600Y205570D01*
X639711Y205548D01*
X639829Y205514D01*
X639948Y205474D01*
X639951D01*
X639962Y205466D01*
X639977Y205459D01*
X640003Y205451D01*
X640029Y205437D01*
X640062Y205418D01*
X640103Y205400D01*
X640144Y205378D01*
X640192Y205352D01*
X640243Y205322D01*
X640354Y205255D01*
X640473Y205174D01*
X640599Y205082D01*
X640602Y205078D01*
X640610Y205074D01*
X640621Y205063D01*
X640639Y205048D01*
X640665Y205026D01*
X640695Y205000D01*
X640728Y204971D01*
X640765Y204934D01*
X640810Y204893D01*
X640858Y204845D01*
X640913Y204793D01*
X640972Y204734D01*
X641035Y204671D01*
X641102Y204601D01*
X641176Y204523D01*
X641254Y204438D01*
X641257Y204434D01*
X641272Y204419D01*
X641294Y204393D01*
X641324Y204364D01*
X641357Y204327D01*
X641394Y204282D01*
X641439Y204238D01*
X641483Y204190D01*
X641579Y204090D01*
X641672Y203990D01*
X641716Y203946D01*
X641753Y203909D01*
X641790Y203872D01*
X641820Y203846D01*
X641827Y203842D01*
X641842Y203827D01*
X641872Y203801D01*
X641905Y203775D01*
X641946Y203742D01*
X641994Y203709D01*
X642042Y203676D01*
X642090Y203646D01*
Y205599D01*
X643000D01*
Y202158D01*
D02*
G37*
G36*
X642301Y201544D02*
X642312Y201533D01*
X642327Y201515D01*
X642349Y201489D01*
X642378Y201455D01*
X642408Y201411D01*
X642445Y201363D01*
X642486Y201308D01*
X642526Y201245D01*
X642571Y201174D01*
X642615Y201097D01*
X642663Y201011D01*
X642711Y200923D01*
X642760Y200823D01*
X642808Y200715D01*
X642852Y200605D01*
X642856Y200597D01*
X642863Y200579D01*
X642874Y200545D01*
X642889Y200497D01*
X642907Y200442D01*
X642926Y200375D01*
X642948Y200301D01*
X642970Y200220D01*
X642993Y200127D01*
X643015Y200031D01*
X643033Y199927D01*
X643052Y199820D01*
X643067Y199709D01*
X643078Y199594D01*
X643085Y199476D01*
X643089Y199358D01*
Y199354D01*
Y199350D01*
Y199339D01*
Y199321D01*
Y199302D01*
X643085Y199280D01*
Y199224D01*
X643078Y199154D01*
X643070Y199073D01*
X643059Y198980D01*
X643048Y198880D01*
X643030Y198773D01*
X643007Y198662D01*
X642978Y198547D01*
X642948Y198429D01*
X642907Y198307D01*
X642863Y198188D01*
X642811Y198070D01*
X642752Y197955D01*
X642748Y197948D01*
X642737Y197929D01*
X642715Y197900D01*
X642689Y197859D01*
X642656Y197807D01*
X642612Y197752D01*
X642563Y197689D01*
X642504Y197619D01*
X642441Y197548D01*
X642371Y197474D01*
X642290Y197400D01*
X642205Y197326D01*
X642112Y197252D01*
X642012Y197186D01*
X641905Y197119D01*
X641790Y197060D01*
X641783Y197056D01*
X641760Y197049D01*
X641727Y197034D01*
X641679Y197012D01*
X641620Y196990D01*
X641553Y196964D01*
X641472Y196938D01*
X641383Y196912D01*
X641287Y196882D01*
X641180Y196856D01*
X641069Y196830D01*
X640950Y196808D01*
X640824Y196790D01*
X640695Y196775D01*
X640562Y196764D01*
X640425Y196760D01*
X640369D01*
X640347Y196764D01*
X640292D01*
X640221Y196771D01*
X640140Y196779D01*
X640047Y196790D01*
X639948Y196801D01*
X639840Y196819D01*
X639725Y196842D01*
X639607Y196868D01*
X639489Y196901D01*
X639367Y196938D01*
X639245Y196982D01*
X639122Y197034D01*
X639004Y197093D01*
X638997Y197097D01*
X638978Y197108D01*
X638945Y197130D01*
X638900Y197156D01*
X638849Y197189D01*
X638789Y197234D01*
X638723Y197286D01*
X638653Y197341D01*
X638575Y197408D01*
X638497Y197482D01*
X638419Y197559D01*
X638338Y197648D01*
X638260Y197744D01*
X638186Y197848D01*
X638116Y197955D01*
X638049Y198074D01*
X638046Y198081D01*
X638038Y198096D01*
X638027Y198126D01*
X638009Y198162D01*
X637990Y198211D01*
X637968Y198270D01*
X637946Y198336D01*
X637920Y198410D01*
X637898Y198495D01*
X637876Y198592D01*
X637853Y198692D01*
X637835Y198799D01*
X637816Y198914D01*
X637805Y199039D01*
X637798Y199169D01*
X637794Y199302D01*
Y199306D01*
Y199313D01*
Y199328D01*
Y199343D01*
Y199365D01*
X637798Y199395D01*
Y199424D01*
X637802Y199458D01*
X637805Y199539D01*
X637816Y199631D01*
X637827Y199735D01*
X637846Y199846D01*
X637864Y199961D01*
X637894Y200083D01*
X637924Y200209D01*
X637964Y200331D01*
X638009Y200453D01*
X638064Y200571D01*
X638127Y200686D01*
X638197Y200789D01*
X638201Y200797D01*
X638216Y200812D01*
X638238Y200841D01*
X638271Y200875D01*
X638312Y200919D01*
X638360Y200967D01*
X638419Y201023D01*
X638486Y201078D01*
X638560Y201137D01*
X638641Y201193D01*
X638734Y201252D01*
X638830Y201308D01*
X638937Y201359D01*
X639052Y201407D01*
X639171Y201448D01*
X639300Y201481D01*
X639492Y200457D01*
X639489D01*
X639478Y200453D01*
X639455Y200445D01*
X639430Y200434D01*
X639400Y200423D01*
X639363Y200405D01*
X639322Y200386D01*
X639278Y200364D01*
X639233Y200338D01*
X639185Y200308D01*
X639134Y200275D01*
X639085Y200238D01*
X639037Y200194D01*
X638989Y200149D01*
X638941Y200101D01*
X638900Y200046D01*
X638897Y200042D01*
X638889Y200031D01*
X638878Y200016D01*
X638867Y199994D01*
X638849Y199964D01*
X638830Y199927D01*
X638812Y199887D01*
X638789Y199842D01*
X638767Y199791D01*
X638749Y199735D01*
X638730Y199672D01*
X638712Y199606D01*
X638701Y199539D01*
X638690Y199461D01*
X638682Y199383D01*
X638678Y199302D01*
Y199295D01*
Y199273D01*
X638682Y199235D01*
X638686Y199191D01*
X638693Y199132D01*
X638701Y199065D01*
X638715Y198995D01*
X638734Y198914D01*
X638756Y198828D01*
X638786Y198743D01*
X638819Y198651D01*
X638860Y198562D01*
X638911Y198473D01*
X638967Y198388D01*
X639034Y198303D01*
X639111Y198225D01*
X639115Y198222D01*
X639130Y198207D01*
X639156Y198188D01*
X639193Y198162D01*
X639237Y198133D01*
X639293Y198100D01*
X639356Y198063D01*
X639430Y198026D01*
X639515Y197989D01*
X639611Y197952D01*
X639714Y197918D01*
X639829Y197889D01*
X639955Y197863D01*
X640088Y197844D01*
X640232Y197829D01*
X640384Y197826D01*
X640447D01*
X640469Y197829D01*
X640499D01*
X640532Y197833D01*
X640610Y197837D01*
X640695Y197848D01*
X640791Y197859D01*
X640895Y197878D01*
X641006Y197896D01*
X641117Y197926D01*
X641231Y197955D01*
X641342Y197996D01*
X641453Y198040D01*
X641561Y198096D01*
X641661Y198159D01*
X641749Y198229D01*
X641753Y198233D01*
X641768Y198248D01*
X641790Y198270D01*
X641820Y198303D01*
X641853Y198344D01*
X641894Y198392D01*
X641934Y198451D01*
X641975Y198514D01*
X642020Y198588D01*
X642060Y198666D01*
X642097Y198755D01*
X642134Y198851D01*
X642164Y198951D01*
X642186Y199058D01*
X642201Y199173D01*
X642205Y199291D01*
Y199295D01*
Y199306D01*
Y199324D01*
X642201Y199346D01*
Y199376D01*
X642197Y199413D01*
X642193Y199450D01*
X642190Y199495D01*
X642182Y199543D01*
X642175Y199594D01*
X642153Y199702D01*
X642119Y199820D01*
X642079Y199942D01*
Y199946D01*
X642071Y199957D01*
X642068Y199976D01*
X642057Y199998D01*
X642045Y200024D01*
X642031Y200057D01*
X642012Y200094D01*
X641994Y200135D01*
X641949Y200223D01*
X641897Y200316D01*
X641838Y200412D01*
X641772Y200505D01*
X641120D01*
Y199321D01*
X640255D01*
Y201548D01*
X642297D01*
X642301Y201544D01*
D02*
G37*
G36*
X641346Y183078D02*
X641391Y183074D01*
X641446Y183070D01*
X641509Y183063D01*
X641583Y183052D01*
X641661Y183037D01*
X641746Y183015D01*
X641838Y182992D01*
X641931Y182963D01*
X642027Y182926D01*
X642123Y182881D01*
X642219Y182833D01*
X642315Y182778D01*
X642412Y182711D01*
X642419Y182704D01*
X642441Y182689D01*
X642475Y182659D01*
X642519Y182619D01*
X642567Y182571D01*
X642626Y182508D01*
X642686Y182434D01*
X642748Y182352D01*
X642815Y182260D01*
X642874Y182156D01*
X642933Y182042D01*
X642981Y181920D01*
X643026Y181786D01*
X643059Y181642D01*
X643081Y181490D01*
X643085Y181409D01*
X643089Y181327D01*
Y181324D01*
Y181320D01*
Y181309D01*
Y181298D01*
X643085Y181261D01*
X643081Y181209D01*
X643078Y181150D01*
X643070Y181080D01*
X643055Y181002D01*
X643041Y180917D01*
X643022Y180828D01*
X642996Y180736D01*
X642967Y180639D01*
X642930Y180543D01*
X642885Y180447D01*
X642837Y180351D01*
X642778Y180258D01*
X642711Y180173D01*
X642708Y180169D01*
X642693Y180155D01*
X642671Y180132D01*
X642641Y180103D01*
X642604Y180066D01*
X642556Y180029D01*
X642504Y179984D01*
X642441Y179940D01*
X642371Y179892D01*
X642293Y179848D01*
X642212Y179803D01*
X642119Y179759D01*
X642023Y179722D01*
X641916Y179688D01*
X641809Y179659D01*
X641690Y179640D01*
X641587Y180617D01*
X641590D01*
X641601Y180621D01*
X641620D01*
X641642Y180628D01*
X641668Y180632D01*
X641701Y180639D01*
X641775Y180661D01*
X641860Y180695D01*
X641949Y180739D01*
X642034Y180791D01*
X642075Y180824D01*
X642112Y180861D01*
X642116Y180865D01*
X642119Y180872D01*
X642131Y180884D01*
X642142Y180898D01*
X642156Y180917D01*
X642171Y180943D01*
X642208Y180998D01*
X642245Y181069D01*
X642275Y181150D01*
X642297Y181242D01*
X642301Y181290D01*
X642304Y181339D01*
Y181342D01*
Y181353D01*
Y181368D01*
X642301Y181390D01*
X642297Y181416D01*
X642290Y181446D01*
X642275Y181520D01*
X642245Y181601D01*
X642223Y181642D01*
X642201Y181686D01*
X642171Y181731D01*
X642138Y181775D01*
X642101Y181816D01*
X642057Y181857D01*
X642053Y181860D01*
X642045Y181868D01*
X642031Y181875D01*
X642008Y181890D01*
X641983Y181905D01*
X641949Y181923D01*
X641912Y181945D01*
X641868Y181964D01*
X641816Y181982D01*
X641760Y182005D01*
X641698Y182023D01*
X641631Y182038D01*
X641557Y182053D01*
X641476Y182064D01*
X641391Y182068D01*
X641298Y182071D01*
X641254D01*
X641220Y182068D01*
X641180Y182064D01*
X641135Y182060D01*
X641087Y182053D01*
X641032Y182045D01*
X640917Y182019D01*
X640858Y182001D01*
X640799Y181982D01*
X640739Y181957D01*
X640688Y181927D01*
X640636Y181894D01*
X640588Y181857D01*
X640584Y181853D01*
X640577Y181845D01*
X640565Y181834D01*
X640551Y181820D01*
X640532Y181797D01*
X640514Y181772D01*
X640491Y181742D01*
X640469Y181709D01*
X640447Y181672D01*
X640425Y181631D01*
X640388Y181538D01*
X640373Y181483D01*
X640362Y181431D01*
X640354Y181372D01*
X640351Y181309D01*
Y181305D01*
Y181290D01*
X640354Y181268D01*
X640358Y181239D01*
X640362Y181202D01*
X640369Y181157D01*
X640380Y181109D01*
X640399Y181057D01*
X640417Y180998D01*
X640443Y180939D01*
X640473Y180876D01*
X640510Y180809D01*
X640551Y180747D01*
X640602Y180680D01*
X640658Y180613D01*
X640725Y180551D01*
X640610Y179759D01*
X637946Y180262D01*
Y182856D01*
X638863D01*
Y181006D01*
X639737Y180847D01*
X639733Y180850D01*
X639729Y180861D01*
X639722Y180880D01*
X639711Y180902D01*
X639700Y180935D01*
X639685Y180969D01*
X639670Y181009D01*
X639651Y181054D01*
X639637Y181102D01*
X639622Y181157D01*
X639596Y181268D01*
X639577Y181394D01*
X639570Y181457D01*
Y181520D01*
Y181524D01*
Y181527D01*
Y181550D01*
X639574Y181583D01*
X639577Y181627D01*
X639585Y181686D01*
X639596Y181749D01*
X639611Y181823D01*
X639629Y181901D01*
X639655Y181986D01*
X639685Y182075D01*
X639725Y182167D01*
X639770Y182260D01*
X639825Y182356D01*
X639888Y182449D01*
X639962Y182537D01*
X640047Y182626D01*
X640051Y182630D01*
X640070Y182645D01*
X640096Y182667D01*
X640133Y182696D01*
X640181Y182734D01*
X640240Y182771D01*
X640306Y182811D01*
X640380Y182856D01*
X640465Y182896D01*
X640558Y182937D01*
X640662Y182978D01*
X640769Y183011D01*
X640887Y183041D01*
X641013Y183063D01*
X641143Y183078D01*
X641283Y183081D01*
X641313D01*
X641346Y183078D01*
D02*
G37*
G36*
X643000Y175500D02*
X637924D01*
Y176532D01*
X642134D01*
Y179104D01*
X643000D01*
Y175500D01*
D02*
G37*
G36*
Y188872D02*
X640762D01*
Y186844D01*
X643000D01*
Y185812D01*
X637879D01*
Y186844D01*
X639896D01*
Y188872D01*
X637879D01*
Y189904D01*
X643000D01*
Y188872D01*
D02*
G37*
G36*
X643089Y184010D02*
Y183285D01*
X637794Y184554D01*
Y185294D01*
X643089Y184010D01*
D02*
G37*
G36*
X643000Y125500D02*
X637924D01*
Y126532D01*
X642134D01*
Y129104D01*
X643000D01*
Y125500D01*
D02*
G37*
G36*
Y129500D02*
X642993D01*
X642978Y129503D01*
X642948Y129507D01*
X642911Y129515D01*
X642867Y129522D01*
X642811Y129533D01*
X642752Y129544D01*
X642686Y129563D01*
X642612Y129581D01*
X642534Y129607D01*
X642456Y129633D01*
X642371Y129663D01*
X642286Y129700D01*
X642197Y129740D01*
X642112Y129785D01*
X642023Y129833D01*
X642020Y129836D01*
X642001Y129848D01*
X641975Y129866D01*
X641938Y129888D01*
X641894Y129921D01*
X641838Y129966D01*
X641772Y130018D01*
X641698Y130077D01*
X641612Y130147D01*
X641520Y130225D01*
X641420Y130317D01*
X641309Y130417D01*
X641191Y130532D01*
X641069Y130654D01*
X640935Y130791D01*
X640795Y130939D01*
X640791Y130943D01*
X640787Y130946D01*
X640769Y130969D01*
X640736Y131002D01*
X640695Y131046D01*
X640643Y131098D01*
X640588Y131157D01*
X640525Y131220D01*
X640458Y131290D01*
X640317Y131427D01*
X640251Y131498D01*
X640181Y131561D01*
X640118Y131623D01*
X640059Y131675D01*
X640003Y131720D01*
X639959Y131753D01*
X639955Y131757D01*
X639944Y131760D01*
X639929Y131772D01*
X639907Y131786D01*
X639877Y131801D01*
X639848Y131816D01*
X639811Y131834D01*
X639770Y131857D01*
X639677Y131894D01*
X639577Y131923D01*
X639466Y131949D01*
X639411Y131953D01*
X639356Y131957D01*
X639326D01*
X639300Y131953D01*
X639274D01*
X639245Y131949D01*
X639171Y131934D01*
X639089Y131912D01*
X639004Y131883D01*
X638926Y131838D01*
X638886Y131808D01*
X638852Y131779D01*
X638849Y131775D01*
X638845Y131772D01*
X638837Y131760D01*
X638823Y131746D01*
X638812Y131727D01*
X638797Y131705D01*
X638778Y131679D01*
X638764Y131653D01*
X638730Y131583D01*
X638701Y131498D01*
X638682Y131402D01*
X638678Y131346D01*
X638675Y131290D01*
Y131287D01*
Y131276D01*
Y131261D01*
X638678Y131239D01*
Y131213D01*
X638686Y131183D01*
X638697Y131113D01*
X638719Y131035D01*
X638752Y130950D01*
X638775Y130913D01*
X638797Y130872D01*
X638826Y130835D01*
X638860Y130798D01*
X638863Y130795D01*
X638867Y130791D01*
X638878Y130780D01*
X638897Y130769D01*
X638915Y130754D01*
X638941Y130739D01*
X638971Y130724D01*
X639004Y130706D01*
X639045Y130687D01*
X639089Y130669D01*
X639141Y130650D01*
X639196Y130636D01*
X639259Y130621D01*
X639326Y130606D01*
X639396Y130599D01*
X639474Y130591D01*
X639378Y129614D01*
X639367D01*
X639356Y129618D01*
X639341D01*
X639322Y129622D01*
X639300Y129625D01*
X639245Y129637D01*
X639178Y129648D01*
X639104Y129666D01*
X639019Y129688D01*
X638930Y129714D01*
X638834Y129748D01*
X638738Y129785D01*
X638641Y129829D01*
X638545Y129881D01*
X638453Y129936D01*
X638368Y130003D01*
X638286Y130077D01*
X638216Y130158D01*
X638212Y130162D01*
X638201Y130181D01*
X638183Y130206D01*
X638160Y130240D01*
X638134Y130288D01*
X638105Y130340D01*
X638072Y130406D01*
X638038Y130476D01*
X638005Y130554D01*
X637972Y130643D01*
X637942Y130739D01*
X637916Y130839D01*
X637894Y130950D01*
X637876Y131065D01*
X637864Y131187D01*
X637861Y131313D01*
Y131316D01*
Y131320D01*
Y131331D01*
Y131346D01*
X637864Y131387D01*
X637868Y131439D01*
X637872Y131501D01*
X637883Y131575D01*
X637894Y131657D01*
X637913Y131746D01*
X637935Y131838D01*
X637961Y131938D01*
X637994Y132038D01*
X638035Y132134D01*
X638083Y132234D01*
X638134Y132330D01*
X638197Y132419D01*
X638271Y132504D01*
X638275Y132508D01*
X638290Y132523D01*
X638312Y132545D01*
X638345Y132571D01*
X638386Y132604D01*
X638431Y132641D01*
X638490Y132682D01*
X638553Y132722D01*
X638623Y132763D01*
X638697Y132804D01*
X638782Y132841D01*
X638871Y132874D01*
X638967Y132900D01*
X639071Y132922D01*
X639178Y132937D01*
X639289Y132941D01*
X639348D01*
X639378Y132937D01*
X639415Y132933D01*
X639455Y132930D01*
X639500Y132926D01*
X639600Y132911D01*
X639711Y132889D01*
X639829Y132856D01*
X639948Y132815D01*
X639951D01*
X639962Y132808D01*
X639977Y132800D01*
X640003Y132793D01*
X640029Y132778D01*
X640062Y132759D01*
X640103Y132741D01*
X640144Y132719D01*
X640192Y132693D01*
X640243Y132663D01*
X640354Y132597D01*
X640473Y132515D01*
X640599Y132423D01*
X640602Y132419D01*
X640610Y132415D01*
X640621Y132404D01*
X640639Y132389D01*
X640665Y132367D01*
X640695Y132341D01*
X640728Y132312D01*
X640765Y132275D01*
X640810Y132234D01*
X640858Y132186D01*
X640913Y132134D01*
X640972Y132075D01*
X641035Y132012D01*
X641102Y131942D01*
X641176Y131864D01*
X641254Y131779D01*
X641257Y131775D01*
X641272Y131760D01*
X641294Y131735D01*
X641324Y131705D01*
X641357Y131668D01*
X641394Y131623D01*
X641439Y131579D01*
X641483Y131531D01*
X641579Y131431D01*
X641672Y131331D01*
X641716Y131287D01*
X641753Y131250D01*
X641790Y131213D01*
X641820Y131187D01*
X641827Y131183D01*
X641842Y131168D01*
X641872Y131142D01*
X641905Y131117D01*
X641946Y131083D01*
X641994Y131050D01*
X642042Y131017D01*
X642090Y130987D01*
Y132941D01*
X643000D01*
Y129500D01*
D02*
G37*
G36*
X643089Y134010D02*
Y133285D01*
X637794Y134554D01*
Y135294D01*
X643089Y134010D01*
D02*
G37*
%LPC*%
G36*
X592001Y119379D02*
X591961D01*
X591861Y119375D01*
X591765Y119372D01*
X591576Y119350D01*
X591402Y119313D01*
X591236Y119268D01*
X591080Y119216D01*
X590940Y119153D01*
X590806Y119090D01*
X590688Y119024D01*
X590584Y118957D01*
X590492Y118894D01*
X590411Y118835D01*
X590344Y118780D01*
X590292Y118735D01*
X590255Y118698D01*
X590244Y118687D01*
X590233Y118676D01*
X590229Y118672D01*
X590226Y118669D01*
X590166Y118602D01*
X590111Y118532D01*
X590007Y118380D01*
X589922Y118225D01*
X589844Y118062D01*
X589782Y117895D01*
X589726Y117733D01*
X589685Y117570D01*
X589648Y117411D01*
X589622Y117263D01*
X589600Y117126D01*
X589593Y117063D01*
X589585Y117004D01*
X589582Y116948D01*
X589578Y116896D01*
X589574Y116848D01*
X589571Y116808D01*
Y116771D01*
X589567Y116741D01*
Y116719D01*
Y116700D01*
Y116689D01*
Y116685D01*
X589571Y116575D01*
X589574Y116463D01*
X589597Y116256D01*
X589626Y116060D01*
X589671Y115879D01*
X589719Y115709D01*
X589774Y115550D01*
X589833Y115409D01*
X589896Y115279D01*
X589955Y115165D01*
X590015Y115065D01*
X590044Y115021D01*
X590070Y114980D01*
X590096Y114943D01*
X590118Y114910D01*
X590140Y114880D01*
X590163Y114854D01*
X590177Y114832D01*
X590192Y114813D01*
X590207Y114798D01*
X590214Y114787D01*
X590222Y114784D01*
Y114780D01*
X590285Y114717D01*
X590348Y114658D01*
X590414Y114602D01*
X590481Y114551D01*
X590621Y114458D01*
X590758Y114377D01*
X590903Y114310D01*
X591040Y114255D01*
X591176Y114207D01*
X591306Y114173D01*
X591428Y114144D01*
X591539Y114121D01*
X591643Y114107D01*
X591687Y114099D01*
X591728Y114095D01*
X591765Y114092D01*
X591798Y114088D01*
X591828D01*
X591854Y114084D01*
X591898D01*
X592050Y114088D01*
X592194Y114103D01*
X592331Y114121D01*
X592457Y114147D01*
X592579Y114181D01*
X592690Y114214D01*
X592793Y114251D01*
X592886Y114288D01*
X592971Y114325D01*
X593045Y114362D01*
X593108Y114399D01*
X593160Y114428D01*
X593200Y114454D01*
X593230Y114473D01*
X593248Y114488D01*
X593256Y114491D01*
X593352Y114573D01*
X593444Y114662D01*
X593526Y114758D01*
X593604Y114858D01*
X593674Y114961D01*
X593737Y115065D01*
X593792Y115168D01*
X593840Y115268D01*
X593885Y115361D01*
X593922Y115450D01*
X593955Y115531D01*
X593981Y115601D01*
X593999Y115657D01*
X594007Y115683D01*
X594014Y115701D01*
X594018Y115716D01*
X594022Y115727D01*
X594025Y115735D01*
Y115738D01*
X593023Y116057D01*
X592997Y115953D01*
X592967Y115857D01*
X592934Y115772D01*
X592901Y115687D01*
X592867Y115612D01*
X592830Y115546D01*
X592793Y115483D01*
X592760Y115431D01*
X592727Y115383D01*
X592697Y115342D01*
X592667Y115305D01*
X592642Y115279D01*
X592623Y115257D01*
X592608Y115239D01*
X592597Y115231D01*
X592593Y115228D01*
X592538Y115183D01*
X592479Y115143D01*
X592420Y115109D01*
X592357Y115080D01*
X592298Y115054D01*
X592238Y115032D01*
X592183Y115013D01*
X592131Y115002D01*
X592079Y114991D01*
X592031Y114983D01*
X591990Y114976D01*
X591957Y114972D01*
X591927Y114969D01*
X591887D01*
X591783Y114972D01*
X591687Y114987D01*
X591595Y115006D01*
X591509Y115032D01*
X591428Y115065D01*
X591354Y115098D01*
X591287Y115135D01*
X591224Y115176D01*
X591169Y115213D01*
X591121Y115250D01*
X591077Y115283D01*
X591043Y115316D01*
X591017Y115342D01*
X590995Y115361D01*
X590984Y115376D01*
X590980Y115379D01*
X590917Y115464D01*
X590866Y115557D01*
X590817Y115661D01*
X590780Y115768D01*
X590747Y115883D01*
X590718Y115997D01*
X590695Y116112D01*
X590677Y116223D01*
X590662Y116330D01*
X590651Y116430D01*
X590644Y116523D01*
X590640Y116600D01*
X590636Y116637D01*
Y116667D01*
X590632Y116693D01*
Y116719D01*
Y116734D01*
Y116748D01*
Y116756D01*
Y116760D01*
X590636Y116926D01*
X590647Y117081D01*
X590666Y117222D01*
X590688Y117355D01*
X590714Y117474D01*
X590743Y117581D01*
X590777Y117681D01*
X590810Y117766D01*
X590840Y117844D01*
X590873Y117906D01*
X590903Y117962D01*
X590929Y118006D01*
X590951Y118040D01*
X590969Y118066D01*
X590980Y118080D01*
X590984Y118084D01*
X591054Y118158D01*
X591125Y118221D01*
X591202Y118273D01*
X591276Y118321D01*
X591354Y118362D01*
X591432Y118395D01*
X591506Y118421D01*
X591580Y118443D01*
X591646Y118462D01*
X591709Y118473D01*
X591765Y118484D01*
X591813Y118487D01*
X591850Y118491D01*
X591879Y118495D01*
X591905D01*
X591983Y118491D01*
X592053Y118484D01*
X592124Y118473D01*
X592190Y118458D01*
X592249Y118439D01*
X592309Y118421D01*
X592360Y118399D01*
X592412Y118380D01*
X592453Y118358D01*
X592494Y118336D01*
X592527Y118317D01*
X592553Y118299D01*
X592575Y118284D01*
X592593Y118273D01*
X592601Y118265D01*
X592605Y118262D01*
X592656Y118217D01*
X592704Y118169D01*
X592749Y118117D01*
X592786Y118066D01*
X592819Y118014D01*
X592852Y117962D01*
X592904Y117862D01*
X592923Y117818D01*
X592941Y117773D01*
X592956Y117736D01*
X592967Y117703D01*
X592975Y117673D01*
X592982Y117655D01*
X592986Y117640D01*
Y117636D01*
X594011Y117881D01*
X593977Y117992D01*
X593937Y118099D01*
X593896Y118195D01*
X593855Y118288D01*
X593811Y118369D01*
X593766Y118447D01*
X593722Y118517D01*
X593681Y118580D01*
X593641Y118635D01*
X593604Y118684D01*
X593570Y118728D01*
X593541Y118761D01*
X593518Y118787D01*
X593500Y118806D01*
X593489Y118817D01*
X593485Y118820D01*
X593370Y118920D01*
X593252Y119005D01*
X593126Y119079D01*
X593001Y119142D01*
X592871Y119198D01*
X592745Y119242D01*
X592619Y119279D01*
X592501Y119309D01*
X592390Y119331D01*
X592286Y119350D01*
X592198Y119361D01*
X592116Y119372D01*
X592083D01*
X592050Y119375D01*
X592024D01*
X592001Y119379D01*
D02*
G37*
G36*
X618623Y119294D02*
X616373D01*
Y114173D01*
X617406D01*
Y116312D01*
X617676D01*
X617739Y116308D01*
X617794D01*
X617842Y116304D01*
X617890Y116297D01*
X617935Y116293D01*
X617972Y116290D01*
X618005Y116282D01*
X618035Y116279D01*
X618061Y116271D01*
X618083Y116267D01*
X618101Y116264D01*
X618112Y116260D01*
X618123Y116256D01*
X618131Y116253D01*
X618194Y116227D01*
X618249Y116193D01*
X618301Y116160D01*
X618349Y116123D01*
X618386Y116090D01*
X618416Y116064D01*
X618434Y116045D01*
X618442Y116038D01*
X618471Y116005D01*
X618508Y115960D01*
X618549Y115912D01*
X618590Y115857D01*
X618634Y115794D01*
X618679Y115731D01*
X618771Y115605D01*
X618815Y115542D01*
X618856Y115483D01*
X618893Y115431D01*
X618926Y115383D01*
X618952Y115342D01*
X618971Y115313D01*
X618986Y115294D01*
X618989Y115287D01*
X619733Y114173D01*
X620972D01*
X620347Y115172D01*
X620281Y115279D01*
X620214Y115379D01*
X620155Y115468D01*
X620099Y115553D01*
X620048Y115627D01*
X619999Y115698D01*
X619955Y115757D01*
X619914Y115809D01*
X619877Y115857D01*
X619848Y115897D01*
X619822Y115931D01*
X619800Y115957D01*
X619781Y115975D01*
X619770Y115990D01*
X619763Y115997D01*
X619759Y116001D01*
X619674Y116086D01*
X619581Y116167D01*
X619489Y116242D01*
X619400Y116308D01*
X619359Y116334D01*
X619322Y116360D01*
X619289Y116382D01*
X619259Y116401D01*
X619237Y116415D01*
X619219Y116427D01*
X619208Y116430D01*
X619204Y116434D01*
X619326Y116456D01*
X619441Y116482D01*
X619548Y116512D01*
X619648Y116549D01*
X619740Y116586D01*
X619822Y116626D01*
X619896Y116663D01*
X619966Y116704D01*
X620025Y116745D01*
X620077Y116782D01*
X620118Y116815D01*
X620155Y116845D01*
X620181Y116870D01*
X620203Y116889D01*
X620214Y116900D01*
X620218Y116904D01*
X620277Y116978D01*
X620329Y117052D01*
X620377Y117133D01*
X620414Y117211D01*
X620447Y117292D01*
X620477Y117370D01*
X620499Y117448D01*
X620517Y117522D01*
X620529Y117592D01*
X620540Y117655D01*
X620547Y117714D01*
X620554Y117762D01*
Y117803D01*
X620558Y117833D01*
Y117851D01*
Y117858D01*
X620554Y117944D01*
X620547Y118021D01*
X620536Y118099D01*
X620525Y118173D01*
X620506Y118243D01*
X620488Y118310D01*
X620466Y118373D01*
X620447Y118428D01*
X620425Y118480D01*
X620403Y118528D01*
X620384Y118565D01*
X620369Y118598D01*
X620355Y118624D01*
X620343Y118647D01*
X620336Y118658D01*
X620332Y118661D01*
X620288Y118724D01*
X620244Y118783D01*
X620195Y118839D01*
X620147Y118887D01*
X620096Y118931D01*
X620048Y118972D01*
X619999Y119009D01*
X619951Y119042D01*
X619907Y119068D01*
X619866Y119090D01*
X619829Y119113D01*
X619800Y119128D01*
X619774Y119139D01*
X619752Y119146D01*
X619740Y119153D01*
X619737D01*
X619663Y119179D01*
X619578Y119202D01*
X619489Y119220D01*
X619396Y119235D01*
X619197Y119261D01*
X619100Y119268D01*
X619004Y119275D01*
X618912Y119283D01*
X618826Y119287D01*
X618749Y119290D01*
X618679D01*
X618623Y119294D01*
D02*
G37*
G36*
X604149D02*
X603190D01*
Y115864D01*
X601089Y119294D01*
X600086D01*
Y114173D01*
X601044D01*
Y117525D01*
X603113Y114173D01*
X604149D01*
Y119294D01*
D02*
G37*
G36*
X597477D02*
X596379D01*
X594392Y114173D01*
X595487D01*
X595909Y115335D01*
X597959D01*
X598403Y114173D01*
X599527D01*
X597477Y119294D01*
D02*
G37*
G36*
X626460D02*
X624906D01*
X623992Y115797D01*
X623067Y119294D01*
X621520D01*
Y114173D01*
X622478D01*
Y118202D01*
X623489Y114173D01*
X624484D01*
X625498Y118202D01*
X625501Y114173D01*
X626460D01*
Y119294D01*
D02*
G37*
G36*
X615397D02*
X611600D01*
Y114173D01*
X615493D01*
Y115039D01*
X612633D01*
Y116427D01*
X615204D01*
Y117292D01*
X612633D01*
Y118428D01*
X615397D01*
Y119294D01*
D02*
G37*
G36*
X610938D02*
X606868D01*
Y118428D01*
X608389D01*
Y114173D01*
X609421D01*
Y118428D01*
X610938D01*
Y119294D01*
D02*
G37*
%LPD*%
G36*
X618593Y118424D02*
X618664D01*
X618723Y118421D01*
X618823D01*
X618860Y118417D01*
X618889D01*
X618915Y118413D01*
X618934D01*
X618949Y118410D01*
X618963D01*
X619052Y118387D01*
X619130Y118358D01*
X619197Y118325D01*
X619252Y118291D01*
X619296Y118258D01*
X619326Y118232D01*
X619345Y118214D01*
X619352Y118210D01*
Y118206D01*
X619400Y118143D01*
X619433Y118077D01*
X619459Y118006D01*
X619474Y117940D01*
X619485Y117881D01*
X619489Y117858D01*
Y117836D01*
X619492Y117818D01*
Y117803D01*
Y117796D01*
Y117792D01*
X619489Y117710D01*
X619478Y117636D01*
X619459Y117570D01*
X619441Y117514D01*
X619418Y117470D01*
X619404Y117437D01*
X619389Y117414D01*
X619385Y117407D01*
X619345Y117351D01*
X619296Y117307D01*
X619248Y117270D01*
X619204Y117241D01*
X619160Y117218D01*
X619126Y117200D01*
X619104Y117192D01*
X619100Y117189D01*
X619097D01*
X619056Y117178D01*
X619004Y117170D01*
X618941Y117163D01*
X618875Y117155D01*
X618801Y117148D01*
X618723Y117144D01*
X618564Y117137D01*
X618486Y117133D01*
X618345D01*
X618286Y117130D01*
X617406D01*
Y118428D01*
X618512D01*
X618593Y118424D01*
D02*
G37*
G36*
X597625Y116201D02*
X596223D01*
X596915Y118099D01*
X597625Y116201D01*
D02*
G37*
%LPC*%
G36*
X529556Y202917D02*
X529501D01*
X529463Y202912D01*
X529414Y202906D01*
X529354Y202895D01*
X529294Y202879D01*
X529223Y202863D01*
X529152Y202841D01*
X529075Y202813D01*
X528993Y202775D01*
X528911Y202731D01*
X528835Y202682D01*
X528753Y202622D01*
X528677Y202557D01*
X528600Y202480D01*
X528595Y202475D01*
X528584Y202459D01*
X528567Y202437D01*
X528540Y202398D01*
X528513Y202355D01*
X528480Y202300D01*
X528447Y202235D01*
X528409Y202164D01*
X528376Y202082D01*
X528338Y201989D01*
X528305Y201885D01*
X528278Y201776D01*
X528251Y201650D01*
X528234Y201525D01*
X528223Y201383D01*
X528218Y201236D01*
Y201224D01*
Y201197D01*
Y201159D01*
X528223Y201099D01*
X528229Y201033D01*
X528240Y200952D01*
X528251Y200864D01*
X528267Y200771D01*
X528284Y200673D01*
X528311Y200569D01*
X528343Y200466D01*
X528382Y200362D01*
X528425Y200264D01*
X528475Y200165D01*
X528535Y200073D01*
X528600Y199985D01*
X528606Y199980D01*
X528617Y199969D01*
X528638Y199947D01*
X528671Y199920D01*
X528709Y199887D01*
X528753Y199849D01*
X528808Y199810D01*
X528868Y199772D01*
X528933Y199729D01*
X529004Y199690D01*
X529081Y199652D01*
X529168Y199619D01*
X529255Y199592D01*
X529354Y199570D01*
X529452Y199559D01*
X529556Y199554D01*
X529583D01*
X529610Y199559D01*
X529648D01*
X529698Y199565D01*
X529758Y199576D01*
X529818Y199592D01*
X529889Y199608D01*
X529960Y199630D01*
X530036Y199657D01*
X530118Y199696D01*
X530195Y199734D01*
X530276Y199783D01*
X530353Y199843D01*
X530435Y199909D01*
X530506Y199985D01*
X530511Y199991D01*
X530522Y200007D01*
X530544Y200029D01*
X530566Y200067D01*
X530593Y200111D01*
X530626Y200165D01*
X530664Y200231D01*
X530702Y200302D01*
X530735Y200389D01*
X530773Y200482D01*
X530806Y200586D01*
X530833Y200695D01*
X530855Y200820D01*
X530877Y200952D01*
X530888Y201094D01*
X530893Y201241D01*
Y201252D01*
Y201279D01*
Y201317D01*
X530888Y201372D01*
X530882Y201443D01*
X530871Y201519D01*
X530861Y201607D01*
X530844Y201700D01*
X530822Y201798D01*
X530800Y201896D01*
X530768Y202000D01*
X530730Y202104D01*
X530686Y202207D01*
X530631Y202306D01*
X530577Y202393D01*
X530506Y202480D01*
X530500Y202486D01*
X530489Y202497D01*
X530468Y202519D01*
X530435Y202551D01*
X530402Y202584D01*
X530353Y202617D01*
X530304Y202660D01*
X530244Y202699D01*
X530178Y202737D01*
X530107Y202781D01*
X530025Y202813D01*
X529943Y202852D01*
X529856Y202879D01*
X529758Y202901D01*
X529659Y202912D01*
X529556Y202917D01*
D02*
G37*
G36*
X545073Y202988D02*
X545029D01*
X544997Y202983D01*
X544953Y202977D01*
X544904Y202972D01*
X544855Y202961D01*
X544795Y202944D01*
X544674Y202901D01*
X544609Y202873D01*
X544543Y202841D01*
X544472Y202802D01*
X544412Y202753D01*
X544347Y202699D01*
X544287Y202639D01*
X544281Y202633D01*
X544276Y202622D01*
X544259Y202601D01*
X544238Y202573D01*
X544216Y202540D01*
X544188Y202497D01*
X544161Y202448D01*
X544134Y202393D01*
X544101Y202327D01*
X544074Y202256D01*
X544052Y202180D01*
X544025Y202098D01*
X544008Y202005D01*
X543992Y201912D01*
X543981Y201809D01*
Y201700D01*
X546154D01*
Y201705D01*
Y201727D01*
X546149Y201760D01*
Y201803D01*
X546143Y201858D01*
X546132Y201918D01*
X546121Y201983D01*
X546105Y202055D01*
X546067Y202207D01*
X546007Y202366D01*
X545974Y202448D01*
X545930Y202519D01*
X545881Y202590D01*
X545826Y202655D01*
X545821Y202660D01*
X545810Y202671D01*
X545794Y202688D01*
X545772Y202710D01*
X545739Y202731D01*
X545706Y202759D01*
X545663Y202792D01*
X545613Y202824D01*
X545504Y202884D01*
X545379Y202939D01*
X545308Y202955D01*
X545231Y202972D01*
X545155Y202983D01*
X545073Y202988D01*
D02*
G37*
G36*
X508344Y204293D02*
X507323Y201492D01*
X509392D01*
X508344Y204293D01*
D02*
G37*
G36*
X608209Y171051D02*
X606311Y170340D01*
X608209Y169648D01*
Y171051D01*
D02*
G37*
G36*
X535884Y202988D02*
X535835D01*
X535796Y202983D01*
X535753Y202977D01*
X535704Y202966D01*
X535644Y202955D01*
X535583Y202939D01*
X535518Y202917D01*
X535447Y202884D01*
X535376Y202852D01*
X535305Y202813D01*
X535229Y202764D01*
X535158Y202710D01*
X535087Y202644D01*
X535021Y202573D01*
X535016Y202568D01*
X535005Y202557D01*
X534988Y202530D01*
X534967Y202497D01*
X534939Y202453D01*
X534912Y202398D01*
X534879Y202338D01*
X534852Y202267D01*
X534819Y202186D01*
X534786Y202093D01*
X534759Y201994D01*
X534732Y201885D01*
X534710Y201765D01*
X534693Y201634D01*
X534683Y201498D01*
X534677Y201350D01*
Y201339D01*
Y201312D01*
Y201268D01*
X534683Y201208D01*
Y201137D01*
X534688Y201055D01*
X534699Y200962D01*
X534710Y200864D01*
X534737Y200657D01*
X534781Y200449D01*
X534808Y200345D01*
X534841Y200253D01*
X534874Y200165D01*
X534917Y200083D01*
X534923Y200078D01*
X534934Y200062D01*
X534956Y200034D01*
X534983Y199996D01*
X535016Y199952D01*
X535059Y199903D01*
X535114Y199854D01*
X535169Y199805D01*
X535234Y199750D01*
X535311Y199701D01*
X535392Y199652D01*
X535480Y199608D01*
X535573Y199576D01*
X535671Y199543D01*
X535780Y199527D01*
X535895Y199521D01*
X535917D01*
X535944Y199527D01*
X535977D01*
X536020Y199532D01*
X536069Y199543D01*
X536124Y199554D01*
X536190Y199576D01*
X536250Y199598D01*
X536321Y199625D01*
X536392Y199657D01*
X536463Y199701D01*
X536533Y199745D01*
X536604Y199805D01*
X536676Y199865D01*
X536741Y199941D01*
X536747Y199947D01*
X536757Y199963D01*
X536774Y199985D01*
X536796Y200023D01*
X536823Y200067D01*
X536856Y200122D01*
X536883Y200187D01*
X536921Y200258D01*
X536954Y200345D01*
X536981Y200438D01*
X537014Y200542D01*
X537041Y200657D01*
X537063Y200782D01*
X537079Y200919D01*
X537090Y201061D01*
X537096Y201214D01*
Y201219D01*
Y201224D01*
Y201257D01*
Y201301D01*
X537090Y201366D01*
X537085Y201443D01*
X537079Y201536D01*
X537069Y201634D01*
X537052Y201738D01*
X537014Y201962D01*
X536987Y202076D01*
X536948Y202186D01*
X536910Y202295D01*
X536867Y202398D01*
X536812Y202491D01*
X536752Y202573D01*
X536747Y202579D01*
X536736Y202590D01*
X536719Y202611D01*
X536692Y202639D01*
X536659Y202671D01*
X536615Y202704D01*
X536572Y202742D01*
X536517Y202781D01*
X536457Y202819D01*
X536392Y202857D01*
X536321Y202890D01*
X536244Y202923D01*
X536162Y202950D01*
X536075Y202972D01*
X535982Y202983D01*
X535884Y202988D01*
D02*
G37*
G36*
X523107Y202917D02*
X523053D01*
X523015Y202912D01*
X522965Y202906D01*
X522905Y202895D01*
X522845Y202879D01*
X522774Y202863D01*
X522703Y202841D01*
X522627Y202813D01*
X522545Y202775D01*
X522463Y202731D01*
X522387Y202682D01*
X522305Y202622D01*
X522228Y202557D01*
X522152Y202480D01*
X522146Y202475D01*
X522135Y202459D01*
X522119Y202437D01*
X522092Y202398D01*
X522064Y202355D01*
X522032Y202300D01*
X521999Y202235D01*
X521961Y202164D01*
X521928Y202082D01*
X521890Y201989D01*
X521857Y201885D01*
X521830Y201776D01*
X521803Y201650D01*
X521786Y201525D01*
X521775Y201383D01*
X521770Y201236D01*
Y201224D01*
Y201197D01*
Y201159D01*
X521775Y201099D01*
X521781Y201033D01*
X521792Y200952D01*
X521803Y200864D01*
X521819Y200771D01*
X521835Y200673D01*
X521863Y200569D01*
X521895Y200466D01*
X521934Y200362D01*
X521977Y200264D01*
X522026Y200165D01*
X522086Y200073D01*
X522152Y199985D01*
X522157Y199980D01*
X522168Y199969D01*
X522190Y199947D01*
X522223Y199920D01*
X522261Y199887D01*
X522305Y199849D01*
X522359Y199810D01*
X522419Y199772D01*
X522485Y199729D01*
X522556Y199690D01*
X522632Y199652D01*
X522720Y199619D01*
X522807Y199592D01*
X522905Y199570D01*
X523004Y199559D01*
X523107Y199554D01*
X523135D01*
X523162Y199559D01*
X523200D01*
X523249Y199565D01*
X523309Y199576D01*
X523370Y199592D01*
X523441Y199608D01*
X523511Y199630D01*
X523588Y199657D01*
X523670Y199696D01*
X523746Y199734D01*
X523828Y199783D01*
X523905Y199843D01*
X523986Y199909D01*
X524057Y199985D01*
X524063Y199991D01*
X524074Y200007D01*
X524096Y200029D01*
X524118Y200067D01*
X524145Y200111D01*
X524178Y200165D01*
X524216Y200231D01*
X524254Y200302D01*
X524287Y200389D01*
X524325Y200482D01*
X524358Y200586D01*
X524385Y200695D01*
X524407Y200820D01*
X524429Y200952D01*
X524440Y201094D01*
X524445Y201241D01*
Y201252D01*
Y201279D01*
Y201317D01*
X524440Y201372D01*
X524434Y201443D01*
X524423Y201519D01*
X524412Y201607D01*
X524396Y201700D01*
X524374Y201798D01*
X524352Y201896D01*
X524320Y202000D01*
X524281Y202104D01*
X524238Y202207D01*
X524183Y202306D01*
X524128Y202393D01*
X524057Y202480D01*
X524052Y202486D01*
X524041Y202497D01*
X524019Y202519D01*
X523986Y202551D01*
X523954Y202584D01*
X523905Y202617D01*
X523855Y202660D01*
X523795Y202699D01*
X523730Y202737D01*
X523659Y202781D01*
X523577Y202813D01*
X523495Y202852D01*
X523408Y202879D01*
X523309Y202901D01*
X523211Y202912D01*
X523107Y202917D01*
D02*
G37*
G36*
X630861Y225593D02*
X629662D01*
X628644Y224058D01*
X627631Y225593D01*
X626421D01*
X628030Y223136D01*
X626258Y220472D01*
X627497D01*
X628637Y222204D01*
X629773Y220472D01*
X631016D01*
X629251Y223140D01*
X630861Y225593D01*
D02*
G37*
G36*
X626117D02*
X622047D01*
Y224727D01*
X623568D01*
Y220472D01*
X624600D01*
Y224727D01*
X626117D01*
Y225593D01*
D02*
G37*
G36*
X597722D02*
X595472D01*
Y220472D01*
X596505D01*
Y222611D01*
X596775D01*
X596838Y222607D01*
X596893D01*
X596941Y222604D01*
X596989Y222596D01*
X597034Y222592D01*
X597071Y222589D01*
X597104Y222581D01*
X597134Y222578D01*
X597160Y222570D01*
X597182Y222567D01*
X597200Y222563D01*
X597211Y222559D01*
X597223Y222555D01*
X597230Y222552D01*
X597293Y222526D01*
X597348Y222493D01*
X597400Y222459D01*
X597448Y222422D01*
X597485Y222389D01*
X597515Y222363D01*
X597533Y222345D01*
X597541Y222337D01*
X597570Y222304D01*
X597607Y222259D01*
X597648Y222211D01*
X597689Y222156D01*
X597733Y222093D01*
X597778Y222030D01*
X597870Y221904D01*
X597914Y221841D01*
X597955Y221782D01*
X597992Y221730D01*
X598025Y221682D01*
X598051Y221642D01*
X598070Y221612D01*
X598085Y221593D01*
X598088Y221586D01*
X598832Y220472D01*
X600071D01*
X599446Y221471D01*
X599380Y221579D01*
X599313Y221679D01*
X599254Y221767D01*
X599198Y221852D01*
X599147Y221926D01*
X599098Y221997D01*
X599054Y222056D01*
X599013Y222108D01*
X598976Y222156D01*
X598947Y222197D01*
X598921Y222230D01*
X598899Y222256D01*
X598880Y222274D01*
X598869Y222289D01*
X598862Y222297D01*
X598858Y222300D01*
X598773Y222385D01*
X598680Y222467D01*
X598588Y222541D01*
X598499Y222607D01*
X598458Y222633D01*
X598421Y222659D01*
X598388Y222681D01*
X598358Y222700D01*
X598336Y222715D01*
X598318Y222726D01*
X598307Y222729D01*
X598303Y222733D01*
X598425Y222755D01*
X598540Y222781D01*
X598647Y222811D01*
X598747Y222848D01*
X598839Y222885D01*
X598921Y222925D01*
X598995Y222962D01*
X599065Y223003D01*
X599124Y223044D01*
X599176Y223081D01*
X599217Y223114D01*
X599254Y223144D01*
X599280Y223170D01*
X599302Y223188D01*
X599313Y223199D01*
X599317Y223203D01*
X599376Y223277D01*
X599428Y223351D01*
X599476Y223432D01*
X599513Y223510D01*
X599546Y223591D01*
X599576Y223669D01*
X599598Y223747D01*
X599616Y223821D01*
X599627Y223891D01*
X599639Y223954D01*
X599646Y224013D01*
X599653Y224061D01*
Y224102D01*
X599657Y224132D01*
Y224150D01*
Y224158D01*
X599653Y224243D01*
X599646Y224320D01*
X599635Y224398D01*
X599624Y224472D01*
X599605Y224542D01*
X599587Y224609D01*
X599565Y224672D01*
X599546Y224727D01*
X599524Y224779D01*
X599502Y224827D01*
X599483Y224864D01*
X599468Y224898D01*
X599454Y224923D01*
X599442Y224946D01*
X599435Y224957D01*
X599431Y224960D01*
X599387Y225023D01*
X599343Y225083D01*
X599295Y225138D01*
X599246Y225186D01*
X599195Y225231D01*
X599147Y225271D01*
X599098Y225308D01*
X599050Y225342D01*
X599006Y225367D01*
X598965Y225390D01*
X598928Y225412D01*
X598899Y225427D01*
X598873Y225438D01*
X598850Y225445D01*
X598839Y225453D01*
X598836D01*
X598762Y225479D01*
X598677Y225501D01*
X598588Y225519D01*
X598495Y225534D01*
X598295Y225560D01*
X598199Y225567D01*
X598103Y225575D01*
X598011Y225582D01*
X597926Y225586D01*
X597848Y225589D01*
X597778D01*
X597722Y225593D01*
D02*
G37*
G36*
X604715D02*
X603516D01*
X602499Y224058D01*
X601485Y225593D01*
X600275D01*
X601885Y223136D01*
X600112Y220472D01*
X601352D01*
X602491Y222204D01*
X603627Y220472D01*
X604870D01*
X603105Y223140D01*
X604715Y225593D01*
D02*
G37*
%LPD*%
G36*
X597692Y224724D02*
X597763D01*
X597822Y224720D01*
X597922D01*
X597959Y224716D01*
X597988D01*
X598014Y224713D01*
X598033D01*
X598048Y224709D01*
X598062D01*
X598151Y224687D01*
X598229Y224657D01*
X598295Y224624D01*
X598351Y224590D01*
X598395Y224557D01*
X598425Y224531D01*
X598444Y224513D01*
X598451Y224509D01*
Y224505D01*
X598499Y224443D01*
X598532Y224376D01*
X598558Y224306D01*
X598573Y224239D01*
X598584Y224180D01*
X598588Y224158D01*
Y224135D01*
X598592Y224117D01*
Y224102D01*
Y224095D01*
Y224091D01*
X598588Y224010D01*
X598577Y223936D01*
X598558Y223869D01*
X598540Y223814D01*
X598518Y223769D01*
X598503Y223736D01*
X598488Y223714D01*
X598484Y223706D01*
X598444Y223651D01*
X598395Y223606D01*
X598347Y223569D01*
X598303Y223540D01*
X598258Y223517D01*
X598225Y223499D01*
X598203Y223492D01*
X598199Y223488D01*
X598196D01*
X598155Y223477D01*
X598103Y223469D01*
X598040Y223462D01*
X597974Y223455D01*
X597900Y223447D01*
X597822Y223444D01*
X597663Y223436D01*
X597585Y223432D01*
X597444D01*
X597385Y223429D01*
X596505D01*
Y224727D01*
X597611D01*
X597692Y224724D01*
D02*
G37*
%LPC*%
G36*
X519513Y147322D02*
X518936D01*
Y143933D01*
X519817D01*
X519858Y143936D01*
X519902D01*
X519950Y143940D01*
X520054Y143944D01*
X520157Y143955D01*
X520253Y143966D01*
X520298Y143973D01*
X520335Y143981D01*
X520338D01*
X520346Y143984D01*
X520361Y143988D01*
X520375Y143992D01*
X520398Y143999D01*
X520424Y144010D01*
X520483Y144033D01*
X520549Y144059D01*
X520616Y144096D01*
X520686Y144140D01*
X520753Y144192D01*
X520757Y144195D01*
X520760Y144199D01*
X520768Y144207D01*
X520783Y144221D01*
X520794Y144236D01*
X520812Y144258D01*
X520831Y144281D01*
X520849Y144310D01*
X520871Y144343D01*
X520893Y144380D01*
X520916Y144421D01*
X520938Y144465D01*
X520960Y144514D01*
X520982Y144569D01*
X521004Y144625D01*
X521023Y144687D01*
Y144691D01*
X521027Y144702D01*
X521034Y144725D01*
X521041Y144750D01*
X521049Y144784D01*
X521056Y144828D01*
X521067Y144876D01*
X521078Y144935D01*
X521086Y144998D01*
X521097Y145069D01*
X521104Y145143D01*
X521115Y145228D01*
X521119Y145317D01*
X521127Y145413D01*
X521130Y145516D01*
Y145624D01*
Y145631D01*
Y145650D01*
Y145679D01*
Y145720D01*
X521127Y145772D01*
Y145827D01*
X521123Y145890D01*
X521115Y145960D01*
X521112Y146031D01*
X521104Y146105D01*
X521086Y146256D01*
X521071Y146330D01*
X521060Y146404D01*
X521041Y146471D01*
X521023Y146534D01*
Y146537D01*
X521019Y146549D01*
X521012Y146563D01*
X521004Y146586D01*
X520993Y146611D01*
X520979Y146645D01*
X520949Y146715D01*
X520905Y146797D01*
X520857Y146878D01*
X520797Y146956D01*
X520731Y147030D01*
X520727Y147033D01*
X520723Y147037D01*
X520712Y147048D01*
X520697Y147059D01*
X520679Y147074D01*
X520657Y147089D01*
X520601Y147126D01*
X520531Y147167D01*
X520449Y147207D01*
X520353Y147240D01*
X520250Y147270D01*
X520246D01*
X520239Y147274D01*
X520224D01*
X520205Y147277D01*
X520179Y147281D01*
X520146Y147285D01*
X520109Y147292D01*
X520061Y147296D01*
X520009Y147300D01*
X519946Y147307D01*
X519876Y147311D01*
X519798Y147315D01*
X519713Y147318D01*
X519617D01*
X519513Y147322D01*
D02*
G37*
G36*
X508139Y177822D02*
X507032D01*
Y176523D01*
X507913D01*
X507972Y176527D01*
X508113D01*
X508190Y176531D01*
X508350Y176538D01*
X508427Y176542D01*
X508501Y176549D01*
X508568Y176557D01*
X508631Y176564D01*
X508682Y176571D01*
X508723Y176582D01*
X508727D01*
X508731Y176586D01*
X508753Y176593D01*
X508786Y176612D01*
X508830Y176634D01*
X508875Y176664D01*
X508923Y176701D01*
X508971Y176745D01*
X509012Y176801D01*
X509016Y176808D01*
X509030Y176830D01*
X509045Y176864D01*
X509067Y176908D01*
X509086Y176963D01*
X509104Y177030D01*
X509115Y177104D01*
X509119Y177185D01*
Y177189D01*
Y177197D01*
Y177211D01*
X509115Y177230D01*
Y177252D01*
X509112Y177274D01*
X509101Y177333D01*
X509086Y177400D01*
X509060Y177470D01*
X509027Y177537D01*
X508979Y177600D01*
Y177604D01*
X508971Y177607D01*
X508953Y177626D01*
X508923Y177652D01*
X508879Y177685D01*
X508823Y177718D01*
X508756Y177752D01*
X508679Y177781D01*
X508590Y177803D01*
X508575D01*
X508560Y177807D01*
X508542D01*
X508516Y177811D01*
X508486D01*
X508449Y177814D01*
X508350D01*
X508290Y177818D01*
X508220D01*
X508139Y177822D01*
D02*
G37*
G36*
X626459Y105830D02*
X625881D01*
Y102441D01*
X626762D01*
X626803Y102444D01*
X626847D01*
X626895Y102448D01*
X626999Y102452D01*
X627102Y102463D01*
X627199Y102474D01*
X627243Y102481D01*
X627280Y102489D01*
X627284D01*
X627291Y102492D01*
X627306Y102496D01*
X627321Y102500D01*
X627343Y102507D01*
X627369Y102518D01*
X627428Y102541D01*
X627494Y102566D01*
X627561Y102603D01*
X627631Y102648D01*
X627698Y102700D01*
X627702Y102703D01*
X627705Y102707D01*
X627713Y102714D01*
X627728Y102729D01*
X627739Y102744D01*
X627757Y102766D01*
X627776Y102788D01*
X627794Y102818D01*
X627816Y102851D01*
X627839Y102888D01*
X627861Y102929D01*
X627883Y102973D01*
X627905Y103022D01*
X627927Y103077D01*
X627950Y103132D01*
X627968Y103195D01*
Y103199D01*
X627972Y103210D01*
X627979Y103232D01*
X627987Y103258D01*
X627994Y103292D01*
X628001Y103336D01*
X628013Y103384D01*
X628024Y103443D01*
X628031Y103506D01*
X628042Y103577D01*
X628050Y103650D01*
X628061Y103736D01*
X628064Y103824D01*
X628072Y103921D01*
X628075Y104024D01*
Y104131D01*
Y104139D01*
Y104157D01*
Y104187D01*
Y104228D01*
X628072Y104279D01*
Y104335D01*
X628068Y104398D01*
X628061Y104468D01*
X628057Y104539D01*
X628050Y104613D01*
X628031Y104764D01*
X628016Y104838D01*
X628005Y104912D01*
X627987Y104979D01*
X627968Y105042D01*
Y105045D01*
X627964Y105057D01*
X627957Y105071D01*
X627950Y105094D01*
X627939Y105119D01*
X627924Y105153D01*
X627894Y105223D01*
X627850Y105304D01*
X627802Y105386D01*
X627742Y105464D01*
X627676Y105537D01*
X627672Y105541D01*
X627668Y105545D01*
X627657Y105556D01*
X627642Y105567D01*
X627624Y105582D01*
X627602Y105597D01*
X627546Y105634D01*
X627476Y105674D01*
X627395Y105715D01*
X627298Y105748D01*
X627195Y105778D01*
X627191D01*
X627184Y105782D01*
X627169D01*
X627150Y105785D01*
X627125Y105789D01*
X627091Y105793D01*
X627054Y105800D01*
X627006Y105804D01*
X626954Y105808D01*
X626891Y105815D01*
X626821Y105819D01*
X626743Y105822D01*
X626658Y105826D01*
X626562D01*
X626459Y105830D01*
D02*
G37*
G36*
X603411Y105500D02*
X602719Y103602D01*
X604122D01*
X603411Y105500D01*
D02*
G37*
G36*
X582677Y138783D02*
X577556D01*
Y137824D01*
X580986D01*
X577556Y135723D01*
Y134720D01*
X582677D01*
Y135678D01*
X579325D01*
X582677Y137747D01*
Y138783D01*
D02*
G37*
G36*
X580183Y133906D02*
X580013D01*
X579899Y133899D01*
X579684Y133877D01*
X579484Y133843D01*
X579295Y133799D01*
X579121Y133747D01*
X578959Y133692D01*
X578814Y133629D01*
X578681Y133566D01*
X578622Y133532D01*
X578567Y133503D01*
X578511Y133469D01*
X578463Y133440D01*
X578418Y133410D01*
X578374Y133384D01*
X578337Y133359D01*
X578304Y133333D01*
X578274Y133310D01*
X578248Y133288D01*
X578226Y133270D01*
X578208Y133255D01*
X578193Y133244D01*
X578182Y133233D01*
X578178Y133229D01*
X578174Y133225D01*
X578111Y133159D01*
X578052Y133092D01*
X577993Y133022D01*
X577941Y132951D01*
X577849Y132803D01*
X577767Y132656D01*
X577701Y132504D01*
X577641Y132352D01*
X577597Y132204D01*
X577560Y132063D01*
X577530Y131930D01*
X577508Y131808D01*
X577501Y131749D01*
X577493Y131697D01*
X577486Y131645D01*
X577482Y131601D01*
X577479Y131557D01*
X577475Y131520D01*
Y131490D01*
X577471Y131464D01*
Y131442D01*
Y131427D01*
Y131416D01*
Y131412D01*
X577475Y131298D01*
X577479Y131187D01*
X577490Y131079D01*
X577505Y130976D01*
X577519Y130879D01*
X577534Y130787D01*
X577553Y130706D01*
X577571Y130628D01*
X577593Y130558D01*
X577612Y130495D01*
X577627Y130439D01*
X577641Y130395D01*
X577656Y130358D01*
X577667Y130332D01*
X577671Y130317D01*
X577675Y130310D01*
X577704Y130243D01*
X577738Y130176D01*
X577812Y130054D01*
X577889Y129940D01*
X577926Y129888D01*
X577963Y129840D01*
X577997Y129799D01*
X578030Y129758D01*
X578060Y129725D01*
X578086Y129695D01*
X578108Y129673D01*
X578123Y129658D01*
X578134Y129647D01*
X578137Y129644D01*
X578256Y129536D01*
X578378Y129444D01*
X578496Y129362D01*
X578604Y129296D01*
X578655Y129266D01*
X578700Y129240D01*
X578740Y129218D01*
X578774Y129203D01*
X578803Y129189D01*
X578822Y129177D01*
X578837Y129174D01*
X578840Y129170D01*
X578944Y129129D01*
X579047Y129092D01*
X579158Y129063D01*
X579270Y129037D01*
X579377Y129015D01*
X579488Y128992D01*
X579591Y128978D01*
X579695Y128967D01*
X579787Y128955D01*
X579876Y128948D01*
X579954Y128944D01*
X580021Y128941D01*
X580076Y128937D01*
X580150D01*
X580265Y128941D01*
X580372Y128944D01*
X580583Y128967D01*
X580783Y129000D01*
X580968Y129041D01*
X581138Y129092D01*
X581297Y129152D01*
X581441Y129211D01*
X581571Y129274D01*
X581686Y129337D01*
X581737Y129366D01*
X581785Y129396D01*
X581830Y129425D01*
X581871Y129455D01*
X581908Y129481D01*
X581941Y129507D01*
X581971Y129529D01*
X581996Y129548D01*
X582019Y129566D01*
X582037Y129581D01*
X582052Y129596D01*
X582063Y129603D01*
X582067Y129610D01*
X582070D01*
X582133Y129673D01*
X582193Y129744D01*
X582248Y129810D01*
X582300Y129880D01*
X582392Y130028D01*
X582474Y130180D01*
X582540Y130332D01*
X582596Y130480D01*
X582644Y130628D01*
X582677Y130772D01*
X582707Y130905D01*
X582729Y131031D01*
X582736Y131087D01*
X582744Y131142D01*
X582751Y131190D01*
X582755Y131238D01*
X582759Y131279D01*
X582762Y131316D01*
Y131349D01*
X582766Y131375D01*
Y131397D01*
Y131416D01*
Y131423D01*
Y131427D01*
X582762Y131531D01*
X582759Y131634D01*
X582736Y131830D01*
X582703Y132012D01*
X582655Y132186D01*
X582603Y132345D01*
X582544Y132493D01*
X582481Y132630D01*
X582414Y132752D01*
X582352Y132859D01*
X582289Y132955D01*
X582230Y133040D01*
X582174Y133107D01*
X582152Y133136D01*
X582130Y133159D01*
X582111Y133181D01*
X582096Y133199D01*
X582085Y133211D01*
X582074Y133222D01*
X582070Y133225D01*
X582067Y133229D01*
X582000Y133292D01*
X581930Y133347D01*
X581856Y133403D01*
X581782Y133451D01*
X581626Y133544D01*
X581467Y133621D01*
X581308Y133688D01*
X581145Y133740D01*
X580986Y133784D01*
X580835Y133821D01*
X580690Y133851D01*
X580557Y133869D01*
X580494Y133880D01*
X580435Y133884D01*
X580383Y133891D01*
X580331Y133895D01*
X580287Y133899D01*
X580246Y133902D01*
X580213D01*
X580183Y133906D01*
D02*
G37*
%LPD*%
G36*
X580265Y132837D02*
X580416Y132822D01*
X580557Y132803D01*
X580687Y132778D01*
X580805Y132748D01*
X580916Y132715D01*
X581016Y132678D01*
X581105Y132641D01*
X581182Y132604D01*
X581249Y132567D01*
X581308Y132533D01*
X581353Y132504D01*
X581390Y132478D01*
X581416Y132459D01*
X581434Y132445D01*
X581438Y132441D01*
X581515Y132363D01*
X581586Y132282D01*
X581645Y132200D01*
X581693Y132115D01*
X581737Y132030D01*
X581774Y131945D01*
X581804Y131864D01*
X581826Y131782D01*
X581845Y131708D01*
X581859Y131642D01*
X581867Y131579D01*
X581874Y131527D01*
X581878Y131483D01*
X581882Y131449D01*
Y131431D01*
Y131423D01*
X581878Y131309D01*
X581863Y131201D01*
X581841Y131102D01*
X581811Y131002D01*
X581778Y130913D01*
X581741Y130828D01*
X581700Y130750D01*
X581656Y130680D01*
X581615Y130617D01*
X581575Y130561D01*
X581538Y130513D01*
X581504Y130476D01*
X581475Y130443D01*
X581453Y130421D01*
X581438Y130406D01*
X581434Y130402D01*
X581345Y130332D01*
X581249Y130269D01*
X581145Y130217D01*
X581038Y130173D01*
X580931Y130132D01*
X580820Y130099D01*
X580713Y130073D01*
X580609Y130054D01*
X580509Y130036D01*
X580416Y130025D01*
X580331Y130014D01*
X580261Y130010D01*
X580198Y130006D01*
X580176Y130003D01*
X580117D01*
X579958Y130006D01*
X579806Y130021D01*
X579665Y130040D01*
X579536Y130062D01*
X579418Y130091D01*
X579310Y130125D01*
X579214Y130162D01*
X579125Y130199D01*
X579047Y130232D01*
X578981Y130269D01*
X578925Y130302D01*
X578877Y130332D01*
X578840Y130354D01*
X578818Y130376D01*
X578800Y130387D01*
X578796Y130391D01*
X578718Y130469D01*
X578652Y130546D01*
X578592Y130632D01*
X578541Y130717D01*
X578500Y130806D01*
X578463Y130891D01*
X578433Y130976D01*
X578411Y131053D01*
X578393Y131131D01*
X578378Y131201D01*
X578370Y131264D01*
X578363Y131316D01*
X578359Y131360D01*
X578356Y131394D01*
Y131416D01*
Y131423D01*
X578359Y131542D01*
X578374Y131653D01*
X578396Y131756D01*
X578422Y131853D01*
X578455Y131945D01*
X578492Y132030D01*
X578533Y132108D01*
X578570Y132178D01*
X578611Y132241D01*
X578652Y132297D01*
X578689Y132341D01*
X578722Y132382D01*
X578748Y132411D01*
X578770Y132433D01*
X578785Y132448D01*
X578789Y132452D01*
X578874Y132522D01*
X578970Y132581D01*
X579070Y132633D01*
X579177Y132678D01*
X579284Y132715D01*
X579395Y132744D01*
X579503Y132770D01*
X579606Y132792D01*
X579706Y132807D01*
X579799Y132818D01*
X579884Y132829D01*
X579958Y132833D01*
X579991Y132837D01*
X580017D01*
X580043Y132841D01*
X580102D01*
X580265Y132837D01*
D02*
G37*
D33*
X605000Y180500D02*
G03*
X604000Y179500I0J-1000D01*
G01*
Y160937D02*
G03*
X606000Y158937I2000J0D01*
G01*
X623000D02*
G03*
X624500Y160437I0J1500D01*
G01*
Y178500D02*
G03*
X622500Y180500I-2000J0D01*
G01*
X640500Y173000D02*
X641500Y170000D01*
X639500D02*
X641500D01*
X639500D02*
X640500Y173000D01*
Y157500D02*
X641500Y160500D01*
X639500D02*
X641500D01*
X639500D02*
X640500Y157500D01*
Y173000D01*
X603937Y160630D02*
X604000Y179500D01*
X606000Y158937D02*
X623000D01*
X624500Y160630D02*
Y178500D01*
X605000Y180500D02*
X622500D01*
X522638Y165083D02*
X525591Y166067D01*
X522638Y165083D02*
Y167051D01*
X526575Y166067D01*
X522638Y164098D02*
X526575Y166067D01*
X522638Y164098D02*
Y168035D01*
X526575Y166067D01*
X515748D02*
X526575D01*
X519484Y174575D02*
Y176051D01*
Y177528D01*
X516532Y176051D02*
X519484Y177528D01*
X516532Y176051D02*
X520469Y174083D01*
Y178020D01*
X516532Y176051D02*
X520469Y178020D01*
X516532Y176051D02*
X527358D01*
X584252Y130315D02*
X620472D01*
Y148425D01*
Y149213D01*
X584252D02*
X620472D01*
X584252Y130315D02*
Y149213D01*
X530433Y178976D02*
X567835D01*
Y119921D02*
Y178976D01*
X530433Y119921D02*
X567835D01*
X530433D02*
Y178976D01*
D34*
X634150Y159303D02*
G03*
X634937Y160091I0J787D01*
G01*
X627063Y160484D02*
G03*
X628244Y159303I1181J0D01*
G01*
X627850Y171114D02*
G03*
X627063Y170327I0J-787D01*
G01*
X634937D02*
G03*
X634150Y171114I-787J0D01*
G01*
Y175803D02*
G03*
X634937Y176591I0J787D01*
G01*
X627063Y176984D02*
G03*
X628244Y175803I1181J0D01*
G01*
X627850Y187614D02*
G03*
X627063Y186827I0J-787D01*
G01*
X634937D02*
G03*
X634150Y187614I-787J0D01*
G01*
X699831Y200279D02*
G03*
X702567Y197543I2736J0D01*
G01*
X723433Y194787D02*
G03*
X720697Y197523I-2736J0D01*
G01*
X702567Y127740D02*
G03*
X699831Y125004I0J-2736D01*
G01*
X720697Y127760D02*
G03*
X723433Y130496I0J2736D01*
G01*
X634150Y142548D02*
G03*
X634937Y143335I0J787D01*
G01*
X627063Y143729D02*
G03*
X628244Y142548I1181J0D01*
G01*
X627850Y154359D02*
G03*
X627063Y153571I0J-787D01*
G01*
X634937D02*
G03*
X634150Y154359I-787J0D01*
G01*
X504882Y139921D02*
Y181417D01*
X495118Y139921D02*
Y181417D01*
X504882D01*
X495118Y139921D02*
X504882D01*
X627063Y160484D02*
Y170327D01*
X627850Y171114D02*
X634150D01*
X634937Y160091D02*
Y170327D01*
X628244Y159303D02*
X634150D01*
X560236Y190945D02*
X564173D01*
X560236D02*
Y193996D01*
Y202756D02*
X564173D01*
X560236Y199705D02*
Y202756D01*
X589421Y187441D02*
Y192559D01*
X579579Y187441D02*
Y192559D01*
Y187441D02*
X580169D01*
X579579Y192559D02*
X580169D01*
X588831D02*
X589421D01*
X588831Y187441D02*
X589421D01*
X580169Y192559D02*
X588831D01*
X580169Y187441D02*
X588831D01*
X589421Y179941D02*
Y185059D01*
X579579Y179941D02*
Y185059D01*
Y179941D02*
X580169D01*
X579579Y185059D02*
X580169D01*
X588831D02*
X589421D01*
X588831Y179941D02*
X589421D01*
X580169Y185059D02*
X588831D01*
X580169Y179941D02*
X588831D01*
X573441Y201921D02*
X578559D01*
X573441Y192079D02*
X578559D01*
Y192669D01*
X573441Y192079D02*
Y192669D01*
Y201331D02*
Y201921D01*
X578559Y201331D02*
Y201921D01*
X573441Y192669D02*
Y201331D01*
X578559Y192669D02*
Y201331D01*
X627063Y176984D02*
Y186827D01*
X627850Y187614D02*
X634150D01*
X634937Y176591D02*
Y186827D01*
X628244Y175803D02*
X634150D01*
X723433Y130496D02*
Y194787D01*
X688000Y102012D02*
Y223272D01*
X644992Y102012D02*
X699811D01*
X644992Y223272D02*
X699811D01*
X644992Y102012D02*
Y223272D01*
Y135083D02*
X688000D01*
X699811Y102012D02*
Y223272D01*
X644992Y190201D02*
X688000D01*
X702567Y197543D02*
X720677D01*
X702567Y127740D02*
X720677D01*
X581701Y157658D02*
X594299D01*
X581701Y177342D02*
X594299D01*
Y157658D02*
Y177342D01*
X581701Y157658D02*
Y177342D01*
X616929Y202756D02*
X620866D01*
Y199705D02*
Y202756D01*
X616929Y190945D02*
X620866D01*
Y193996D01*
X598228Y202756D02*
X602165D01*
Y199705D02*
Y202756D01*
X598228Y190945D02*
X602165D01*
Y193996D01*
X627063Y143729D02*
Y153571D01*
X627850Y154359D02*
X634150D01*
X634937Y143335D02*
Y153571D01*
X628244Y142548D02*
X634150D01*
D35*
X568602Y189665D02*
G03*
X568602Y189665I-492J0D01*
G01*
X577370Y178445D02*
G03*
X577370Y178445I-492J0D01*
G01*
X613484Y204035D02*
G03*
X613484Y204035I-492J0D01*
G01*
X594783D02*
G03*
X594783Y204035I-492J0D01*
G01*
D36*
X586819Y173406D02*
G03*
X586819Y173406I-1181J0D01*
G01*
D37*
X604331Y121260D02*
X616142D01*
X604331Y126772D02*
X616142D01*
Y121260D02*
Y126772D01*
X604331Y121260D02*
Y126772D01*
X576968Y139764D02*
Y151575D01*
X582480Y139764D02*
Y151575D01*
X576968Y139764D02*
X582480D01*
X576968Y151575D02*
X582480D01*
X609252Y183268D02*
X621063D01*
X609252Y188779D02*
X621063D01*
Y183268D02*
Y188779D01*
X609252Y183268D02*
Y188779D01*
X594488Y183268D02*
X606299D01*
X594488Y188779D02*
X606299D01*
Y183268D02*
Y188779D01*
X594488Y183268D02*
Y188779D01*
X642256Y111094D02*
Y122906D01*
X636744Y111094D02*
Y122906D01*
X642256D01*
X636744Y111094D02*
X642256D01*
X622047Y204921D02*
X633858D01*
X622047Y210433D02*
X633858D01*
Y204921D02*
Y210433D01*
X622047Y204921D02*
Y210433D01*
X595472Y204921D02*
X607283D01*
X595472Y210433D02*
X607283D01*
Y204921D02*
Y210433D01*
X595472Y204921D02*
Y210433D01*
X539370Y187795D02*
X551181D01*
X539370Y182283D02*
X551181D01*
X539370D02*
Y187795D01*
X551181Y182283D02*
Y187795D01*
D38*
X587894Y122638D02*
Y125394D01*
X596260Y121358D02*
X600591D01*
X596260Y126673D02*
X600591D01*
Y121358D02*
Y126673D01*
X589173Y121358D02*
X592717D01*
X589173Y126673D02*
X592717D01*
X588386Y125886D02*
X589173Y126673D01*
X587894Y125394D02*
X588484Y125984D01*
X587894Y122638D02*
X588583Y121949D01*
X588386Y122146D02*
Y125886D01*
Y122146D02*
X589173Y121358D01*
X620374Y213189D02*
Y215945D01*
X628740Y211910D02*
X633071D01*
X628740Y217224D02*
X633071D01*
Y211910D02*
Y217224D01*
X621654Y211910D02*
X625197D01*
X621654Y217224D02*
X625197D01*
X620866Y216437D02*
X621654Y217224D01*
X620374Y215945D02*
X620965Y216535D01*
X620374Y213189D02*
X621063Y212500D01*
X620866Y212697D02*
Y216437D01*
Y212697D02*
X621654Y211910D01*
X594291Y212697D02*
X595079Y211910D01*
X594291Y212697D02*
Y216437D01*
X593799Y213189D02*
X594488Y212500D01*
X593799Y215945D02*
X594390Y216535D01*
X594291Y216437D02*
X595079Y217224D01*
X598622D01*
X595079Y211910D02*
X598622D01*
X606496D02*
Y217224D01*
X602165D02*
X606496D01*
X602165Y211910D02*
X606496D01*
X593799Y213189D02*
Y215945D01*
X552953Y183169D02*
X553740Y182382D01*
X552953Y183169D02*
Y186909D01*
X552461Y183661D02*
X553150Y182972D01*
X552461Y186417D02*
X553051Y187008D01*
X552953Y186909D02*
X553740Y187697D01*
X557283D01*
X553740Y182382D02*
X557283D01*
X565158D02*
Y187697D01*
X560827D02*
X565158D01*
X560827Y182382D02*
X565158D01*
X552461Y183661D02*
Y186417D01*
D39*
X659281Y140772D02*
X659468Y140397D01*
X660031Y139834D01*
X656095D01*
X668935Y178135D02*
X668373Y178322D01*
X667998Y178697D01*
X667810Y179260D01*
Y179447D01*
X667998Y180009D01*
X668373Y180384D01*
X668935Y180572D01*
X669123D01*
X669685Y180384D01*
X670060Y180009D01*
X670247Y179447D01*
Y179260D01*
X670060Y178697D01*
X669685Y178322D01*
X668935Y178135D01*
X667998D01*
X667061Y178322D01*
X666499Y178697D01*
X666311Y179260D01*
Y179634D01*
X666499Y180197D01*
X666873Y180384D01*
D40*
X600394Y218504D02*
D03*
D41*
X606299Y222441D02*
D03*
X621063D02*
D03*
D42*
X600394Y226870D02*
D03*
D43*
X593996Y222933D02*
D03*
D44*
X626968Y226870D02*
D03*
D45*
X632874Y222441D02*
D03*
D46*
X626968Y218504D02*
D03*
D47*
X581693Y124016D02*
D03*
D48*
X606102Y128642D02*
D03*
D49*
X622047Y123524D02*
D03*
D50*
X627953Y125000D02*
D03*
D51*
X622244Y139567D02*
D03*
D52*
X625492Y133366D02*
D03*
D53*
X603346Y151378D02*
D03*
D54*
X579724Y152559D02*
D03*
D55*
X575295Y136811D02*
D03*
D56*
X583465Y145177D02*
D03*
X584449Y125492D02*
D03*
D57*
X608268Y110728D02*
D03*
D58*
X588091Y114665D02*
D03*
D59*
X605315Y120571D02*
D03*
D60*
X602362Y124016D02*
D03*
M02*
